M48
;GenerationSoftware,Autodesk,EAGLE,9.3.2*%
;CreationDate,2019-07-14T23:59:13Z*%
FMAT,2
ICI,OFF
METRIC,TZ,000.000
T7C0.350
T6C0.813
T5C0.889
T4C1.000
T3C1.016
T2C1.100
T1C3.600
%
G90
M71
T1
X5000Y77300
X125000Y77300
X5000Y11080
X125000Y11080
T2
X46101Y76073
X51181Y76073
T3
X100000Y28080
X100000Y30620
X100000Y33160
X100000Y35700
X74000Y17920
X74000Y20460
X125730Y31750
X74000Y23000
X74000Y25540
X74000Y28080
X74000Y30620
X100000Y17920
X74000Y33160
X48000Y25110
X44450Y67310
X46990Y67310
X49530Y67310
X48000Y42890
X48000Y27650
X48000Y30190
X48000Y32730
X48000Y35270
X48000Y37810
X48000Y40350
X74000Y35700
X125730Y16510
X125730Y19050
X125730Y21590
X125730Y24130
X125730Y26670
X125730Y29210
X125730Y34290
X100000Y20460
X100000Y23000
X100000Y25540
T4
X73321Y74900
X73321Y72400
X73321Y69900
X107950Y74890
X107950Y72390
X107950Y69890
X56007Y72263
X56007Y69763
X90636Y69900
X90636Y72400
X56007Y74763
X90636Y74900
T5
X69400Y43750
X69400Y38870
X95400Y43750
X43400Y51940
X121400Y38870
X121400Y43750
X95400Y38870
X43400Y47060
T6
X116810Y33000
X116810Y30460
X116810Y40620
X116810Y43160
X116810Y45700
X116810Y48240
X116810Y50780
X116810Y53320
X109190Y53320
X109190Y50780
X109190Y48240
X109190Y45700
X109190Y43160
X109190Y40620
X109190Y38080
X109190Y35540
X109190Y33000
X109190Y30460
X109190Y27920
X109190Y25380
X109190Y22840
X109190Y20300
X90810Y20300
X90810Y22840
X90810Y35540
X90810Y38080
X90810Y25380
X90810Y27920
X90810Y33000
X90810Y30460
X90810Y40620
X90810Y43160
X31190Y38650
X90810Y48240
X90810Y50780
X90810Y53320
X83190Y53320
X83190Y50780
X83190Y48240
X83190Y45700
X83190Y43160
X83190Y40620
X83190Y38080
X83190Y35540
X83190Y33000
X83190Y30460
X83190Y27920
X83190Y25380
X83190Y22840
X83190Y20300
X64810Y20300
X64810Y22840
X64810Y35540
X64810Y38080
X64810Y25380
X64810Y27920
X64810Y33000
X64810Y30460
X64810Y40620
X64810Y43160
X64810Y45700
X64810Y48240
X64810Y50780
X64810Y53320
X57190Y53320
X57190Y50780
X57190Y48240
X57190Y45700
X57190Y43160
X57190Y40620
X57190Y38080
X57190Y35540
X57190Y33000
X57190Y30460
X57190Y27920
X57190Y25380
X57190Y22840
X38810Y28490
X38810Y31030
X38810Y43730
X38810Y46270
X38810Y33570
X38810Y36110
X38810Y41190
X38810Y38650
X38810Y48810
X38810Y51350
X38810Y53890
X90810Y45700
X38810Y56430
X38810Y58970
X38810Y61510
X31190Y61510
X31190Y58970
X31190Y56430
X31190Y53890
X31190Y51350
X31190Y48810
X31190Y46270
X31190Y43730
X31190Y41190
X31190Y36110
X31190Y33570
X31190Y31030
X31190Y28490
X116810Y20300
X116810Y22840
X116810Y35540
X116810Y38080
X116810Y25380
X116810Y27920
X57190Y20300
T7
X50230Y57047
X73500Y59500
X55865Y59500
X20048Y39048
X50547Y60817
X41000Y21500
X50800Y46990
X84690Y17000
X50800Y52070
X66905Y55095
X88500Y54000
X60817Y52730
X57000Y67000
X62500Y17000
M30