G04 EAGLE Gerber RS-274X export*
G75*
%MOMM*%
%FSLAX34Y34*%
%LPD*%
%INBottom Copper*%
%IPPOS*%
%AMOC8*
5,1,8,0,0,1.08239X$1,22.5*%
G01*
%ADD10C,1.524000*%
%ADD11R,1.650000X1.650000*%
%ADD12C,1.650000*%
%ADD13C,1.320800*%
%ADD14R,1.397000X1.397000*%
%ADD15C,1.508000*%
%ADD16C,0.756400*%
%ADD17C,0.203200*%
%ADD18C,0.508000*%

G36*
X1229391Y73674D02*
X1229391Y73674D01*
X1229486Y73679D01*
X1229531Y73694D01*
X1229578Y73701D01*
X1229665Y73740D01*
X1229755Y73770D01*
X1229794Y73797D01*
X1229838Y73817D01*
X1229910Y73878D01*
X1229989Y73933D01*
X1230018Y73970D01*
X1230055Y74000D01*
X1230107Y74080D01*
X1230167Y74154D01*
X1230186Y74198D01*
X1230212Y74237D01*
X1230241Y74328D01*
X1230278Y74416D01*
X1230284Y74463D01*
X1230298Y74508D01*
X1230300Y74604D01*
X1230312Y74698D01*
X1230304Y74745D01*
X1230305Y74792D01*
X1230281Y74885D01*
X1230266Y74979D01*
X1230245Y75022D01*
X1230233Y75067D01*
X1230185Y75149D01*
X1230144Y75236D01*
X1230112Y75271D01*
X1230088Y75312D01*
X1230018Y75377D01*
X1229955Y75449D01*
X1229920Y75470D01*
X1229881Y75506D01*
X1229732Y75583D01*
X1229704Y75599D01*
X1220217Y83165D01*
X1213394Y93172D01*
X1209825Y104745D01*
X1209825Y116855D01*
X1213394Y128428D01*
X1220217Y138435D01*
X1229685Y145986D01*
X1240959Y150411D01*
X1253036Y151316D01*
X1264844Y148621D01*
X1275332Y142565D01*
X1283280Y133999D01*
X1283317Y133969D01*
X1283349Y133932D01*
X1283427Y133880D01*
X1283500Y133820D01*
X1283545Y133801D01*
X1283585Y133775D01*
X1283675Y133746D01*
X1283762Y133709D01*
X1283810Y133703D01*
X1283856Y133689D01*
X1283951Y133686D01*
X1284044Y133675D01*
X1284092Y133683D01*
X1284140Y133681D01*
X1284232Y133705D01*
X1284325Y133720D01*
X1284369Y133741D01*
X1284415Y133753D01*
X1284496Y133801D01*
X1284582Y133842D01*
X1284618Y133874D01*
X1284660Y133899D01*
X1284724Y133967D01*
X1284795Y134030D01*
X1284821Y134071D01*
X1284854Y134106D01*
X1284897Y134190D01*
X1284948Y134270D01*
X1284962Y134316D01*
X1284984Y134359D01*
X1284996Y134432D01*
X1285028Y134542D01*
X1285029Y134628D01*
X1285039Y134690D01*
X1285039Y749110D01*
X1285032Y749158D01*
X1285035Y749206D01*
X1285013Y749298D01*
X1284999Y749391D01*
X1284980Y749436D01*
X1284968Y749483D01*
X1284922Y749565D01*
X1284883Y749651D01*
X1284852Y749688D01*
X1284828Y749730D01*
X1284760Y749796D01*
X1284700Y749868D01*
X1284659Y749895D01*
X1284625Y749928D01*
X1284541Y749973D01*
X1284463Y750025D01*
X1284417Y750040D01*
X1284374Y750063D01*
X1284282Y750083D01*
X1284192Y750111D01*
X1284144Y750113D01*
X1284096Y750123D01*
X1284002Y750116D01*
X1283908Y750119D01*
X1283861Y750106D01*
X1283813Y750103D01*
X1283724Y750071D01*
X1283633Y750047D01*
X1283591Y750022D01*
X1283546Y750005D01*
X1283487Y749960D01*
X1283388Y749901D01*
X1283329Y749839D01*
X1283280Y749801D01*
X1275332Y741235D01*
X1264843Y735179D01*
X1253036Y732484D01*
X1240959Y733389D01*
X1229685Y737814D01*
X1220217Y745365D01*
X1213394Y755372D01*
X1209825Y766945D01*
X1209825Y779055D01*
X1213394Y790628D01*
X1220217Y800635D01*
X1229685Y808186D01*
X1234509Y810079D01*
X1234592Y810126D01*
X1234679Y810165D01*
X1234715Y810195D01*
X1234756Y810219D01*
X1234823Y810287D01*
X1234896Y810349D01*
X1234922Y810388D01*
X1234955Y810422D01*
X1235000Y810506D01*
X1235053Y810585D01*
X1235068Y810630D01*
X1235090Y810672D01*
X1235110Y810765D01*
X1235139Y810856D01*
X1235140Y810904D01*
X1235150Y810950D01*
X1235144Y811045D01*
X1235146Y811140D01*
X1235134Y811186D01*
X1235131Y811234D01*
X1235099Y811323D01*
X1235074Y811415D01*
X1235050Y811456D01*
X1235034Y811501D01*
X1234978Y811578D01*
X1234929Y811660D01*
X1234895Y811692D01*
X1234867Y811731D01*
X1234791Y811789D01*
X1234722Y811854D01*
X1234680Y811876D01*
X1234642Y811905D01*
X1234554Y811940D01*
X1234469Y811984D01*
X1234428Y811991D01*
X1234378Y812010D01*
X1234212Y812027D01*
X1234138Y812039D01*
X66522Y812039D01*
X66502Y812037D01*
X66483Y812039D01*
X66362Y812017D01*
X66240Y811999D01*
X66223Y811991D01*
X66203Y811988D01*
X66093Y811933D01*
X65981Y811883D01*
X65966Y811871D01*
X65948Y811862D01*
X65858Y811779D01*
X65764Y811700D01*
X65753Y811683D01*
X65739Y811670D01*
X65674Y811565D01*
X65606Y811463D01*
X65600Y811444D01*
X65590Y811428D01*
X65558Y811309D01*
X65521Y811192D01*
X65520Y811172D01*
X65515Y811153D01*
X65516Y811031D01*
X65513Y810908D01*
X65518Y810889D01*
X65518Y810869D01*
X65554Y810751D01*
X65585Y810633D01*
X65595Y810616D01*
X65601Y810597D01*
X65668Y810494D01*
X65730Y810388D01*
X65745Y810375D01*
X65755Y810358D01*
X65812Y810312D01*
X65938Y810194D01*
X65983Y810170D01*
X66014Y810145D01*
X75332Y804765D01*
X83569Y795887D01*
X88824Y784976D01*
X90629Y773000D01*
X88824Y761024D01*
X88039Y759394D01*
X88039Y759393D01*
X86572Y756348D01*
X86572Y756347D01*
X85594Y754317D01*
X84127Y751271D01*
X83569Y750113D01*
X75332Y741235D01*
X64844Y735179D01*
X53036Y732484D01*
X40959Y733389D01*
X29685Y737814D01*
X20217Y745365D01*
X13394Y755372D01*
X12146Y759418D01*
X12089Y759539D01*
X12035Y759660D01*
X12029Y759667D01*
X12025Y759675D01*
X11937Y759776D01*
X11851Y759877D01*
X11844Y759882D01*
X11838Y759889D01*
X11726Y759961D01*
X11615Y760034D01*
X11606Y760037D01*
X11598Y760042D01*
X11471Y760080D01*
X11344Y760120D01*
X11335Y760120D01*
X11326Y760123D01*
X11192Y760124D01*
X11060Y760127D01*
X11051Y760125D01*
X11041Y760125D01*
X10912Y760089D01*
X10785Y760056D01*
X10777Y760051D01*
X10768Y760048D01*
X10653Y759978D01*
X10540Y759910D01*
X10534Y759904D01*
X10526Y759899D01*
X10437Y759800D01*
X10346Y759703D01*
X10341Y759695D01*
X10335Y759688D01*
X10277Y759569D01*
X10216Y759450D01*
X10215Y759442D01*
X10210Y759432D01*
X10161Y759152D01*
X10164Y759136D01*
X10161Y759119D01*
X10161Y124681D01*
X10179Y124550D01*
X10196Y124417D01*
X10199Y124409D01*
X10201Y124400D01*
X10255Y124278D01*
X10307Y124156D01*
X10313Y124149D01*
X10317Y124140D01*
X10403Y124038D01*
X10487Y123936D01*
X10494Y123930D01*
X10500Y123923D01*
X10612Y123849D01*
X10720Y123774D01*
X10729Y123771D01*
X10737Y123766D01*
X10864Y123725D01*
X10990Y123683D01*
X10999Y123683D01*
X11008Y123680D01*
X11140Y123676D01*
X11274Y123671D01*
X11283Y123673D01*
X11292Y123673D01*
X11420Y123706D01*
X11550Y123737D01*
X11558Y123742D01*
X11567Y123744D01*
X11681Y123812D01*
X11797Y123878D01*
X11804Y123885D01*
X11812Y123890D01*
X11903Y123986D01*
X11996Y124082D01*
X11999Y124089D01*
X12006Y124097D01*
X12136Y124350D01*
X12139Y124367D01*
X12146Y124382D01*
X13394Y128428D01*
X20217Y138435D01*
X29685Y145986D01*
X40959Y150411D01*
X53036Y151316D01*
X64844Y148621D01*
X75332Y142565D01*
X83569Y133687D01*
X88824Y122776D01*
X90629Y110800D01*
X88824Y98824D01*
X88652Y98466D01*
X88651Y98466D01*
X88651Y98465D01*
X87674Y96435D01*
X87185Y95420D01*
X86207Y93389D01*
X85229Y91359D01*
X83762Y88313D01*
X83569Y87913D01*
X75332Y79035D01*
X69305Y75555D01*
X69290Y75543D01*
X69272Y75535D01*
X69178Y75456D01*
X69081Y75380D01*
X69070Y75364D01*
X69055Y75351D01*
X68987Y75249D01*
X68915Y75150D01*
X68908Y75131D01*
X68897Y75115D01*
X68860Y74998D01*
X68819Y74882D01*
X68817Y74862D01*
X68811Y74844D01*
X68808Y74721D01*
X68800Y74598D01*
X68805Y74579D01*
X68804Y74560D01*
X68835Y74441D01*
X68862Y74321D01*
X68871Y74303D01*
X68876Y74285D01*
X68939Y74179D01*
X68997Y74071D01*
X69011Y74057D01*
X69021Y74040D01*
X69111Y73956D01*
X69197Y73869D01*
X69214Y73859D01*
X69229Y73846D01*
X69338Y73790D01*
X69445Y73730D01*
X69464Y73725D01*
X69482Y73716D01*
X69554Y73704D01*
X69722Y73665D01*
X69773Y73667D01*
X69813Y73661D01*
X1229297Y73661D01*
X1229391Y73674D01*
G37*
%LPC*%
G36*
X1083578Y499163D02*
X1083578Y499163D01*
X1080404Y500478D01*
X1077974Y502908D01*
X1077470Y504125D01*
X1077469Y504126D01*
X1077469Y504127D01*
X1077397Y504248D01*
X1077326Y504369D01*
X1077324Y504370D01*
X1077324Y504372D01*
X1077220Y504469D01*
X1077119Y504565D01*
X1077118Y504565D01*
X1077116Y504566D01*
X1076991Y504631D01*
X1076866Y504695D01*
X1076865Y504695D01*
X1076863Y504696D01*
X1076848Y504698D01*
X1076587Y504750D01*
X1076557Y504747D01*
X1076532Y504751D01*
X1068712Y504751D01*
X951951Y621512D01*
X951951Y795936D01*
X951943Y795994D01*
X951945Y796052D01*
X951923Y796134D01*
X951911Y796218D01*
X951888Y796271D01*
X951873Y796327D01*
X951830Y796400D01*
X951795Y796477D01*
X951757Y796522D01*
X951728Y796572D01*
X951666Y796630D01*
X951612Y796694D01*
X951563Y796726D01*
X951520Y796766D01*
X951445Y796805D01*
X951375Y796852D01*
X951319Y796869D01*
X951267Y796896D01*
X951199Y796907D01*
X951104Y796937D01*
X951004Y796940D01*
X950936Y796951D01*
X526683Y796951D01*
X526597Y796939D01*
X526509Y796936D01*
X526457Y796919D01*
X526402Y796911D01*
X526322Y796876D01*
X526239Y796849D01*
X526200Y796821D01*
X526142Y796795D01*
X526029Y796699D01*
X525965Y796654D01*
X502057Y772746D01*
X502040Y772722D01*
X502017Y772703D01*
X501955Y772609D01*
X501887Y772519D01*
X501876Y772491D01*
X501860Y772467D01*
X501826Y772359D01*
X501785Y772253D01*
X501783Y772224D01*
X501774Y772196D01*
X501771Y772082D01*
X501762Y771970D01*
X501767Y771941D01*
X501767Y771912D01*
X501795Y771802D01*
X501818Y771691D01*
X501831Y771665D01*
X501839Y771637D01*
X501896Y771539D01*
X501949Y771439D01*
X501969Y771417D01*
X501984Y771392D01*
X502066Y771315D01*
X502144Y771233D01*
X502170Y771218D01*
X502191Y771198D01*
X502292Y771146D01*
X502390Y771089D01*
X502418Y771082D01*
X502444Y771068D01*
X502522Y771055D01*
X502665Y771019D01*
X502728Y771021D01*
X502775Y771013D01*
X520902Y771013D01*
X522093Y769822D01*
X522093Y751638D01*
X520902Y750447D01*
X507335Y750447D01*
X507248Y750435D01*
X507161Y750432D01*
X507108Y750415D01*
X507053Y750407D01*
X506973Y750372D01*
X506890Y750345D01*
X506851Y750317D01*
X506794Y750291D01*
X506680Y750195D01*
X506617Y750150D01*
X449870Y693403D01*
X449818Y693333D01*
X449758Y693270D01*
X449732Y693220D01*
X449699Y693176D01*
X449668Y693094D01*
X449628Y693016D01*
X449620Y692969D01*
X449598Y692910D01*
X449586Y692763D01*
X449573Y692685D01*
X449573Y689719D01*
X449585Y689632D01*
X449588Y689545D01*
X449605Y689492D01*
X449613Y689437D01*
X449648Y689357D01*
X449675Y689274D01*
X449703Y689235D01*
X449729Y689178D01*
X449825Y689065D01*
X449870Y689001D01*
X452683Y686188D01*
X454153Y682640D01*
X454153Y663560D01*
X452683Y660012D01*
X449968Y657297D01*
X446420Y655827D01*
X442580Y655827D01*
X439032Y657297D01*
X436317Y660012D01*
X434847Y663560D01*
X434847Y682640D01*
X436317Y686188D01*
X439032Y688903D01*
X439801Y689221D01*
X439802Y689222D01*
X439803Y689223D01*
X439922Y689293D01*
X440045Y689366D01*
X440046Y689367D01*
X440048Y689368D01*
X440145Y689472D01*
X440241Y689573D01*
X440241Y689574D01*
X440242Y689575D01*
X440307Y689701D01*
X440371Y689825D01*
X440371Y689827D01*
X440372Y689828D01*
X440374Y689843D01*
X440426Y690104D01*
X440423Y690135D01*
X440427Y690159D01*
X440427Y696894D01*
X501230Y757697D01*
X501282Y757767D01*
X501342Y757830D01*
X501368Y757880D01*
X501401Y757924D01*
X501432Y758006D01*
X501472Y758084D01*
X501480Y758131D01*
X501502Y758190D01*
X501514Y758337D01*
X501527Y758415D01*
X501527Y769765D01*
X501523Y769794D01*
X501526Y769823D01*
X501503Y769934D01*
X501487Y770046D01*
X501475Y770073D01*
X501470Y770102D01*
X501418Y770202D01*
X501371Y770306D01*
X501352Y770328D01*
X501339Y770354D01*
X501261Y770436D01*
X501188Y770523D01*
X501163Y770539D01*
X501143Y770560D01*
X501045Y770617D01*
X500951Y770680D01*
X500923Y770689D01*
X500898Y770704D01*
X500788Y770732D01*
X500680Y770766D01*
X500650Y770767D01*
X500622Y770774D01*
X500509Y770770D01*
X500396Y770773D01*
X500367Y770766D01*
X500338Y770765D01*
X500230Y770730D01*
X500121Y770701D01*
X500095Y770686D01*
X500067Y770677D01*
X500004Y770632D01*
X499876Y770556D01*
X499833Y770511D01*
X499794Y770483D01*
X325583Y596271D01*
X325548Y596225D01*
X325505Y596184D01*
X325462Y596111D01*
X325412Y596044D01*
X325391Y595989D01*
X325361Y595939D01*
X325341Y595857D01*
X325311Y595778D01*
X325306Y595720D01*
X325291Y595663D01*
X325294Y595579D01*
X325287Y595495D01*
X325299Y595438D01*
X325300Y595379D01*
X325326Y595299D01*
X325343Y595216D01*
X325370Y595164D01*
X325388Y595109D01*
X325428Y595053D01*
X325474Y594964D01*
X325543Y594892D01*
X325583Y594835D01*
X325826Y594592D01*
X327141Y591418D01*
X327141Y587982D01*
X325826Y584808D01*
X323396Y582378D01*
X320222Y581063D01*
X303578Y581063D01*
X300404Y582378D01*
X297974Y584808D01*
X296659Y587982D01*
X296659Y591418D01*
X297974Y594592D01*
X300404Y597022D01*
X303578Y598337D01*
X318605Y598337D01*
X318691Y598349D01*
X318779Y598352D01*
X318831Y598369D01*
X318886Y598377D01*
X318966Y598412D01*
X319049Y598439D01*
X319088Y598467D01*
X319146Y598493D01*
X319259Y598589D01*
X319323Y598634D01*
X521654Y800965D01*
X523737Y803049D01*
X956263Y803049D01*
X958049Y801263D01*
X958049Y624458D01*
X958061Y624372D01*
X958064Y624284D01*
X958081Y624232D01*
X958089Y624177D01*
X958124Y624097D01*
X958151Y624014D01*
X958179Y623975D01*
X958205Y623917D01*
X958301Y623804D01*
X958346Y623740D01*
X1070940Y511146D01*
X1071010Y511094D01*
X1071074Y511034D01*
X1071124Y511008D01*
X1071168Y510975D01*
X1071249Y510944D01*
X1071327Y510904D01*
X1071375Y510896D01*
X1071433Y510874D01*
X1071581Y510862D01*
X1071658Y510849D01*
X1076532Y510849D01*
X1076534Y510849D01*
X1076535Y510849D01*
X1076675Y510869D01*
X1076814Y510889D01*
X1076815Y510889D01*
X1076817Y510889D01*
X1076943Y510946D01*
X1077073Y511005D01*
X1077074Y511006D01*
X1077076Y511007D01*
X1077183Y511098D01*
X1077290Y511188D01*
X1077291Y511190D01*
X1077292Y511191D01*
X1077300Y511204D01*
X1077448Y511425D01*
X1077457Y511454D01*
X1077470Y511475D01*
X1077974Y512692D01*
X1080404Y515122D01*
X1083578Y516437D01*
X1100222Y516437D01*
X1103396Y515122D01*
X1105826Y512692D01*
X1107141Y509518D01*
X1107141Y506082D01*
X1105826Y502908D01*
X1103396Y500478D01*
X1100222Y499163D01*
X1083578Y499163D01*
G37*
%LPD*%
%LPC*%
G36*
X563578Y245163D02*
X563578Y245163D01*
X560404Y246478D01*
X557974Y248908D01*
X556659Y252082D01*
X556659Y255518D01*
X557974Y258692D01*
X560404Y261122D01*
X563578Y262437D01*
X580222Y262437D01*
X583396Y261122D01*
X585826Y258692D01*
X586330Y257475D01*
X586331Y257474D01*
X586331Y257473D01*
X586403Y257352D01*
X586474Y257231D01*
X586476Y257230D01*
X586476Y257228D01*
X586580Y257131D01*
X586681Y257035D01*
X586682Y257035D01*
X586684Y257034D01*
X586809Y256969D01*
X586934Y256905D01*
X586935Y256905D01*
X586937Y256904D01*
X586952Y256902D01*
X587213Y256850D01*
X587243Y256853D01*
X587268Y256849D01*
X590936Y256849D01*
X590994Y256857D01*
X591052Y256855D01*
X591134Y256877D01*
X591218Y256889D01*
X591271Y256912D01*
X591327Y256927D01*
X591400Y256970D01*
X591477Y257005D01*
X591522Y257043D01*
X591572Y257072D01*
X591630Y257134D01*
X591694Y257188D01*
X591726Y257237D01*
X591766Y257280D01*
X591805Y257355D01*
X591852Y257425D01*
X591869Y257481D01*
X591896Y257533D01*
X591907Y257601D01*
X591937Y257696D01*
X591940Y257796D01*
X591951Y257864D01*
X591951Y534267D01*
X591939Y534353D01*
X591936Y534441D01*
X591919Y534493D01*
X591911Y534548D01*
X591876Y534628D01*
X591849Y534711D01*
X591821Y534750D01*
X591795Y534808D01*
X591699Y534921D01*
X591654Y534985D01*
X587511Y539127D01*
X587443Y539179D01*
X587380Y539238D01*
X587330Y539264D01*
X587284Y539298D01*
X587204Y539329D01*
X587128Y539368D01*
X587072Y539379D01*
X587019Y539399D01*
X586933Y539406D01*
X586849Y539423D01*
X586792Y539418D01*
X586735Y539423D01*
X586651Y539406D01*
X586565Y539398D01*
X586512Y539378D01*
X586456Y539367D01*
X586380Y539327D01*
X586300Y539296D01*
X586255Y539262D01*
X586204Y539236D01*
X586142Y539177D01*
X586073Y539125D01*
X586039Y539079D01*
X585998Y539040D01*
X585955Y538966D01*
X585903Y538897D01*
X585883Y538844D01*
X585854Y538795D01*
X585833Y538712D01*
X585803Y538631D01*
X585798Y538574D01*
X585784Y538519D01*
X585787Y538434D01*
X585780Y538348D01*
X585791Y538299D01*
X585793Y538235D01*
X585838Y538097D01*
X585856Y538021D01*
X587141Y534918D01*
X587141Y531482D01*
X585826Y528308D01*
X583396Y525878D01*
X580222Y524563D01*
X563578Y524563D01*
X560404Y525878D01*
X557974Y528308D01*
X556659Y531482D01*
X556659Y534918D01*
X557974Y538092D01*
X560404Y540522D01*
X563578Y541837D01*
X580222Y541837D01*
X583325Y540552D01*
X583408Y540530D01*
X583488Y540499D01*
X583545Y540495D01*
X583600Y540481D01*
X583686Y540483D01*
X583771Y540476D01*
X583827Y540487D01*
X583884Y540489D01*
X583966Y540515D01*
X584050Y540532D01*
X584101Y540558D01*
X584155Y540575D01*
X584226Y540623D01*
X584303Y540663D01*
X584344Y540702D01*
X584391Y540734D01*
X584446Y540799D01*
X584509Y540859D01*
X584537Y540908D01*
X584574Y540951D01*
X584609Y541030D01*
X584652Y541104D01*
X584666Y541159D01*
X584690Y541211D01*
X584701Y541296D01*
X584722Y541379D01*
X584721Y541436D01*
X584728Y541493D01*
X584716Y541578D01*
X584713Y541664D01*
X584696Y541718D01*
X584688Y541774D01*
X584652Y541852D01*
X584626Y541934D01*
X584597Y541974D01*
X584571Y542033D01*
X584477Y542144D01*
X584431Y542207D01*
X568010Y558629D01*
X567940Y558681D01*
X567876Y558741D01*
X567826Y558767D01*
X567782Y558800D01*
X567701Y558831D01*
X567623Y558871D01*
X567575Y558879D01*
X567517Y558901D01*
X567369Y558913D01*
X567292Y558926D01*
X544467Y558926D01*
X542681Y560712D01*
X542681Y628818D01*
X681912Y768049D01*
X764913Y768049D01*
X805615Y727346D01*
X805685Y727294D01*
X805749Y727234D01*
X805799Y727208D01*
X805843Y727175D01*
X805924Y727144D01*
X806002Y727104D01*
X806050Y727096D01*
X806108Y727074D01*
X806256Y727062D01*
X806333Y727049D01*
X896580Y727049D01*
X896581Y727049D01*
X896583Y727049D01*
X896722Y727069D01*
X896861Y727089D01*
X896863Y727089D01*
X896864Y727089D01*
X896990Y727146D01*
X897121Y727205D01*
X897122Y727206D01*
X897123Y727207D01*
X897230Y727298D01*
X897338Y727388D01*
X897338Y727390D01*
X897340Y727391D01*
X897348Y727404D01*
X897495Y727625D01*
X897504Y727654D01*
X897518Y727675D01*
X898241Y729423D01*
X900934Y732115D01*
X904453Y733573D01*
X908261Y733573D01*
X911779Y732115D01*
X914472Y729423D01*
X915929Y725904D01*
X915929Y722096D01*
X914472Y718577D01*
X911779Y715885D01*
X908261Y714427D01*
X904453Y714427D01*
X900934Y715885D01*
X898241Y718577D01*
X897518Y720325D01*
X897517Y720326D01*
X897516Y720327D01*
X897446Y720446D01*
X897373Y720569D01*
X897372Y720570D01*
X897371Y720572D01*
X897267Y720669D01*
X897166Y720765D01*
X897165Y720765D01*
X897164Y720766D01*
X897038Y720831D01*
X896914Y720895D01*
X896912Y720895D01*
X896911Y720896D01*
X896896Y720898D01*
X896635Y720950D01*
X896604Y720947D01*
X896580Y720951D01*
X803387Y720951D01*
X762685Y761654D01*
X762615Y761706D01*
X762551Y761766D01*
X762501Y761792D01*
X762457Y761825D01*
X762376Y761856D01*
X762298Y761896D01*
X762250Y761904D01*
X762192Y761926D01*
X762044Y761938D01*
X761967Y761951D01*
X684858Y761951D01*
X684772Y761939D01*
X684684Y761936D01*
X684632Y761919D01*
X684577Y761911D01*
X684497Y761876D01*
X684414Y761849D01*
X684375Y761821D01*
X684317Y761795D01*
X684204Y761699D01*
X684140Y761654D01*
X620539Y698053D01*
X620488Y697984D01*
X620429Y697921D01*
X620402Y697871D01*
X620368Y697825D01*
X620338Y697745D01*
X620298Y697669D01*
X620287Y697613D01*
X620267Y697560D01*
X620260Y697474D01*
X620243Y697390D01*
X620248Y697333D01*
X620243Y697276D01*
X620260Y697192D01*
X620268Y697107D01*
X620288Y697054D01*
X620299Y696998D01*
X620339Y696921D01*
X620370Y696841D01*
X620404Y696796D01*
X620430Y696745D01*
X620489Y696683D01*
X620541Y696615D01*
X620587Y696581D01*
X620626Y696539D01*
X620700Y696496D01*
X620769Y696444D01*
X620822Y696424D01*
X620871Y696396D01*
X620955Y696374D01*
X621035Y696344D01*
X621092Y696339D01*
X621147Y696325D01*
X621233Y696328D01*
X621318Y696321D01*
X621367Y696332D01*
X621431Y696335D01*
X621569Y696379D01*
X621646Y696397D01*
X622923Y696926D01*
X647217Y696926D01*
X651185Y695282D01*
X654222Y692245D01*
X655866Y688277D01*
X655866Y663983D01*
X654222Y660015D01*
X651185Y656978D01*
X647217Y655334D01*
X622923Y655334D01*
X618955Y656978D01*
X615918Y660015D01*
X614274Y663983D01*
X614274Y688277D01*
X614803Y689554D01*
X614825Y689638D01*
X614855Y689718D01*
X614860Y689775D01*
X614874Y689830D01*
X614872Y689916D01*
X614879Y690001D01*
X614868Y690057D01*
X614866Y690114D01*
X614840Y690196D01*
X614823Y690280D01*
X614797Y690330D01*
X614779Y690385D01*
X614731Y690456D01*
X614692Y690532D01*
X614653Y690573D01*
X614621Y690621D01*
X614555Y690676D01*
X614496Y690738D01*
X614447Y690767D01*
X614404Y690804D01*
X614325Y690839D01*
X614251Y690882D01*
X614196Y690896D01*
X614144Y690919D01*
X614059Y690931D01*
X613975Y690952D01*
X613919Y690950D01*
X613862Y690958D01*
X613777Y690946D01*
X613691Y690943D01*
X613637Y690926D01*
X613581Y690918D01*
X613502Y690882D01*
X613421Y690856D01*
X613381Y690827D01*
X613322Y690800D01*
X613211Y690706D01*
X613147Y690661D01*
X549076Y626590D01*
X549024Y626520D01*
X548964Y626456D01*
X548939Y626407D01*
X548905Y626362D01*
X548874Y626281D01*
X548834Y626203D01*
X548826Y626155D01*
X548804Y626097D01*
X548792Y625949D01*
X548779Y625872D01*
X548779Y566039D01*
X548787Y565984D01*
X548786Y565941D01*
X548786Y565939D01*
X548786Y565923D01*
X548807Y565841D01*
X548819Y565757D01*
X548843Y565704D01*
X548857Y565648D01*
X548900Y565575D01*
X548935Y565498D01*
X548973Y565453D01*
X549003Y565403D01*
X549064Y565345D01*
X549119Y565281D01*
X549167Y565249D01*
X549210Y565209D01*
X549285Y565170D01*
X549355Y565123D01*
X549411Y565106D01*
X549463Y565079D01*
X549531Y565068D01*
X549626Y565038D01*
X549726Y565035D01*
X549794Y565024D01*
X570238Y565024D01*
X598049Y537213D01*
X598049Y252537D01*
X596263Y250751D01*
X587268Y250751D01*
X587266Y250751D01*
X587265Y250751D01*
X587125Y250731D01*
X586986Y250711D01*
X586985Y250711D01*
X586983Y250711D01*
X586857Y250654D01*
X586727Y250595D01*
X586726Y250594D01*
X586724Y250593D01*
X586617Y250502D01*
X586510Y250412D01*
X586509Y250410D01*
X586508Y250409D01*
X586500Y250396D01*
X586352Y250175D01*
X586343Y250146D01*
X586330Y250125D01*
X585826Y248908D01*
X583396Y246478D01*
X580222Y245163D01*
X563578Y245163D01*
G37*
%LPD*%
%LPC*%
G36*
X470460Y343047D02*
X470460Y343047D01*
X466912Y344517D01*
X464197Y347232D01*
X462727Y350780D01*
X462727Y354620D01*
X463446Y356356D01*
X463447Y356357D01*
X463447Y356359D01*
X463482Y356493D01*
X463517Y356631D01*
X463517Y356633D01*
X463518Y356634D01*
X463513Y356775D01*
X463509Y356915D01*
X463509Y356917D01*
X463509Y356918D01*
X463466Y357051D01*
X463422Y357186D01*
X463422Y357187D01*
X463421Y357189D01*
X463412Y357201D01*
X463264Y357422D01*
X463241Y357442D01*
X463226Y357462D01*
X411951Y408737D01*
X411951Y521936D01*
X411943Y521994D01*
X411945Y522052D01*
X411923Y522134D01*
X411911Y522218D01*
X411888Y522271D01*
X411873Y522327D01*
X411830Y522400D01*
X411795Y522477D01*
X411757Y522522D01*
X411728Y522572D01*
X411666Y522630D01*
X411612Y522694D01*
X411563Y522726D01*
X411520Y522766D01*
X411445Y522805D01*
X411375Y522852D01*
X411319Y522869D01*
X411267Y522896D01*
X411199Y522907D01*
X411104Y522937D01*
X411004Y522940D01*
X410936Y522951D01*
X399559Y522951D01*
X399474Y522939D01*
X399388Y522937D01*
X399334Y522919D01*
X399278Y522911D01*
X399200Y522876D01*
X399118Y522850D01*
X399070Y522818D01*
X399019Y522795D01*
X398953Y522740D01*
X398882Y522692D01*
X398845Y522648D01*
X398802Y522612D01*
X398754Y522540D01*
X398699Y522474D01*
X398676Y522422D01*
X398644Y522375D01*
X398618Y522293D01*
X398583Y522214D01*
X398575Y522158D01*
X398558Y522104D01*
X398556Y522018D01*
X398544Y521933D01*
X398552Y521877D01*
X398551Y521820D01*
X398573Y521737D01*
X398585Y521651D01*
X398608Y521600D01*
X398623Y521545D01*
X398667Y521471D01*
X398702Y521392D01*
X398739Y521349D01*
X398768Y521300D01*
X398831Y521241D01*
X398886Y521176D01*
X398928Y521150D01*
X398975Y521106D01*
X399104Y521040D01*
X399171Y520998D01*
X399596Y520822D01*
X402026Y518392D01*
X403341Y515218D01*
X403341Y511782D01*
X402026Y508608D01*
X399596Y506178D01*
X396422Y504863D01*
X379778Y504863D01*
X376604Y506178D01*
X374174Y508608D01*
X372859Y511782D01*
X372859Y515218D01*
X374174Y518392D01*
X376604Y520822D01*
X376987Y520981D01*
X377084Y521038D01*
X377183Y521089D01*
X377205Y521110D01*
X377232Y521125D01*
X377309Y521207D01*
X377391Y521284D01*
X377406Y521310D01*
X377427Y521332D01*
X377478Y521432D01*
X377535Y521528D01*
X377543Y521558D01*
X377557Y521584D01*
X377579Y521695D01*
X377607Y521804D01*
X377606Y521834D01*
X377612Y521863D01*
X377602Y521975D01*
X377599Y522088D01*
X377590Y522117D01*
X377587Y522147D01*
X377547Y522251D01*
X377513Y522359D01*
X377496Y522384D01*
X377485Y522412D01*
X377418Y522502D01*
X377355Y522595D01*
X377332Y522615D01*
X377314Y522639D01*
X377224Y522706D01*
X377138Y522778D01*
X377110Y522791D01*
X377086Y522809D01*
X376981Y522848D01*
X376878Y522894D01*
X376851Y522897D01*
X376820Y522909D01*
X376577Y522929D01*
X376545Y522932D01*
X375629Y522884D01*
X374745Y523769D01*
X374721Y523786D01*
X374706Y523805D01*
X365945Y531691D01*
X365894Y531725D01*
X365850Y531766D01*
X365777Y531804D01*
X365709Y531849D01*
X365651Y531868D01*
X365640Y531874D01*
X364745Y532769D01*
X364721Y532786D01*
X364706Y532805D01*
X363776Y533642D01*
X363776Y534893D01*
X363772Y534923D01*
X363775Y534947D01*
X363709Y536205D01*
X363721Y536228D01*
X363732Y536295D01*
X363761Y536387D01*
X363765Y536490D01*
X363776Y536559D01*
X363776Y568088D01*
X365859Y570171D01*
X365860Y570171D01*
X376617Y580929D01*
X376652Y580975D01*
X376695Y581016D01*
X376737Y581089D01*
X376788Y581156D01*
X376809Y581211D01*
X376839Y581261D01*
X376859Y581343D01*
X376889Y581422D01*
X376894Y581480D01*
X376909Y581537D01*
X376906Y581621D01*
X376913Y581705D01*
X376901Y581762D01*
X376900Y581821D01*
X376874Y581901D01*
X376857Y581984D01*
X376830Y582036D01*
X376812Y582091D01*
X376772Y582147D01*
X376726Y582236D01*
X376657Y582308D01*
X376617Y582365D01*
X374174Y584808D01*
X372859Y587982D01*
X372859Y591418D01*
X374174Y594592D01*
X376604Y597022D01*
X379778Y598337D01*
X396422Y598337D01*
X399596Y597022D01*
X402026Y594592D01*
X403341Y591418D01*
X403341Y587982D01*
X402026Y584808D01*
X399596Y582378D01*
X396422Y581063D01*
X385795Y581063D01*
X385709Y581051D01*
X385621Y581048D01*
X385569Y581031D01*
X385514Y581023D01*
X385434Y580988D01*
X385351Y580961D01*
X385312Y580933D01*
X385254Y580907D01*
X385141Y580811D01*
X385077Y580766D01*
X378981Y574670D01*
X378964Y574646D01*
X378941Y574627D01*
X378878Y574533D01*
X378811Y574443D01*
X378800Y574415D01*
X378784Y574391D01*
X378749Y574282D01*
X378709Y574177D01*
X378707Y574148D01*
X378698Y574120D01*
X378695Y574006D01*
X378686Y573894D01*
X378691Y573865D01*
X378691Y573836D01*
X378719Y573726D01*
X378742Y573615D01*
X378755Y573589D01*
X378763Y573561D01*
X378820Y573463D01*
X378873Y573363D01*
X378893Y573341D01*
X378908Y573316D01*
X378990Y573239D01*
X379068Y573157D01*
X379094Y573142D01*
X379115Y573122D01*
X379216Y573070D01*
X379314Y573013D01*
X379342Y573006D01*
X379368Y572992D01*
X379446Y572979D01*
X379589Y572943D01*
X379652Y572945D01*
X379699Y572937D01*
X396422Y572937D01*
X399596Y571622D01*
X402026Y569192D01*
X403341Y566018D01*
X403341Y562582D01*
X402026Y559408D01*
X399596Y556978D01*
X396422Y555663D01*
X379778Y555663D01*
X376604Y556978D01*
X374174Y559408D01*
X372859Y562582D01*
X372859Y566097D01*
X372855Y566126D01*
X372858Y566155D01*
X372835Y566266D01*
X372819Y566378D01*
X372807Y566405D01*
X372802Y566434D01*
X372749Y566534D01*
X372703Y566638D01*
X372684Y566660D01*
X372671Y566686D01*
X372593Y566768D01*
X372520Y566855D01*
X372495Y566871D01*
X372475Y566892D01*
X372377Y566949D01*
X372283Y567012D01*
X372255Y567021D01*
X372230Y567036D01*
X372120Y567064D01*
X372012Y567098D01*
X371982Y567099D01*
X371954Y567106D01*
X371841Y567102D01*
X371728Y567105D01*
X371699Y567098D01*
X371670Y567097D01*
X371562Y567062D01*
X371453Y567033D01*
X371427Y567019D01*
X371399Y567009D01*
X371335Y566964D01*
X371208Y566888D01*
X371165Y566843D01*
X371126Y566815D01*
X370171Y565860D01*
X370119Y565790D01*
X370059Y565726D01*
X370033Y565676D01*
X370000Y565632D01*
X369969Y565551D01*
X369929Y565473D01*
X369921Y565425D01*
X369899Y565367D01*
X369887Y565219D01*
X369874Y565142D01*
X369874Y536810D01*
X369890Y536697D01*
X369899Y536584D01*
X369910Y536557D01*
X369914Y536528D01*
X369960Y536425D01*
X370001Y536318D01*
X370017Y536298D01*
X370030Y536269D01*
X370196Y536073D01*
X370210Y536055D01*
X371845Y534584D01*
X371894Y534551D01*
X371937Y534510D01*
X372012Y534472D01*
X372081Y534425D01*
X372137Y534407D01*
X372190Y534380D01*
X372272Y534364D01*
X372351Y534338D01*
X372411Y534336D01*
X372469Y534325D01*
X372552Y534332D01*
X372636Y534329D01*
X372693Y534344D01*
X372752Y534349D01*
X372830Y534379D01*
X372911Y534400D01*
X372962Y534430D01*
X373018Y534451D01*
X373084Y534501D01*
X373156Y534544D01*
X373197Y534587D01*
X373244Y534623D01*
X373294Y534690D01*
X373352Y534750D01*
X373379Y534803D01*
X373414Y534850D01*
X373444Y534929D01*
X373482Y535003D01*
X373494Y535061D01*
X373515Y535116D01*
X373521Y535200D01*
X373538Y535281D01*
X373533Y535341D01*
X373537Y535400D01*
X373522Y535467D01*
X373514Y535565D01*
X373478Y535659D01*
X373462Y535727D01*
X372859Y537182D01*
X372859Y540618D01*
X374174Y543792D01*
X376604Y546222D01*
X379778Y547537D01*
X396422Y547537D01*
X399596Y546222D01*
X402026Y543792D01*
X402074Y543675D01*
X402075Y543674D01*
X402075Y543673D01*
X402146Y543554D01*
X402219Y543431D01*
X402220Y543430D01*
X402221Y543428D01*
X402325Y543330D01*
X402425Y543235D01*
X402427Y543235D01*
X402428Y543234D01*
X402554Y543169D01*
X402678Y543105D01*
X402680Y543105D01*
X402681Y543104D01*
X402696Y543102D01*
X402957Y543050D01*
X402988Y543053D01*
X403012Y543049D01*
X464186Y543049D01*
X464244Y543057D01*
X464302Y543055D01*
X464384Y543077D01*
X464468Y543089D01*
X464521Y543112D01*
X464577Y543127D01*
X464650Y543170D01*
X464727Y543205D01*
X464772Y543243D01*
X464822Y543272D01*
X464880Y543334D01*
X464944Y543388D01*
X464976Y543437D01*
X465016Y543480D01*
X465055Y543555D01*
X465102Y543625D01*
X465119Y543681D01*
X465146Y543733D01*
X465157Y543801D01*
X465187Y543896D01*
X465190Y543996D01*
X465201Y544064D01*
X465201Y588563D01*
X549687Y673049D01*
X564405Y673049D01*
X564492Y673061D01*
X564579Y673064D01*
X564632Y673081D01*
X564686Y673089D01*
X564766Y673124D01*
X564849Y673151D01*
X564889Y673179D01*
X564946Y673205D01*
X565059Y673301D01*
X565123Y673346D01*
X566706Y674929D01*
X568843Y675815D01*
X571157Y675815D01*
X573294Y674929D01*
X574929Y673294D01*
X575815Y671157D01*
X575815Y668843D01*
X574929Y666706D01*
X573294Y665071D01*
X571157Y664185D01*
X568843Y664185D01*
X566706Y665071D01*
X565123Y666654D01*
X565053Y666706D01*
X564989Y666766D01*
X564940Y666792D01*
X564896Y666825D01*
X564814Y666856D01*
X564736Y666896D01*
X564688Y666904D01*
X564630Y666926D01*
X564482Y666938D01*
X564405Y666951D01*
X552633Y666951D01*
X552547Y666939D01*
X552459Y666936D01*
X552407Y666919D01*
X552352Y666911D01*
X552272Y666876D01*
X552189Y666849D01*
X552150Y666821D01*
X552092Y666795D01*
X551979Y666699D01*
X551915Y666654D01*
X471596Y586335D01*
X471544Y586265D01*
X471484Y586201D01*
X471458Y586151D01*
X471425Y586107D01*
X471394Y586026D01*
X471354Y585948D01*
X471346Y585900D01*
X471324Y585842D01*
X471312Y585694D01*
X471299Y585617D01*
X471299Y538737D01*
X469513Y536951D01*
X403924Y536951D01*
X403922Y536951D01*
X403920Y536951D01*
X403781Y536931D01*
X403642Y536911D01*
X403641Y536911D01*
X403639Y536911D01*
X403513Y536854D01*
X403383Y536795D01*
X403381Y536794D01*
X403380Y536793D01*
X403273Y536702D01*
X403166Y536612D01*
X403165Y536610D01*
X403164Y536609D01*
X403155Y536596D01*
X403008Y536375D01*
X402999Y536346D01*
X402986Y536325D01*
X402026Y534008D01*
X399596Y531578D01*
X398205Y531002D01*
X398131Y530958D01*
X398053Y530923D01*
X398009Y530886D01*
X397960Y530857D01*
X397901Y530795D01*
X397836Y530739D01*
X397804Y530692D01*
X397765Y530651D01*
X397726Y530574D01*
X397678Y530503D01*
X397661Y530448D01*
X397635Y530398D01*
X397618Y530314D01*
X397592Y530232D01*
X397591Y530175D01*
X397580Y530119D01*
X397587Y530034D01*
X397585Y529948D01*
X397600Y529893D01*
X397604Y529836D01*
X397635Y529756D01*
X397657Y529673D01*
X397686Y529624D01*
X397706Y529571D01*
X397758Y529502D01*
X397802Y529428D01*
X397844Y529389D01*
X397878Y529344D01*
X397947Y529292D01*
X398010Y529234D01*
X398060Y529208D01*
X398106Y529174D01*
X398186Y529143D01*
X398263Y529104D01*
X398311Y529096D01*
X398372Y529073D01*
X398516Y529062D01*
X398594Y529049D01*
X416263Y529049D01*
X418049Y527263D01*
X418049Y411683D01*
X418056Y411634D01*
X418055Y411623D01*
X418060Y411607D01*
X418061Y411597D01*
X418064Y411509D01*
X418081Y411457D01*
X418089Y411402D01*
X418124Y411322D01*
X418151Y411239D01*
X418179Y411200D01*
X418205Y411142D01*
X418301Y411029D01*
X418346Y410965D01*
X467505Y361807D01*
X467506Y361806D01*
X467507Y361805D01*
X467625Y361716D01*
X467732Y361636D01*
X467733Y361636D01*
X467735Y361635D01*
X467871Y361583D01*
X467997Y361535D01*
X467999Y361535D01*
X468001Y361534D01*
X468145Y361523D01*
X468281Y361511D01*
X468282Y361512D01*
X468284Y361511D01*
X468299Y361515D01*
X468559Y361567D01*
X468587Y361581D01*
X468611Y361587D01*
X470460Y362353D01*
X489540Y362353D01*
X493088Y360883D01*
X495803Y358168D01*
X497273Y354620D01*
X497273Y350780D01*
X495803Y347232D01*
X493088Y344517D01*
X489540Y343047D01*
X470460Y343047D01*
G37*
%LPD*%
%LPC*%
G36*
X823578Y245163D02*
X823578Y245163D01*
X820404Y246478D01*
X817974Y248908D01*
X816973Y251325D01*
X816972Y251326D01*
X816972Y251327D01*
X816902Y251446D01*
X816829Y251569D01*
X816827Y251570D01*
X816827Y251572D01*
X816723Y251669D01*
X816622Y251765D01*
X816620Y251765D01*
X816619Y251766D01*
X816493Y251831D01*
X816369Y251895D01*
X816368Y251895D01*
X816366Y251896D01*
X816351Y251898D01*
X816090Y251950D01*
X816060Y251947D01*
X816035Y251951D01*
X763737Y251951D01*
X761951Y253737D01*
X761951Y683317D01*
X761939Y683403D01*
X761936Y683491D01*
X761919Y683543D01*
X761911Y683598D01*
X761876Y683678D01*
X761849Y683761D01*
X761821Y683800D01*
X761795Y683858D01*
X761699Y683971D01*
X761654Y684035D01*
X744519Y701169D01*
X744496Y701187D01*
X744477Y701209D01*
X744383Y701272D01*
X744292Y701340D01*
X744265Y701351D01*
X744240Y701367D01*
X744132Y701401D01*
X744026Y701441D01*
X743997Y701444D01*
X743969Y701453D01*
X743856Y701456D01*
X743743Y701465D01*
X743714Y701459D01*
X743685Y701460D01*
X743575Y701431D01*
X743464Y701409D01*
X743438Y701396D01*
X743410Y701388D01*
X743313Y701330D01*
X743212Y701278D01*
X743191Y701258D01*
X743165Y701243D01*
X743088Y701160D01*
X743006Y701082D01*
X742991Y701057D01*
X742971Y701036D01*
X742919Y700935D01*
X742862Y700837D01*
X742855Y700809D01*
X742842Y700782D01*
X742829Y700705D01*
X742792Y700561D01*
X742794Y700499D01*
X742786Y700451D01*
X742786Y697096D01*
X741329Y693577D01*
X738636Y690885D01*
X735117Y689427D01*
X731309Y689427D01*
X727791Y690885D01*
X725098Y693577D01*
X723641Y697096D01*
X723641Y700904D01*
X725098Y704423D01*
X727791Y707115D01*
X731309Y708573D01*
X734665Y708573D01*
X734694Y708577D01*
X734723Y708574D01*
X734834Y708597D01*
X734946Y708613D01*
X734973Y708625D01*
X735002Y708630D01*
X735102Y708683D01*
X735206Y708729D01*
X735228Y708748D01*
X735254Y708761D01*
X735336Y708839D01*
X735423Y708912D01*
X735439Y708937D01*
X735460Y708957D01*
X735517Y709055D01*
X735580Y709149D01*
X735589Y709177D01*
X735604Y709202D01*
X735632Y709312D01*
X735666Y709420D01*
X735667Y709450D01*
X735674Y709478D01*
X735670Y709591D01*
X735673Y709704D01*
X735666Y709733D01*
X735665Y709762D01*
X735630Y709870D01*
X735601Y709979D01*
X735587Y710005D01*
X735577Y710033D01*
X735532Y710097D01*
X735456Y710224D01*
X735411Y710267D01*
X735383Y710306D01*
X734035Y711654D01*
X734034Y711654D01*
X731902Y713786D01*
X731854Y713892D01*
X731795Y714024D01*
X731794Y714025D01*
X731793Y714027D01*
X731702Y714134D01*
X731612Y714241D01*
X731610Y714242D01*
X731609Y714243D01*
X731596Y714251D01*
X731375Y714398D01*
X731346Y714408D01*
X731325Y714421D01*
X727791Y715885D01*
X725098Y718577D01*
X723641Y722096D01*
X723641Y725904D01*
X725098Y729423D01*
X727791Y732115D01*
X731309Y733573D01*
X735117Y733573D01*
X738636Y732115D01*
X741329Y729423D01*
X742786Y725904D01*
X742786Y722096D01*
X741329Y718577D01*
X739249Y716498D01*
X739214Y716451D01*
X739172Y716411D01*
X739129Y716338D01*
X739078Y716271D01*
X739058Y716216D01*
X739028Y716166D01*
X739007Y716084D01*
X738977Y716005D01*
X738972Y715947D01*
X738958Y715890D01*
X738961Y715806D01*
X738954Y715722D01*
X738965Y715665D01*
X738967Y715606D01*
X738993Y715526D01*
X739009Y715443D01*
X739036Y715391D01*
X739054Y715336D01*
X739094Y715279D01*
X739140Y715191D01*
X739209Y715118D01*
X739249Y715062D01*
X768049Y686263D01*
X768049Y259064D01*
X768057Y259006D01*
X768055Y258948D01*
X768077Y258866D01*
X768089Y258782D01*
X768112Y258729D01*
X768127Y258673D01*
X768170Y258600D01*
X768205Y258523D01*
X768243Y258478D01*
X768272Y258428D01*
X768334Y258370D01*
X768388Y258306D01*
X768437Y258274D01*
X768480Y258234D01*
X768555Y258195D01*
X768625Y258148D01*
X768681Y258131D01*
X768733Y258104D01*
X768801Y258093D01*
X768896Y258063D01*
X768996Y258060D01*
X769064Y258049D01*
X817029Y258049D01*
X817031Y258049D01*
X817032Y258049D01*
X817175Y258069D01*
X817311Y258089D01*
X817312Y258089D01*
X817314Y258089D01*
X817443Y258148D01*
X817570Y258205D01*
X817571Y258206D01*
X817573Y258207D01*
X817679Y258297D01*
X817787Y258388D01*
X817788Y258390D01*
X817789Y258391D01*
X817797Y258404D01*
X817945Y258625D01*
X817954Y258654D01*
X817967Y258676D01*
X817974Y258692D01*
X820404Y261122D01*
X823578Y262437D01*
X840222Y262437D01*
X843396Y261122D01*
X845826Y258692D01*
X847141Y255518D01*
X847141Y252082D01*
X845826Y248908D01*
X843396Y246478D01*
X840222Y245163D01*
X823578Y245163D01*
G37*
%LPD*%
%LPC*%
G36*
X408843Y209185D02*
X408843Y209185D01*
X406706Y210071D01*
X405071Y211706D01*
X404185Y213843D01*
X404185Y216083D01*
X404173Y216169D01*
X404170Y216257D01*
X404153Y216309D01*
X404145Y216364D01*
X404110Y216444D01*
X404083Y216527D01*
X404055Y216566D01*
X404029Y216624D01*
X403933Y216737D01*
X403888Y216801D01*
X389035Y231654D01*
X389034Y231654D01*
X386951Y233737D01*
X386951Y275248D01*
X386943Y275306D01*
X386945Y275364D01*
X386923Y275446D01*
X386911Y275530D01*
X386888Y275583D01*
X386873Y275639D01*
X386830Y275712D01*
X386795Y275789D01*
X386757Y275834D01*
X386728Y275884D01*
X386666Y275942D01*
X386612Y276006D01*
X386563Y276038D01*
X386520Y276078D01*
X386445Y276117D01*
X386375Y276164D01*
X386319Y276181D01*
X386267Y276208D01*
X386199Y276219D01*
X386104Y276249D01*
X386004Y276252D01*
X385936Y276263D01*
X379778Y276263D01*
X376604Y277578D01*
X374174Y280008D01*
X372859Y283182D01*
X372859Y286618D01*
X374174Y289792D01*
X376604Y292222D01*
X379778Y293537D01*
X396422Y293537D01*
X399596Y292222D01*
X402026Y289792D01*
X403341Y286618D01*
X403341Y283182D01*
X402026Y280008D01*
X399596Y277578D01*
X396422Y276263D01*
X394064Y276263D01*
X394006Y276255D01*
X393948Y276257D01*
X393866Y276235D01*
X393782Y276223D01*
X393729Y276200D01*
X393673Y276185D01*
X393600Y276142D01*
X393523Y276107D01*
X393478Y276069D01*
X393428Y276040D01*
X393370Y275978D01*
X393306Y275924D01*
X393274Y275875D01*
X393234Y275832D01*
X393195Y275757D01*
X393148Y275687D01*
X393131Y275631D01*
X393104Y275579D01*
X393093Y275511D01*
X393063Y275416D01*
X393060Y275316D01*
X393049Y275248D01*
X393049Y236683D01*
X393061Y236597D01*
X393064Y236509D01*
X393081Y236457D01*
X393089Y236402D01*
X393124Y236322D01*
X393151Y236239D01*
X393179Y236200D01*
X393205Y236142D01*
X393301Y236029D01*
X393346Y235965D01*
X408199Y221112D01*
X408269Y221060D01*
X408333Y221000D01*
X408382Y220974D01*
X408427Y220941D01*
X408508Y220910D01*
X408586Y220870D01*
X408634Y220862D01*
X408692Y220840D01*
X408840Y220828D01*
X408917Y220815D01*
X411157Y220815D01*
X413294Y219929D01*
X414877Y218346D01*
X414947Y218294D01*
X415011Y218234D01*
X415060Y218208D01*
X415104Y218175D01*
X415186Y218144D01*
X415264Y218104D01*
X415312Y218096D01*
X415370Y218074D01*
X415518Y218062D01*
X415595Y218049D01*
X468618Y218049D01*
X468639Y218052D01*
X468661Y218050D01*
X468780Y218072D01*
X468899Y218089D01*
X468919Y218097D01*
X468940Y218101D01*
X469007Y218137D01*
X469159Y218205D01*
X469200Y218239D01*
X469237Y218259D01*
X517255Y255196D01*
X517263Y255204D01*
X517272Y255210D01*
X517362Y255306D01*
X517454Y255400D01*
X517459Y255409D01*
X517466Y255417D01*
X517527Y255535D01*
X517589Y255650D01*
X517591Y255660D01*
X517596Y255670D01*
X517606Y255729D01*
X517649Y255928D01*
X517646Y255969D01*
X517651Y256001D01*
X517651Y531717D01*
X517639Y531803D01*
X517636Y531891D01*
X517619Y531943D01*
X517611Y531998D01*
X517576Y532078D01*
X517549Y532161D01*
X517521Y532200D01*
X517495Y532258D01*
X517399Y532371D01*
X517354Y532435D01*
X484985Y564804D01*
X482901Y566887D01*
X482901Y589913D01*
X484984Y591996D01*
X484985Y591996D01*
X499363Y606374D01*
X499415Y606444D01*
X499475Y606508D01*
X499501Y606557D01*
X499534Y606602D01*
X499565Y606683D01*
X499605Y606761D01*
X499613Y606809D01*
X499635Y606867D01*
X499647Y607015D01*
X499660Y607092D01*
X499660Y609332D01*
X500546Y611469D01*
X502181Y613104D01*
X504318Y613990D01*
X506632Y613990D01*
X508769Y613104D01*
X510404Y611469D01*
X511290Y609332D01*
X511290Y607018D01*
X510404Y604881D01*
X508769Y603246D01*
X506632Y602360D01*
X504392Y602360D01*
X504306Y602348D01*
X504218Y602345D01*
X504166Y602328D01*
X504111Y602320D01*
X504031Y602285D01*
X503948Y602258D01*
X503909Y602230D01*
X503851Y602204D01*
X503738Y602108D01*
X503674Y602063D01*
X489296Y587685D01*
X489244Y587615D01*
X489184Y587551D01*
X489158Y587501D01*
X489125Y587457D01*
X489094Y587376D01*
X489054Y587298D01*
X489046Y587250D01*
X489024Y587192D01*
X489012Y587044D01*
X488999Y586967D01*
X488999Y569833D01*
X489011Y569747D01*
X489014Y569659D01*
X489031Y569607D01*
X489039Y569552D01*
X489074Y569472D01*
X489101Y569389D01*
X489129Y569350D01*
X489155Y569292D01*
X489251Y569179D01*
X489296Y569115D01*
X521665Y536746D01*
X521666Y536746D01*
X523749Y534663D01*
X523749Y255382D01*
X523752Y255361D01*
X523750Y255339D01*
X523756Y255304D01*
X523755Y255274D01*
X523774Y255202D01*
X523789Y255101D01*
X523797Y255081D01*
X523801Y255059D01*
X523821Y255023D01*
X523827Y254999D01*
X523855Y254952D01*
X523889Y254877D01*
X523757Y253867D01*
X523758Y253792D01*
X523749Y253736D01*
X523749Y252711D01*
X523735Y252691D01*
X523662Y252595D01*
X523655Y252574D01*
X523642Y252556D01*
X523620Y252484D01*
X523575Y252365D01*
X522768Y251744D01*
X522715Y251690D01*
X522669Y251658D01*
X521944Y250933D01*
X521920Y250928D01*
X521801Y250911D01*
X521781Y250903D01*
X521760Y250899D01*
X521693Y250863D01*
X521541Y250795D01*
X521500Y250761D01*
X521463Y250741D01*
X472068Y212744D01*
X472015Y212690D01*
X471969Y212657D01*
X471244Y211933D01*
X471220Y211928D01*
X471101Y211911D01*
X471081Y211903D01*
X471059Y211899D01*
X470993Y211863D01*
X470877Y211811D01*
X469867Y211943D01*
X469792Y211942D01*
X469736Y211951D01*
X415595Y211951D01*
X415508Y211939D01*
X415421Y211936D01*
X415368Y211919D01*
X415314Y211911D01*
X415234Y211876D01*
X415151Y211849D01*
X415111Y211821D01*
X415054Y211795D01*
X414941Y211699D01*
X414877Y211654D01*
X413294Y210071D01*
X411157Y209185D01*
X408843Y209185D01*
G37*
%LPD*%
%LPC*%
G36*
X1083578Y245163D02*
X1083578Y245163D01*
X1080404Y246478D01*
X1077974Y248908D01*
X1076659Y252082D01*
X1076659Y255518D01*
X1077974Y258692D01*
X1080404Y261122D01*
X1083578Y262437D01*
X1100222Y262437D01*
X1103396Y261122D01*
X1105826Y258692D01*
X1106330Y257475D01*
X1106331Y257474D01*
X1106331Y257473D01*
X1106403Y257352D01*
X1106474Y257231D01*
X1106476Y257230D01*
X1106476Y257228D01*
X1106580Y257131D01*
X1106681Y257035D01*
X1106682Y257035D01*
X1106684Y257034D01*
X1106809Y256969D01*
X1106934Y256905D01*
X1106935Y256905D01*
X1106937Y256904D01*
X1106952Y256902D01*
X1107213Y256850D01*
X1107243Y256853D01*
X1107268Y256849D01*
X1110936Y256849D01*
X1110994Y256857D01*
X1111052Y256855D01*
X1111134Y256877D01*
X1111218Y256889D01*
X1111271Y256912D01*
X1111327Y256927D01*
X1111400Y256970D01*
X1111477Y257005D01*
X1111522Y257043D01*
X1111572Y257072D01*
X1111630Y257134D01*
X1111694Y257188D01*
X1111726Y257237D01*
X1111766Y257280D01*
X1111805Y257355D01*
X1111852Y257425D01*
X1111869Y257481D01*
X1111896Y257533D01*
X1111907Y257601D01*
X1111937Y257696D01*
X1111940Y257796D01*
X1111951Y257864D01*
X1111951Y688317D01*
X1111939Y688403D01*
X1111936Y688491D01*
X1111919Y688543D01*
X1111911Y688598D01*
X1111876Y688678D01*
X1111849Y688761D01*
X1111821Y688800D01*
X1111795Y688858D01*
X1111699Y688971D01*
X1111654Y689035D01*
X1085389Y715299D01*
X1085388Y715300D01*
X1085387Y715302D01*
X1085268Y715390D01*
X1085162Y715470D01*
X1085160Y715471D01*
X1085159Y715472D01*
X1085025Y715522D01*
X1084896Y715572D01*
X1084894Y715572D01*
X1084893Y715572D01*
X1084749Y715584D01*
X1084613Y715595D01*
X1084611Y715595D01*
X1084610Y715595D01*
X1084594Y715591D01*
X1084334Y715539D01*
X1084307Y715525D01*
X1084283Y715520D01*
X1081404Y714327D01*
X1077596Y714327D01*
X1074077Y715785D01*
X1071385Y718477D01*
X1069927Y721996D01*
X1069927Y725804D01*
X1071385Y729323D01*
X1074077Y732015D01*
X1077596Y733473D01*
X1081404Y733473D01*
X1084923Y732015D01*
X1087615Y729323D01*
X1089073Y725804D01*
X1089073Y721996D01*
X1088818Y721380D01*
X1088817Y721379D01*
X1088816Y721377D01*
X1088783Y721244D01*
X1088747Y721105D01*
X1088747Y721103D01*
X1088746Y721102D01*
X1088751Y720957D01*
X1088755Y720821D01*
X1088755Y720819D01*
X1088755Y720818D01*
X1088799Y720682D01*
X1088841Y720550D01*
X1088842Y720549D01*
X1088843Y720547D01*
X1088852Y720535D01*
X1089000Y720314D01*
X1089023Y720294D01*
X1089038Y720274D01*
X1118049Y691263D01*
X1118049Y252537D01*
X1116263Y250751D01*
X1107268Y250751D01*
X1107266Y250751D01*
X1107265Y250751D01*
X1107125Y250731D01*
X1106986Y250711D01*
X1106985Y250711D01*
X1106983Y250711D01*
X1106857Y250654D01*
X1106727Y250595D01*
X1106726Y250594D01*
X1106724Y250593D01*
X1106617Y250502D01*
X1106510Y250412D01*
X1106509Y250410D01*
X1106508Y250409D01*
X1106500Y250396D01*
X1106352Y250175D01*
X1106343Y250146D01*
X1106330Y250125D01*
X1105826Y248908D01*
X1103396Y246478D01*
X1100222Y245163D01*
X1083578Y245163D01*
G37*
%LPD*%
%LPC*%
G36*
X303578Y403263D02*
X303578Y403263D01*
X300404Y404578D01*
X297974Y407008D01*
X296659Y410182D01*
X296659Y413618D01*
X297974Y416792D01*
X300404Y419222D01*
X303578Y420537D01*
X320222Y420537D01*
X323396Y419222D01*
X325826Y416792D01*
X327117Y413675D01*
X327118Y413674D01*
X327118Y413673D01*
X327189Y413553D01*
X327261Y413431D01*
X327263Y413430D01*
X327263Y413428D01*
X327367Y413331D01*
X327468Y413235D01*
X327470Y413235D01*
X327471Y413234D01*
X327597Y413169D01*
X327721Y413105D01*
X327722Y413105D01*
X327724Y413104D01*
X327739Y413102D01*
X328000Y413050D01*
X328030Y413053D01*
X328055Y413049D01*
X335536Y413049D01*
X335594Y413057D01*
X335652Y413055D01*
X335734Y413077D01*
X335818Y413089D01*
X335871Y413112D01*
X335927Y413127D01*
X336000Y413170D01*
X336077Y413205D01*
X336122Y413243D01*
X336172Y413272D01*
X336230Y413334D01*
X336294Y413388D01*
X336326Y413437D01*
X336366Y413480D01*
X336405Y413555D01*
X336452Y413625D01*
X336469Y413681D01*
X336496Y413733D01*
X336507Y413801D01*
X336537Y413896D01*
X336540Y413996D01*
X336551Y414064D01*
X336551Y594038D01*
X395562Y653049D01*
X510536Y653049D01*
X510594Y653057D01*
X510652Y653055D01*
X510734Y653077D01*
X510818Y653089D01*
X510871Y653112D01*
X510927Y653127D01*
X511000Y653170D01*
X511077Y653205D01*
X511122Y653243D01*
X511172Y653272D01*
X511230Y653334D01*
X511294Y653388D01*
X511326Y653437D01*
X511366Y653480D01*
X511405Y653555D01*
X511452Y653625D01*
X511469Y653681D01*
X511496Y653733D01*
X511507Y653801D01*
X511537Y653896D01*
X511540Y653996D01*
X511551Y654064D01*
X511551Y675863D01*
X551751Y716062D01*
X551752Y716063D01*
X551753Y716064D01*
X551841Y716183D01*
X551922Y716289D01*
X551922Y716291D01*
X551923Y716292D01*
X551973Y716426D01*
X552023Y716555D01*
X552023Y716557D01*
X552023Y716558D01*
X552035Y716703D01*
X552046Y716838D01*
X552046Y716840D01*
X552046Y716842D01*
X552043Y716857D01*
X551990Y717117D01*
X551976Y717144D01*
X551971Y717169D01*
X550497Y720726D01*
X550497Y724534D01*
X551955Y728053D01*
X554647Y730745D01*
X558166Y732203D01*
X561974Y732203D01*
X565493Y730745D01*
X568185Y728053D01*
X569643Y724534D01*
X569643Y720726D01*
X568185Y717207D01*
X565493Y714515D01*
X561974Y713057D01*
X558128Y713057D01*
X558096Y713066D01*
X557954Y713102D01*
X557952Y713102D01*
X557951Y713102D01*
X557813Y713098D01*
X557670Y713094D01*
X557668Y713093D01*
X557666Y713093D01*
X557534Y713051D01*
X557399Y713007D01*
X557398Y713006D01*
X557396Y713006D01*
X557383Y712997D01*
X557163Y712849D01*
X557143Y712826D01*
X557123Y712811D01*
X517946Y673635D01*
X517894Y673565D01*
X517834Y673501D01*
X517808Y673451D01*
X517775Y673407D01*
X517744Y673326D01*
X517704Y673248D01*
X517696Y673200D01*
X517674Y673142D01*
X517662Y672994D01*
X517649Y672917D01*
X517649Y648737D01*
X515863Y646951D01*
X398508Y646951D01*
X398422Y646939D01*
X398334Y646936D01*
X398282Y646919D01*
X398227Y646911D01*
X398147Y646876D01*
X398064Y646849D01*
X398025Y646821D01*
X397967Y646795D01*
X397854Y646699D01*
X397790Y646654D01*
X342946Y591810D01*
X342894Y591740D01*
X342834Y591676D01*
X342808Y591626D01*
X342775Y591582D01*
X342744Y591501D01*
X342704Y591423D01*
X342696Y591375D01*
X342674Y591317D01*
X342662Y591169D01*
X342649Y591092D01*
X342649Y408737D01*
X340863Y406951D01*
X326190Y406951D01*
X326103Y406939D01*
X326016Y406936D01*
X325963Y406919D01*
X325908Y406911D01*
X325829Y406876D01*
X325745Y406849D01*
X325706Y406821D01*
X325649Y406795D01*
X325536Y406699D01*
X325472Y406654D01*
X323396Y404578D01*
X320222Y403263D01*
X303578Y403263D01*
G37*
%LPD*%
%LPC*%
G36*
X563578Y194363D02*
X563578Y194363D01*
X560404Y195678D01*
X559428Y196654D01*
X559358Y196706D01*
X559294Y196766D01*
X559245Y196792D01*
X559201Y196825D01*
X559119Y196856D01*
X559041Y196896D01*
X558994Y196904D01*
X558935Y196926D01*
X558787Y196938D01*
X558710Y196951D01*
X366790Y196951D01*
X366674Y196935D01*
X366557Y196924D01*
X366536Y196915D01*
X366508Y196911D01*
X366249Y196795D01*
X366248Y196794D01*
X366247Y196794D01*
X366175Y196748D01*
X365383Y196927D01*
X365238Y196938D01*
X365161Y196951D01*
X364349Y196951D01*
X364289Y197011D01*
X364195Y197082D01*
X364105Y197157D01*
X364084Y197166D01*
X364062Y197182D01*
X363796Y197284D01*
X363795Y197284D01*
X363794Y197284D01*
X363711Y197303D01*
X363277Y197988D01*
X363183Y198100D01*
X363137Y198164D01*
X362564Y198737D01*
X362564Y198822D01*
X362547Y198939D01*
X362536Y199056D01*
X362528Y199077D01*
X362524Y199104D01*
X362407Y199363D01*
X362407Y199364D01*
X362406Y199365D01*
X314055Y275791D01*
X314018Y275835D01*
X313989Y275884D01*
X313927Y275942D01*
X313871Y276007D01*
X313823Y276039D01*
X313782Y276078D01*
X313705Y276117D01*
X313634Y276164D01*
X313580Y276182D01*
X313528Y276208D01*
X313460Y276219D01*
X313363Y276250D01*
X313265Y276252D01*
X313197Y276263D01*
X303578Y276263D01*
X300404Y277578D01*
X297974Y280008D01*
X296659Y283182D01*
X296659Y286618D01*
X297974Y289792D01*
X300404Y292222D01*
X303578Y293537D01*
X320222Y293537D01*
X323396Y292222D01*
X325826Y289792D01*
X327141Y286618D01*
X327141Y283182D01*
X325826Y280008D01*
X323396Y277578D01*
X321930Y276971D01*
X321928Y276970D01*
X321925Y276969D01*
X321803Y276896D01*
X321685Y276826D01*
X321684Y276824D01*
X321681Y276823D01*
X321584Y276719D01*
X321490Y276620D01*
X321489Y276617D01*
X321487Y276615D01*
X321423Y276489D01*
X321360Y276367D01*
X321360Y276364D01*
X321358Y276362D01*
X321332Y276223D01*
X321305Y276088D01*
X321305Y276085D01*
X321305Y276083D01*
X321318Y275943D01*
X321329Y275805D01*
X321330Y275802D01*
X321331Y275800D01*
X321340Y275777D01*
X321431Y275539D01*
X321451Y275514D01*
X321461Y275490D01*
X366992Y203521D01*
X367029Y203477D01*
X367059Y203428D01*
X367121Y203370D01*
X367176Y203305D01*
X367224Y203273D01*
X367266Y203234D01*
X367342Y203195D01*
X367413Y203148D01*
X367468Y203130D01*
X367519Y203104D01*
X367588Y203093D01*
X367685Y203062D01*
X367783Y203060D01*
X367850Y203049D01*
X555644Y203049D01*
X555702Y203057D01*
X555760Y203055D01*
X555842Y203077D01*
X555926Y203089D01*
X555979Y203112D01*
X556035Y203127D01*
X556108Y203170D01*
X556185Y203205D01*
X556230Y203243D01*
X556280Y203272D01*
X556338Y203334D01*
X556402Y203388D01*
X556434Y203437D01*
X556474Y203480D01*
X556513Y203555D01*
X556560Y203625D01*
X556577Y203681D01*
X556604Y203733D01*
X556615Y203801D01*
X556645Y203896D01*
X556648Y203996D01*
X556659Y204064D01*
X556659Y204718D01*
X557974Y207892D01*
X560404Y210322D01*
X563578Y211637D01*
X580222Y211637D01*
X583396Y210322D01*
X585826Y207892D01*
X587141Y204718D01*
X587141Y201282D01*
X585826Y198108D01*
X583396Y195678D01*
X580222Y194363D01*
X563578Y194363D01*
G37*
%LPD*%
%LPC*%
G36*
X470460Y317647D02*
X470460Y317647D01*
X466912Y319117D01*
X464197Y321832D01*
X462727Y325380D01*
X462727Y329220D01*
X463563Y331239D01*
X463564Y331240D01*
X463565Y331242D01*
X463599Y331376D01*
X463634Y331514D01*
X463634Y331516D01*
X463635Y331517D01*
X463630Y331651D01*
X463626Y331798D01*
X463626Y331800D01*
X463626Y331801D01*
X463583Y331934D01*
X463540Y332069D01*
X463539Y332070D01*
X463538Y332072D01*
X463530Y332084D01*
X463381Y332305D01*
X463358Y332325D01*
X463343Y332345D01*
X404030Y391659D01*
X403961Y391710D01*
X403898Y391770D01*
X403848Y391796D01*
X403802Y391830D01*
X403722Y391860D01*
X403646Y391900D01*
X403590Y391911D01*
X403537Y391931D01*
X403451Y391938D01*
X403367Y391955D01*
X403310Y391950D01*
X403253Y391955D01*
X403169Y391938D01*
X403084Y391930D01*
X403031Y391910D01*
X402975Y391899D01*
X402898Y391859D01*
X402818Y391828D01*
X402773Y391794D01*
X402722Y391768D01*
X402660Y391709D01*
X402592Y391657D01*
X402558Y391611D01*
X402516Y391572D01*
X402473Y391498D01*
X402421Y391429D01*
X402401Y391376D01*
X402373Y391327D01*
X402351Y391243D01*
X402321Y391163D01*
X402316Y391106D01*
X402302Y391051D01*
X402305Y390965D01*
X402298Y390880D01*
X402309Y390831D01*
X402311Y390767D01*
X402356Y390629D01*
X402374Y390552D01*
X403341Y388218D01*
X403341Y384782D01*
X402026Y381608D01*
X399596Y379178D01*
X396422Y377863D01*
X379778Y377863D01*
X376604Y379178D01*
X374174Y381608D01*
X372859Y384782D01*
X372859Y388218D01*
X374174Y391392D01*
X376604Y393822D01*
X379778Y395137D01*
X396422Y395137D01*
X398756Y394170D01*
X398840Y394148D01*
X398920Y394118D01*
X398977Y394113D01*
X399032Y394099D01*
X399118Y394101D01*
X399203Y394094D01*
X399259Y394105D01*
X399316Y394107D01*
X399398Y394133D01*
X399482Y394150D01*
X399532Y394176D01*
X399587Y394194D01*
X399658Y394241D01*
X399734Y394281D01*
X399776Y394320D01*
X399823Y394352D01*
X399878Y394418D01*
X399940Y394477D01*
X399969Y394526D01*
X400006Y394569D01*
X400041Y394648D01*
X400084Y394722D01*
X400098Y394777D01*
X400121Y394829D01*
X400133Y394914D01*
X400154Y394998D01*
X400152Y395054D01*
X400160Y395111D01*
X400148Y395196D01*
X400145Y395282D01*
X400128Y395336D01*
X400120Y395392D01*
X400084Y395471D01*
X400058Y395552D01*
X400029Y395592D01*
X400002Y395651D01*
X399908Y395762D01*
X399863Y395826D01*
X392723Y402966D01*
X392653Y403018D01*
X392589Y403078D01*
X392539Y403104D01*
X392495Y403137D01*
X392414Y403168D01*
X392336Y403208D01*
X392288Y403216D01*
X392230Y403238D01*
X392082Y403250D01*
X392005Y403263D01*
X379778Y403263D01*
X376604Y404578D01*
X374174Y407008D01*
X372859Y410182D01*
X372859Y413618D01*
X374174Y416792D01*
X376604Y419222D01*
X379778Y420537D01*
X396422Y420537D01*
X399596Y419222D01*
X402026Y416792D01*
X403341Y413618D01*
X403341Y410182D01*
X402026Y407008D01*
X400383Y405365D01*
X400348Y405318D01*
X400305Y405278D01*
X400262Y405205D01*
X400212Y405137D01*
X400191Y405083D01*
X400161Y405032D01*
X400141Y404951D01*
X400111Y404872D01*
X400106Y404813D01*
X400091Y404757D01*
X400094Y404672D01*
X400087Y404588D01*
X400099Y404531D01*
X400100Y404473D01*
X400126Y404392D01*
X400143Y404310D01*
X400170Y404258D01*
X400188Y404202D01*
X400228Y404146D01*
X400274Y404057D01*
X400310Y404020D01*
X400324Y403996D01*
X400357Y403965D01*
X400383Y403929D01*
X467787Y336524D01*
X467789Y336523D01*
X467790Y336522D01*
X467908Y336433D01*
X468015Y336353D01*
X468016Y336353D01*
X468017Y336352D01*
X468151Y336301D01*
X468280Y336252D01*
X468282Y336252D01*
X468283Y336251D01*
X468423Y336240D01*
X468564Y336228D01*
X468565Y336229D01*
X468567Y336229D01*
X468581Y336232D01*
X468842Y336284D01*
X468869Y336298D01*
X468894Y336304D01*
X470460Y336953D01*
X489540Y336953D01*
X493088Y335483D01*
X495803Y332768D01*
X497273Y329220D01*
X497273Y325380D01*
X495803Y321832D01*
X493088Y319117D01*
X489540Y317647D01*
X470460Y317647D01*
G37*
%LPD*%
%LPC*%
G36*
X199318Y384660D02*
X199318Y384660D01*
X197181Y385546D01*
X195546Y387181D01*
X194660Y389318D01*
X194660Y391632D01*
X195546Y393769D01*
X197181Y395404D01*
X199318Y396290D01*
X199402Y396290D01*
X199489Y396302D01*
X199576Y396305D01*
X199629Y396322D01*
X199684Y396330D01*
X199764Y396365D01*
X199847Y396392D01*
X199886Y396420D01*
X199943Y396446D01*
X200057Y396542D01*
X200120Y396587D01*
X298106Y494573D01*
X299134Y494573D01*
X299221Y494585D01*
X299308Y494588D01*
X299361Y494605D01*
X299416Y494613D01*
X299495Y494648D01*
X299579Y494675D01*
X299618Y494703D01*
X299675Y494729D01*
X299788Y494825D01*
X299852Y494870D01*
X300404Y495422D01*
X303578Y496737D01*
X320222Y496737D01*
X323396Y495422D01*
X325826Y492992D01*
X327141Y489818D01*
X327141Y486382D01*
X325826Y483208D01*
X323396Y480778D01*
X320222Y479463D01*
X303578Y479463D01*
X300404Y480778D01*
X299542Y481640D01*
X299496Y481675D01*
X299455Y481717D01*
X299382Y481760D01*
X299315Y481811D01*
X299260Y481831D01*
X299210Y481861D01*
X299128Y481882D01*
X299049Y481912D01*
X298991Y481917D01*
X298934Y481931D01*
X298850Y481928D01*
X298766Y481935D01*
X298709Y481924D01*
X298650Y481922D01*
X298570Y481896D01*
X298487Y481879D01*
X298435Y481852D01*
X298380Y481834D01*
X298324Y481794D01*
X298235Y481748D01*
X298163Y481680D01*
X298106Y481640D01*
X206587Y390120D01*
X206570Y390097D01*
X206548Y390079D01*
X206516Y390030D01*
X206475Y389987D01*
X206449Y389937D01*
X206416Y389893D01*
X206405Y389865D01*
X206391Y389842D01*
X206374Y389789D01*
X206345Y389733D01*
X206337Y389686D01*
X206315Y389627D01*
X206312Y389595D01*
X206305Y389571D01*
X206302Y389478D01*
X206290Y389402D01*
X206290Y389318D01*
X205404Y387181D01*
X203769Y385546D01*
X201632Y384660D01*
X199318Y384660D01*
G37*
%LPD*%
%LPC*%
G36*
X796066Y749704D02*
X796066Y749704D01*
X792098Y751348D01*
X789061Y754385D01*
X787418Y758353D01*
X787418Y782647D01*
X789061Y786615D01*
X792098Y789652D01*
X796066Y791296D01*
X820361Y791296D01*
X824329Y789652D01*
X827365Y786615D01*
X829009Y782647D01*
X829009Y758353D01*
X827365Y754385D01*
X824329Y751348D01*
X820361Y749704D01*
X796066Y749704D01*
G37*
%LPD*%
%LPC*%
G36*
X969209Y749704D02*
X969209Y749704D01*
X965241Y751348D01*
X962204Y754385D01*
X960561Y758353D01*
X960561Y782647D01*
X962204Y786615D01*
X965241Y789652D01*
X969209Y791296D01*
X993504Y791296D01*
X997472Y789652D01*
X1000509Y786615D01*
X1002152Y782647D01*
X1002152Y758353D01*
X1000509Y754385D01*
X997472Y751348D01*
X993504Y749704D01*
X969209Y749704D01*
G37*
%LPD*%
%LPC*%
G36*
X1142353Y749604D02*
X1142353Y749604D01*
X1138385Y751248D01*
X1135348Y754285D01*
X1133704Y758253D01*
X1133704Y782547D01*
X1135348Y786515D01*
X1138385Y789552D01*
X1142353Y791196D01*
X1166647Y791196D01*
X1170615Y789552D01*
X1173652Y786515D01*
X1175296Y782547D01*
X1175296Y758253D01*
X1173652Y754285D01*
X1170615Y751248D01*
X1166647Y749604D01*
X1142353Y749604D01*
G37*
%LPD*%
%LPC*%
G36*
X622923Y748334D02*
X622923Y748334D01*
X618955Y749978D01*
X615918Y753015D01*
X614274Y756983D01*
X614274Y781277D01*
X615918Y785245D01*
X618955Y788282D01*
X622923Y789926D01*
X647217Y789926D01*
X651185Y788282D01*
X654222Y785245D01*
X655866Y781277D01*
X655866Y756983D01*
X654222Y753015D01*
X651185Y749978D01*
X647217Y748334D01*
X622923Y748334D01*
G37*
%LPD*%
%LPC*%
G36*
X796066Y656704D02*
X796066Y656704D01*
X792098Y658348D01*
X789061Y661385D01*
X787418Y665353D01*
X787418Y689647D01*
X789061Y693615D01*
X792098Y696652D01*
X796066Y698296D01*
X820361Y698296D01*
X824329Y696652D01*
X827365Y693615D01*
X829009Y689647D01*
X829009Y665353D01*
X827365Y661385D01*
X824329Y658348D01*
X820361Y656704D01*
X796066Y656704D01*
G37*
%LPD*%
%LPC*%
G36*
X969209Y656704D02*
X969209Y656704D01*
X965241Y658348D01*
X962204Y661385D01*
X960561Y665353D01*
X960561Y689647D01*
X962204Y693615D01*
X965241Y696652D01*
X969209Y698296D01*
X993504Y698296D01*
X997472Y696652D01*
X1000509Y693615D01*
X1002152Y689647D01*
X1002152Y665353D01*
X1000509Y661385D01*
X997472Y658348D01*
X993504Y656704D01*
X969209Y656704D01*
G37*
%LPD*%
%LPC*%
G36*
X1142353Y656604D02*
X1142353Y656604D01*
X1138385Y658248D01*
X1135348Y661285D01*
X1133704Y665253D01*
X1133704Y689547D01*
X1135348Y693515D01*
X1138385Y696552D01*
X1142353Y698196D01*
X1166647Y698196D01*
X1170615Y696552D01*
X1173652Y693515D01*
X1175296Y689547D01*
X1175296Y665253D01*
X1173652Y661285D01*
X1170615Y658248D01*
X1166647Y656604D01*
X1142353Y656604D01*
G37*
%LPD*%
%LPC*%
G36*
X899778Y448363D02*
X899778Y448363D01*
X896604Y449678D01*
X894174Y452108D01*
X892859Y455282D01*
X892859Y458718D01*
X894174Y461892D01*
X895767Y463485D01*
X895802Y463532D01*
X895845Y463572D01*
X895887Y463645D01*
X895938Y463713D01*
X895959Y463767D01*
X895989Y463818D01*
X896009Y463899D01*
X896039Y463978D01*
X896044Y464037D01*
X896059Y464093D01*
X896056Y464178D01*
X896063Y464262D01*
X896051Y464319D01*
X896050Y464377D01*
X896024Y464458D01*
X896007Y464540D01*
X895980Y464592D01*
X895962Y464648D01*
X895922Y464704D01*
X895876Y464793D01*
X895807Y464865D01*
X895767Y464921D01*
X881951Y478737D01*
X881951Y534405D01*
X881939Y534492D01*
X881936Y534579D01*
X881919Y534632D01*
X881911Y534686D01*
X881876Y534766D01*
X881849Y534850D01*
X881821Y534889D01*
X881795Y534946D01*
X881699Y535059D01*
X881654Y535123D01*
X880071Y536706D01*
X879185Y538843D01*
X879185Y541157D01*
X880071Y543294D01*
X881706Y544929D01*
X883843Y545815D01*
X886157Y545815D01*
X888294Y544929D01*
X889929Y543294D01*
X890815Y541157D01*
X890815Y538843D01*
X889929Y536706D01*
X888346Y535123D01*
X888294Y535053D01*
X888234Y534989D01*
X888208Y534940D01*
X888175Y534896D01*
X888144Y534814D01*
X888104Y534736D01*
X888096Y534689D01*
X888074Y534630D01*
X888062Y534482D01*
X888049Y534405D01*
X888049Y481683D01*
X888061Y481597D01*
X888064Y481509D01*
X888081Y481457D01*
X888089Y481402D01*
X888124Y481322D01*
X888151Y481239D01*
X888179Y481200D01*
X888205Y481142D01*
X888301Y481029D01*
X888346Y480965D01*
X892241Y477070D01*
X892310Y477019D01*
X892372Y476960D01*
X892423Y476934D01*
X892468Y476900D01*
X892549Y476869D01*
X892625Y476830D01*
X892681Y476819D01*
X892734Y476798D01*
X892820Y476791D01*
X892904Y476775D01*
X892961Y476779D01*
X893017Y476775D01*
X893101Y476792D01*
X893187Y476799D01*
X893240Y476819D01*
X893296Y476831D01*
X893372Y476870D01*
X893452Y476901D01*
X893498Y476935D01*
X893548Y476962D01*
X893611Y477021D01*
X893679Y477073D01*
X893713Y477118D01*
X893754Y477157D01*
X893798Y477232D01*
X893849Y477300D01*
X893869Y477354D01*
X893898Y477403D01*
X893919Y477486D01*
X893950Y477566D01*
X893954Y477623D01*
X893968Y477678D01*
X893966Y477764D01*
X893972Y477850D01*
X893961Y477898D01*
X893959Y477962D01*
X893915Y478100D01*
X893897Y478177D01*
X892859Y480682D01*
X892859Y484118D01*
X894174Y487292D01*
X896604Y489722D01*
X899778Y491037D01*
X916422Y491037D01*
X919596Y489722D01*
X922026Y487292D01*
X923341Y484118D01*
X923341Y480682D01*
X922026Y477508D01*
X919596Y475078D01*
X916422Y473763D01*
X899778Y473763D01*
X897273Y474801D01*
X897190Y474822D01*
X897109Y474853D01*
X897053Y474858D01*
X896998Y474872D01*
X896912Y474869D01*
X896826Y474877D01*
X896770Y474865D01*
X896713Y474864D01*
X896632Y474838D01*
X896547Y474821D01*
X896497Y474794D01*
X896443Y474777D01*
X896371Y474729D01*
X896295Y474690D01*
X896254Y474651D01*
X896206Y474619D01*
X896151Y474553D01*
X896089Y474494D01*
X896060Y474445D01*
X896024Y474401D01*
X895989Y474323D01*
X895945Y474249D01*
X895931Y474193D01*
X895908Y474141D01*
X895896Y474056D01*
X895875Y473973D01*
X895877Y473916D01*
X895869Y473860D01*
X895881Y473775D01*
X895884Y473689D01*
X895902Y473635D01*
X895910Y473578D01*
X895945Y473500D01*
X895972Y473418D01*
X896000Y473378D01*
X896027Y473319D01*
X896121Y473209D01*
X896166Y473145D01*
X900965Y468346D01*
X900966Y468346D01*
X903229Y466083D01*
X903243Y466066D01*
X903272Y466016D01*
X903334Y465958D01*
X903388Y465894D01*
X903437Y465862D01*
X903480Y465822D01*
X903555Y465783D01*
X903625Y465736D01*
X903681Y465719D01*
X903733Y465692D01*
X903801Y465681D01*
X903896Y465651D01*
X903996Y465648D01*
X904064Y465637D01*
X916422Y465637D01*
X919596Y464322D01*
X922026Y461892D01*
X923341Y458718D01*
X923341Y455282D01*
X922026Y452108D01*
X919596Y449678D01*
X916422Y448363D01*
X899778Y448363D01*
G37*
%LPD*%
%LPC*%
G36*
X557493Y589185D02*
X557493Y589185D01*
X555356Y590071D01*
X553721Y591706D01*
X552835Y593843D01*
X552835Y596157D01*
X553721Y598294D01*
X555356Y599929D01*
X557493Y600815D01*
X559807Y600815D01*
X561944Y599929D01*
X563527Y598346D01*
X563597Y598294D01*
X563661Y598234D01*
X563710Y598208D01*
X563754Y598175D01*
X563836Y598144D01*
X563914Y598104D01*
X563962Y598096D01*
X564020Y598074D01*
X564168Y598062D01*
X564245Y598049D01*
X729405Y598049D01*
X729492Y598061D01*
X729579Y598064D01*
X729632Y598081D01*
X729686Y598089D01*
X729766Y598124D01*
X729849Y598151D01*
X729889Y598179D01*
X729946Y598205D01*
X730059Y598301D01*
X730123Y598346D01*
X731706Y599929D01*
X733843Y600815D01*
X736157Y600815D01*
X738294Y599929D01*
X739929Y598294D01*
X740815Y596157D01*
X740815Y593843D01*
X739929Y591706D01*
X738294Y590071D01*
X736157Y589185D01*
X733843Y589185D01*
X731706Y590071D01*
X730123Y591654D01*
X730053Y591706D01*
X729989Y591766D01*
X729940Y591792D01*
X729896Y591825D01*
X729814Y591856D01*
X729736Y591896D01*
X729688Y591904D01*
X729630Y591926D01*
X729482Y591938D01*
X729405Y591951D01*
X564245Y591951D01*
X564158Y591939D01*
X564071Y591936D01*
X564018Y591919D01*
X563964Y591911D01*
X563884Y591876D01*
X563801Y591849D01*
X563761Y591821D01*
X563704Y591795D01*
X563591Y591699D01*
X563527Y591654D01*
X561944Y590071D01*
X559807Y589185D01*
X557493Y589185D01*
G37*
%LPD*%
%LPC*%
G36*
X639778Y448363D02*
X639778Y448363D01*
X636604Y449678D01*
X634174Y452108D01*
X632859Y455282D01*
X632859Y458718D01*
X634174Y461892D01*
X636604Y464322D01*
X639778Y465637D01*
X656422Y465637D01*
X659596Y464322D01*
X660435Y463483D01*
X660482Y463448D01*
X660522Y463405D01*
X660595Y463363D01*
X660663Y463312D01*
X660717Y463291D01*
X660768Y463261D01*
X660849Y463241D01*
X660928Y463211D01*
X660987Y463206D01*
X661043Y463191D01*
X661127Y463194D01*
X661212Y463187D01*
X661269Y463199D01*
X661327Y463200D01*
X661408Y463226D01*
X661490Y463243D01*
X661542Y463270D01*
X661598Y463288D01*
X661654Y463328D01*
X661743Y463374D01*
X661815Y463443D01*
X661871Y463483D01*
X666654Y468265D01*
X666706Y468335D01*
X666766Y468399D01*
X666792Y468449D01*
X666825Y468493D01*
X666856Y468574D01*
X666896Y468652D01*
X666904Y468700D01*
X666926Y468758D01*
X666938Y468906D01*
X666951Y468983D01*
X666951Y544847D01*
X666951Y544849D01*
X666951Y544850D01*
X666931Y544990D01*
X666911Y545129D01*
X666911Y545130D01*
X666911Y545132D01*
X666855Y545255D01*
X666795Y545388D01*
X666794Y545389D01*
X666793Y545391D01*
X666702Y545498D01*
X666612Y545605D01*
X666610Y545606D01*
X666609Y545607D01*
X666596Y545615D01*
X666375Y545763D01*
X666346Y545772D01*
X666325Y545785D01*
X665756Y546021D01*
X664121Y547656D01*
X663235Y549793D01*
X663235Y552107D01*
X664121Y554244D01*
X665756Y555879D01*
X667893Y556765D01*
X670207Y556765D01*
X672344Y555879D01*
X673979Y554244D01*
X674865Y552107D01*
X674865Y549793D01*
X673979Y547656D01*
X673346Y547023D01*
X673294Y546953D01*
X673234Y546889D01*
X673208Y546840D01*
X673175Y546796D01*
X673144Y546714D01*
X673104Y546636D01*
X673096Y546588D01*
X673074Y546530D01*
X673062Y546382D01*
X673049Y546305D01*
X673049Y466037D01*
X663638Y456627D01*
X663586Y456557D01*
X663526Y456493D01*
X663500Y456443D01*
X663467Y456399D01*
X663436Y456318D01*
X663396Y456240D01*
X663388Y456192D01*
X663366Y456134D01*
X663354Y455986D01*
X663341Y455909D01*
X663341Y455282D01*
X662026Y452108D01*
X659596Y449678D01*
X656422Y448363D01*
X639778Y448363D01*
G37*
%LPD*%
%LPC*%
G36*
X563578Y499163D02*
X563578Y499163D01*
X560404Y500478D01*
X557974Y502908D01*
X556659Y506082D01*
X556659Y509518D01*
X557721Y512081D01*
X557721Y512083D01*
X557722Y512084D01*
X557755Y512213D01*
X557792Y512356D01*
X557792Y512358D01*
X557792Y512360D01*
X557788Y512500D01*
X557784Y512641D01*
X557783Y512642D01*
X557783Y512644D01*
X557740Y512776D01*
X557697Y512911D01*
X557696Y512913D01*
X557696Y512914D01*
X557687Y512926D01*
X557539Y513147D01*
X557515Y513167D01*
X557501Y513188D01*
X505755Y564934D01*
X505753Y564935D01*
X505752Y564936D01*
X505635Y565024D01*
X505527Y565105D01*
X505526Y565105D01*
X505525Y565106D01*
X505391Y565157D01*
X505262Y565206D01*
X505260Y565206D01*
X505259Y565207D01*
X505114Y565218D01*
X504978Y565229D01*
X504977Y565229D01*
X504975Y565229D01*
X504960Y565226D01*
X504700Y565174D01*
X504673Y565159D01*
X504648Y565154D01*
X503457Y564660D01*
X501143Y564660D01*
X499006Y565546D01*
X497371Y567181D01*
X496485Y569318D01*
X496485Y571632D01*
X497371Y573769D01*
X499006Y575404D01*
X501143Y576290D01*
X503457Y576290D01*
X505594Y575404D01*
X507229Y573769D01*
X508115Y571632D01*
X508115Y571617D01*
X508127Y571531D01*
X508130Y571443D01*
X508147Y571391D01*
X508155Y571336D01*
X508190Y571256D01*
X508217Y571173D01*
X508245Y571134D01*
X508271Y571076D01*
X508367Y570963D01*
X508412Y570899D01*
X562601Y516710D01*
X562603Y516709D01*
X562604Y516708D01*
X562719Y516622D01*
X562828Y516540D01*
X562830Y516539D01*
X562831Y516538D01*
X562963Y516488D01*
X563094Y516438D01*
X563096Y516438D01*
X563097Y516438D01*
X563239Y516426D01*
X563377Y516415D01*
X563379Y516415D01*
X563381Y516415D01*
X563397Y516419D01*
X563487Y516437D01*
X580222Y516437D01*
X583396Y515122D01*
X585826Y512692D01*
X587141Y509518D01*
X587141Y506082D01*
X585826Y502908D01*
X583396Y500478D01*
X580222Y499163D01*
X563578Y499163D01*
G37*
%LPD*%
%LPC*%
G36*
X845743Y164185D02*
X845743Y164185D01*
X843606Y165071D01*
X841971Y166706D01*
X841085Y168843D01*
X841085Y171157D01*
X841971Y173294D01*
X843606Y174929D01*
X845743Y175815D01*
X848057Y175815D01*
X850194Y174929D01*
X851777Y173346D01*
X851847Y173294D01*
X851911Y173234D01*
X851960Y173208D01*
X852004Y173175D01*
X852086Y173144D01*
X852164Y173104D01*
X852212Y173096D01*
X852270Y173074D01*
X852418Y173062D01*
X852495Y173049D01*
X873320Y173049D01*
X873406Y173061D01*
X873493Y173064D01*
X873546Y173081D01*
X873602Y173089D01*
X873681Y173124D01*
X873763Y173151D01*
X873803Y173179D01*
X873861Y173205D01*
X873973Y173300D01*
X874037Y173345D01*
X895801Y195043D01*
X895837Y195090D01*
X895879Y195131D01*
X895922Y195203D01*
X895972Y195270D01*
X895993Y195325D01*
X896023Y195376D01*
X896044Y195457D01*
X896074Y195535D01*
X896079Y195595D01*
X896093Y195652D01*
X896091Y195735D01*
X896098Y195819D01*
X896086Y195877D01*
X896084Y195936D01*
X896059Y196016D01*
X896042Y196098D01*
X896015Y196150D01*
X895997Y196207D01*
X895957Y196262D01*
X895912Y196350D01*
X895842Y196423D01*
X895802Y196480D01*
X894174Y198108D01*
X892859Y201282D01*
X892859Y204718D01*
X894174Y207892D01*
X896604Y210322D01*
X899778Y211637D01*
X916422Y211637D01*
X919596Y210322D01*
X922026Y207892D01*
X923341Y204718D01*
X923341Y201282D01*
X922026Y198108D01*
X919596Y195678D01*
X916422Y194363D01*
X904175Y194363D01*
X904089Y194351D01*
X904002Y194348D01*
X903949Y194331D01*
X903893Y194323D01*
X903814Y194288D01*
X903732Y194261D01*
X903692Y194233D01*
X903634Y194207D01*
X903522Y194112D01*
X903458Y194067D01*
X877160Y167849D01*
X877160Y167848D01*
X877159Y167848D01*
X876261Y166949D01*
X875006Y166951D01*
X875005Y166951D01*
X875004Y166951D01*
X852495Y166951D01*
X852408Y166939D01*
X852321Y166936D01*
X852268Y166919D01*
X852214Y166911D01*
X852134Y166876D01*
X852051Y166849D01*
X852011Y166821D01*
X851954Y166795D01*
X851841Y166699D01*
X851777Y166654D01*
X850194Y165071D01*
X848057Y164185D01*
X845743Y164185D01*
G37*
%LPD*%
%LPC*%
G36*
X623843Y164185D02*
X623843Y164185D01*
X621706Y165071D01*
X620071Y166706D01*
X619185Y168843D01*
X619185Y171157D01*
X620071Y173294D01*
X621706Y174929D01*
X623843Y175815D01*
X626083Y175815D01*
X626169Y175827D01*
X626257Y175830D01*
X626309Y175847D01*
X626364Y175855D01*
X626444Y175890D01*
X626527Y175917D01*
X626566Y175945D01*
X626624Y175971D01*
X626737Y176067D01*
X626801Y176112D01*
X641654Y190965D01*
X641706Y191035D01*
X641766Y191099D01*
X641792Y191149D01*
X641825Y191193D01*
X641856Y191274D01*
X641896Y191352D01*
X641904Y191400D01*
X641926Y191458D01*
X641938Y191606D01*
X641951Y191683D01*
X641951Y193348D01*
X641943Y193406D01*
X641945Y193464D01*
X641923Y193546D01*
X641911Y193630D01*
X641888Y193683D01*
X641873Y193739D01*
X641830Y193812D01*
X641795Y193889D01*
X641757Y193934D01*
X641728Y193984D01*
X641666Y194042D01*
X641612Y194106D01*
X641563Y194138D01*
X641520Y194178D01*
X641445Y194217D01*
X641375Y194264D01*
X641319Y194281D01*
X641267Y194308D01*
X641199Y194319D01*
X641104Y194349D01*
X641004Y194352D01*
X640936Y194363D01*
X639778Y194363D01*
X636604Y195678D01*
X634174Y198108D01*
X632859Y201282D01*
X632859Y204718D01*
X634174Y207892D01*
X636604Y210322D01*
X639778Y211637D01*
X656422Y211637D01*
X659596Y210322D01*
X662026Y207892D01*
X663341Y204718D01*
X663341Y201282D01*
X662026Y198108D01*
X659596Y195678D01*
X656422Y194363D01*
X649064Y194363D01*
X649006Y194355D01*
X648948Y194357D01*
X648866Y194335D01*
X648782Y194323D01*
X648729Y194300D01*
X648673Y194285D01*
X648600Y194242D01*
X648523Y194207D01*
X648478Y194169D01*
X648428Y194140D01*
X648370Y194078D01*
X648306Y194024D01*
X648274Y193975D01*
X648234Y193932D01*
X648195Y193857D01*
X648148Y193787D01*
X648131Y193731D01*
X648104Y193679D01*
X648093Y193611D01*
X648063Y193516D01*
X648060Y193416D01*
X648049Y193348D01*
X648049Y188737D01*
X645966Y186654D01*
X645965Y186654D01*
X631112Y171801D01*
X631060Y171731D01*
X631000Y171667D01*
X630974Y171617D01*
X630941Y171573D01*
X630910Y171492D01*
X630870Y171414D01*
X630862Y171366D01*
X630840Y171308D01*
X630828Y171160D01*
X630815Y171083D01*
X630815Y168843D01*
X629929Y166706D01*
X628294Y165071D01*
X626157Y164185D01*
X623843Y164185D01*
G37*
%LPD*%
%LPC*%
G36*
X607018Y521485D02*
X607018Y521485D01*
X604881Y522371D01*
X603246Y524006D01*
X602360Y526143D01*
X602360Y528457D01*
X603246Y530594D01*
X604881Y532229D01*
X607018Y533115D01*
X609332Y533115D01*
X611469Y532229D01*
X613052Y530646D01*
X613122Y530594D01*
X613186Y530534D01*
X613235Y530508D01*
X613279Y530475D01*
X613361Y530444D01*
X613439Y530404D01*
X613487Y530396D01*
X613545Y530374D01*
X613693Y530362D01*
X613770Y530349D01*
X631844Y530349D01*
X631902Y530357D01*
X631960Y530355D01*
X632042Y530377D01*
X632126Y530389D01*
X632179Y530412D01*
X632235Y530427D01*
X632308Y530470D01*
X632385Y530505D01*
X632430Y530543D01*
X632480Y530572D01*
X632538Y530634D01*
X632602Y530688D01*
X632634Y530737D01*
X632674Y530780D01*
X632713Y530855D01*
X632760Y530925D01*
X632777Y530981D01*
X632804Y531033D01*
X632815Y531101D01*
X632845Y531196D01*
X632848Y531296D01*
X632859Y531364D01*
X632859Y534918D01*
X634174Y538092D01*
X636604Y540522D01*
X639778Y541837D01*
X656422Y541837D01*
X659596Y540522D01*
X662026Y538092D01*
X663341Y534918D01*
X663341Y531482D01*
X662026Y528308D01*
X659596Y525878D01*
X656422Y524563D01*
X644195Y524563D01*
X644109Y524551D01*
X644021Y524548D01*
X643969Y524531D01*
X643914Y524523D01*
X643834Y524488D01*
X643751Y524461D01*
X643712Y524433D01*
X643654Y524407D01*
X643541Y524311D01*
X643477Y524266D01*
X643463Y524251D01*
X613770Y524251D01*
X613683Y524239D01*
X613596Y524236D01*
X613543Y524219D01*
X613489Y524211D01*
X613409Y524176D01*
X613326Y524149D01*
X613286Y524121D01*
X613229Y524095D01*
X613116Y523999D01*
X613052Y523954D01*
X611469Y522371D01*
X609332Y521485D01*
X607018Y521485D01*
G37*
%LPD*%
%LPC*%
G36*
X730460Y296547D02*
X730460Y296547D01*
X726912Y298017D01*
X724197Y300732D01*
X722727Y304280D01*
X722727Y308120D01*
X724197Y311668D01*
X726912Y314383D01*
X730460Y315853D01*
X749540Y315853D01*
X753088Y314383D01*
X755803Y311668D01*
X757273Y308120D01*
X757273Y304280D01*
X755803Y300732D01*
X753088Y298017D01*
X749540Y296547D01*
X730460Y296547D01*
G37*
%LPD*%
%LPC*%
G36*
X990460Y296547D02*
X990460Y296547D01*
X986912Y298017D01*
X984197Y300732D01*
X982727Y304280D01*
X982727Y308120D01*
X984197Y311668D01*
X986912Y314383D01*
X990460Y315853D01*
X1009540Y315853D01*
X1013088Y314383D01*
X1015803Y311668D01*
X1017273Y308120D01*
X1017273Y304280D01*
X1015803Y300732D01*
X1013088Y298017D01*
X1009540Y296547D01*
X990460Y296547D01*
G37*
%LPD*%
%LPC*%
G36*
X1247760Y231647D02*
X1247760Y231647D01*
X1244212Y233117D01*
X1241497Y235832D01*
X1240027Y239380D01*
X1240027Y243220D01*
X1241497Y246768D01*
X1244212Y249483D01*
X1247760Y250953D01*
X1266840Y250953D01*
X1270388Y249483D01*
X1273103Y246768D01*
X1274573Y243220D01*
X1274573Y239380D01*
X1273103Y235832D01*
X1270388Y233117D01*
X1266840Y231647D01*
X1247760Y231647D01*
G37*
%LPD*%
%LPC*%
G36*
X730460Y194947D02*
X730460Y194947D01*
X726912Y196417D01*
X724197Y199132D01*
X722727Y202680D01*
X722727Y206520D01*
X724197Y210068D01*
X726912Y212783D01*
X730460Y214253D01*
X749540Y214253D01*
X753088Y212783D01*
X755803Y210068D01*
X757273Y206520D01*
X757273Y202680D01*
X755803Y199132D01*
X753088Y196417D01*
X749540Y194947D01*
X730460Y194947D01*
G37*
%LPD*%
%LPC*%
G36*
X470460Y241447D02*
X470460Y241447D01*
X466912Y242917D01*
X464197Y245632D01*
X462727Y249180D01*
X462727Y253020D01*
X464197Y256568D01*
X466912Y259283D01*
X470460Y260753D01*
X489540Y260753D01*
X493088Y259283D01*
X495803Y256568D01*
X497273Y253020D01*
X497273Y249180D01*
X495803Y245632D01*
X493088Y242917D01*
X489540Y241447D01*
X470460Y241447D01*
G37*
%LPD*%
%LPC*%
G36*
X730460Y245747D02*
X730460Y245747D01*
X726912Y247217D01*
X724197Y249932D01*
X722727Y253480D01*
X722727Y257320D01*
X724197Y260868D01*
X726912Y263583D01*
X730460Y265053D01*
X749540Y265053D01*
X753088Y263583D01*
X755803Y260868D01*
X757273Y257320D01*
X757273Y253480D01*
X755803Y249932D01*
X753088Y247217D01*
X749540Y245747D01*
X730460Y245747D01*
G37*
%LPD*%
%LPC*%
G36*
X470460Y393847D02*
X470460Y393847D01*
X466912Y395317D01*
X464197Y398032D01*
X462727Y401580D01*
X462727Y405420D01*
X464197Y408968D01*
X466912Y411683D01*
X470460Y413153D01*
X489540Y413153D01*
X493088Y411683D01*
X495803Y408968D01*
X497273Y405420D01*
X497273Y401580D01*
X495803Y398032D01*
X493088Y395317D01*
X489540Y393847D01*
X470460Y393847D01*
G37*
%LPD*%
%LPC*%
G36*
X990460Y321947D02*
X990460Y321947D01*
X986912Y323417D01*
X984197Y326132D01*
X982727Y329680D01*
X982727Y333520D01*
X984197Y337068D01*
X986912Y339783D01*
X990460Y341253D01*
X1009540Y341253D01*
X1013088Y339783D01*
X1015803Y337068D01*
X1017273Y333520D01*
X1017273Y329680D01*
X1015803Y326132D01*
X1013088Y323417D01*
X1009540Y321947D01*
X990460Y321947D01*
G37*
%LPD*%
%LPC*%
G36*
X470460Y368447D02*
X470460Y368447D01*
X466912Y369917D01*
X464197Y372632D01*
X462727Y376180D01*
X462727Y380020D01*
X464197Y383568D01*
X466912Y386283D01*
X470460Y387753D01*
X489540Y387753D01*
X493088Y386283D01*
X495803Y383568D01*
X497273Y380020D01*
X497273Y376180D01*
X495803Y372632D01*
X493088Y369917D01*
X489540Y368447D01*
X470460Y368447D01*
G37*
%LPD*%
%LPC*%
G36*
X1247760Y206247D02*
X1247760Y206247D01*
X1244212Y207717D01*
X1241497Y210432D01*
X1240027Y213980D01*
X1240027Y217820D01*
X1241497Y221368D01*
X1244212Y224083D01*
X1247760Y225553D01*
X1266840Y225553D01*
X1270388Y224083D01*
X1273103Y221368D01*
X1274573Y217820D01*
X1274573Y213980D01*
X1273103Y210432D01*
X1270388Y207717D01*
X1266840Y206247D01*
X1247760Y206247D01*
G37*
%LPD*%
%LPC*%
G36*
X730460Y271147D02*
X730460Y271147D01*
X726912Y272617D01*
X724197Y275332D01*
X722727Y278880D01*
X722727Y282720D01*
X724197Y286268D01*
X726912Y288983D01*
X730460Y290453D01*
X749540Y290453D01*
X753088Y288983D01*
X755803Y286268D01*
X757273Y282720D01*
X757273Y278880D01*
X755803Y275332D01*
X753088Y272617D01*
X749540Y271147D01*
X730460Y271147D01*
G37*
%LPD*%
%LPC*%
G36*
X730460Y321947D02*
X730460Y321947D01*
X726912Y323417D01*
X724197Y326132D01*
X722727Y329680D01*
X722727Y333520D01*
X724197Y337068D01*
X726912Y339783D01*
X730460Y341253D01*
X749540Y341253D01*
X753088Y339783D01*
X755803Y337068D01*
X757273Y333520D01*
X757273Y329680D01*
X755803Y326132D01*
X753088Y323417D01*
X749540Y321947D01*
X730460Y321947D01*
G37*
%LPD*%
%LPC*%
G36*
X1247760Y155447D02*
X1247760Y155447D01*
X1244212Y156917D01*
X1241497Y159632D01*
X1240027Y163180D01*
X1240027Y167020D01*
X1241497Y170568D01*
X1244212Y173283D01*
X1247760Y174753D01*
X1266840Y174753D01*
X1270388Y173283D01*
X1273103Y170568D01*
X1274573Y167020D01*
X1274573Y163180D01*
X1273103Y159632D01*
X1270388Y156917D01*
X1266840Y155447D01*
X1247760Y155447D01*
G37*
%LPD*%
%LPC*%
G36*
X730460Y220347D02*
X730460Y220347D01*
X726912Y221817D01*
X724197Y224532D01*
X722727Y228080D01*
X722727Y231920D01*
X724197Y235468D01*
X726912Y238183D01*
X730460Y239653D01*
X749540Y239653D01*
X753088Y238183D01*
X755803Y235468D01*
X757273Y231920D01*
X757273Y228080D01*
X755803Y224532D01*
X753088Y221817D01*
X749540Y220347D01*
X730460Y220347D01*
G37*
%LPD*%
%LPC*%
G36*
X990460Y220347D02*
X990460Y220347D01*
X986912Y221817D01*
X984197Y224532D01*
X982727Y228080D01*
X982727Y231920D01*
X984197Y235468D01*
X986912Y238183D01*
X990460Y239653D01*
X1009540Y239653D01*
X1013088Y238183D01*
X1015803Y235468D01*
X1017273Y231920D01*
X1017273Y228080D01*
X1015803Y224532D01*
X1013088Y221817D01*
X1009540Y220347D01*
X990460Y220347D01*
G37*
%LPD*%
%LPC*%
G36*
X1247760Y307847D02*
X1247760Y307847D01*
X1244212Y309317D01*
X1241497Y312032D01*
X1240027Y315580D01*
X1240027Y319420D01*
X1241497Y322968D01*
X1244212Y325683D01*
X1247760Y327153D01*
X1266840Y327153D01*
X1270388Y325683D01*
X1273103Y322968D01*
X1274573Y319420D01*
X1274573Y315580D01*
X1273103Y312032D01*
X1270388Y309317D01*
X1266840Y307847D01*
X1247760Y307847D01*
G37*
%LPD*%
%LPC*%
G36*
X990460Y271147D02*
X990460Y271147D01*
X986912Y272617D01*
X984197Y275332D01*
X982727Y278880D01*
X982727Y282720D01*
X984197Y286268D01*
X986912Y288983D01*
X990460Y290453D01*
X1009540Y290453D01*
X1013088Y288983D01*
X1015803Y286268D01*
X1017273Y282720D01*
X1017273Y278880D01*
X1015803Y275332D01*
X1013088Y272617D01*
X1009540Y271147D01*
X990460Y271147D01*
G37*
%LPD*%
%LPC*%
G36*
X470460Y266847D02*
X470460Y266847D01*
X466912Y268317D01*
X464197Y271032D01*
X462727Y274580D01*
X462727Y278420D01*
X464197Y281968D01*
X466912Y284683D01*
X470460Y286153D01*
X489540Y286153D01*
X493088Y284683D01*
X495803Y281968D01*
X497273Y278420D01*
X497273Y274580D01*
X495803Y271032D01*
X493088Y268317D01*
X489540Y266847D01*
X470460Y266847D01*
G37*
%LPD*%
%LPC*%
G36*
X1247760Y257047D02*
X1247760Y257047D01*
X1244212Y258517D01*
X1241497Y261232D01*
X1240027Y264780D01*
X1240027Y268620D01*
X1241497Y272168D01*
X1244212Y274883D01*
X1247760Y276353D01*
X1266840Y276353D01*
X1270388Y274883D01*
X1273103Y272168D01*
X1274573Y268620D01*
X1274573Y264780D01*
X1273103Y261232D01*
X1270388Y258517D01*
X1266840Y257047D01*
X1247760Y257047D01*
G37*
%LPD*%
%LPC*%
G36*
X730460Y169547D02*
X730460Y169547D01*
X726912Y171017D01*
X724197Y173732D01*
X722727Y177280D01*
X722727Y181120D01*
X724197Y184668D01*
X726912Y187383D01*
X730460Y188853D01*
X749540Y188853D01*
X753088Y187383D01*
X755803Y184668D01*
X757273Y181120D01*
X757273Y177280D01*
X755803Y173732D01*
X753088Y171017D01*
X749540Y169547D01*
X730460Y169547D01*
G37*
%LPD*%
%LPC*%
G36*
X990460Y169547D02*
X990460Y169547D01*
X986912Y171017D01*
X984197Y173732D01*
X982727Y177280D01*
X982727Y181120D01*
X984197Y184668D01*
X986912Y187383D01*
X990460Y188853D01*
X1009540Y188853D01*
X1013088Y187383D01*
X1015803Y184668D01*
X1017273Y181120D01*
X1017273Y177280D01*
X1015803Y173732D01*
X1013088Y171017D01*
X1009540Y169547D01*
X990460Y169547D01*
G37*
%LPD*%
%LPC*%
G36*
X493380Y655827D02*
X493380Y655827D01*
X489832Y657297D01*
X487117Y660012D01*
X485647Y663560D01*
X485647Y682640D01*
X487117Y686188D01*
X489832Y688903D01*
X493380Y690373D01*
X497220Y690373D01*
X500768Y688903D01*
X503483Y686188D01*
X504953Y682640D01*
X504953Y663560D01*
X503483Y660012D01*
X500768Y657297D01*
X497220Y655827D01*
X493380Y655827D01*
G37*
%LPD*%
%LPC*%
G36*
X990460Y194947D02*
X990460Y194947D01*
X986912Y196417D01*
X984197Y199132D01*
X982727Y202680D01*
X982727Y206520D01*
X984197Y210068D01*
X986912Y212783D01*
X990460Y214253D01*
X1009540Y214253D01*
X1013088Y212783D01*
X1015803Y210068D01*
X1017273Y206520D01*
X1017273Y202680D01*
X1015803Y199132D01*
X1013088Y196417D01*
X1009540Y194947D01*
X990460Y194947D01*
G37*
%LPD*%
%LPC*%
G36*
X1247760Y282447D02*
X1247760Y282447D01*
X1244212Y283917D01*
X1241497Y286632D01*
X1240027Y290180D01*
X1240027Y294020D01*
X1241497Y297568D01*
X1244212Y300283D01*
X1247760Y301753D01*
X1266840Y301753D01*
X1270388Y300283D01*
X1273103Y297568D01*
X1274573Y294020D01*
X1274573Y290180D01*
X1273103Y286632D01*
X1270388Y283917D01*
X1266840Y282447D01*
X1247760Y282447D01*
G37*
%LPD*%
%LPC*%
G36*
X470460Y292247D02*
X470460Y292247D01*
X466912Y293717D01*
X464197Y296432D01*
X462727Y299980D01*
X462727Y303820D01*
X464197Y307368D01*
X466912Y310083D01*
X470460Y311553D01*
X489540Y311553D01*
X493088Y310083D01*
X495803Y307368D01*
X497273Y303820D01*
X497273Y299980D01*
X495803Y296432D01*
X493088Y293717D01*
X489540Y292247D01*
X470460Y292247D01*
G37*
%LPD*%
%LPC*%
G36*
X990460Y245747D02*
X990460Y245747D01*
X986912Y247217D01*
X984197Y249932D01*
X982727Y253480D01*
X982727Y257320D01*
X984197Y260868D01*
X986912Y263583D01*
X990460Y265053D01*
X1009540Y265053D01*
X1013088Y263583D01*
X1015803Y260868D01*
X1017273Y257320D01*
X1017273Y253480D01*
X1015803Y249932D01*
X1013088Y247217D01*
X1009540Y245747D01*
X990460Y245747D01*
G37*
%LPD*%
%LPC*%
G36*
X1247760Y180847D02*
X1247760Y180847D01*
X1244212Y182317D01*
X1241497Y185032D01*
X1240027Y188580D01*
X1240027Y192420D01*
X1241497Y195968D01*
X1244212Y198683D01*
X1247760Y200153D01*
X1266840Y200153D01*
X1270388Y198683D01*
X1273103Y195968D01*
X1274573Y192420D01*
X1274573Y188580D01*
X1273103Y185032D01*
X1270388Y182317D01*
X1266840Y180847D01*
X1247760Y180847D01*
G37*
%LPD*%
%LPC*%
G36*
X639778Y321363D02*
X639778Y321363D01*
X636604Y322678D01*
X634174Y325108D01*
X632859Y328282D01*
X632859Y331718D01*
X634174Y334892D01*
X636604Y337322D01*
X639778Y338637D01*
X656422Y338637D01*
X659596Y337322D01*
X662026Y334892D01*
X663341Y331718D01*
X663341Y328282D01*
X662026Y325108D01*
X659596Y322678D01*
X656422Y321363D01*
X639778Y321363D01*
G37*
%LPD*%
%LPC*%
G36*
X563578Y321363D02*
X563578Y321363D01*
X560404Y322678D01*
X557974Y325108D01*
X556659Y328282D01*
X556659Y331718D01*
X557974Y334892D01*
X560404Y337322D01*
X563578Y338637D01*
X580222Y338637D01*
X583396Y337322D01*
X585826Y334892D01*
X587141Y331718D01*
X587141Y328282D01*
X585826Y325108D01*
X583396Y322678D01*
X580222Y321363D01*
X563578Y321363D01*
G37*
%LPD*%
%LPC*%
G36*
X379778Y301663D02*
X379778Y301663D01*
X376604Y302978D01*
X374174Y305408D01*
X372859Y308582D01*
X372859Y312018D01*
X374174Y315192D01*
X376604Y317622D01*
X379778Y318937D01*
X396422Y318937D01*
X399596Y317622D01*
X402026Y315192D01*
X403341Y312018D01*
X403341Y308582D01*
X402026Y305408D01*
X399596Y302978D01*
X396422Y301663D01*
X379778Y301663D01*
G37*
%LPD*%
%LPC*%
G36*
X303578Y301663D02*
X303578Y301663D01*
X300404Y302978D01*
X297974Y305408D01*
X296659Y308582D01*
X296659Y312018D01*
X297974Y315192D01*
X300404Y317622D01*
X303578Y318937D01*
X320222Y318937D01*
X323396Y317622D01*
X325826Y315192D01*
X327141Y312018D01*
X327141Y308582D01*
X325826Y305408D01*
X323396Y302978D01*
X320222Y301663D01*
X303578Y301663D01*
G37*
%LPD*%
%LPC*%
G36*
X899778Y295963D02*
X899778Y295963D01*
X896604Y297278D01*
X894174Y299708D01*
X892859Y302882D01*
X892859Y306318D01*
X894174Y309492D01*
X896604Y311922D01*
X899778Y313237D01*
X916422Y313237D01*
X919596Y311922D01*
X922026Y309492D01*
X923341Y306318D01*
X923341Y302882D01*
X922026Y299708D01*
X919596Y297278D01*
X916422Y295963D01*
X899778Y295963D01*
G37*
%LPD*%
%LPC*%
G36*
X823578Y295963D02*
X823578Y295963D01*
X820404Y297278D01*
X817974Y299708D01*
X816659Y302882D01*
X816659Y306318D01*
X817974Y309492D01*
X820404Y311922D01*
X823578Y313237D01*
X840222Y313237D01*
X843396Y311922D01*
X845826Y309492D01*
X847141Y306318D01*
X847141Y302882D01*
X845826Y299708D01*
X843396Y297278D01*
X840222Y295963D01*
X823578Y295963D01*
G37*
%LPD*%
%LPC*%
G36*
X563578Y295963D02*
X563578Y295963D01*
X560404Y297278D01*
X557974Y299708D01*
X556659Y302882D01*
X556659Y306318D01*
X557974Y309492D01*
X560404Y311922D01*
X563578Y313237D01*
X580222Y313237D01*
X583396Y311922D01*
X585826Y309492D01*
X587141Y306318D01*
X587141Y302882D01*
X585826Y299708D01*
X583396Y297278D01*
X580222Y295963D01*
X563578Y295963D01*
G37*
%LPD*%
%LPC*%
G36*
X639778Y295963D02*
X639778Y295963D01*
X636604Y297278D01*
X634174Y299708D01*
X632859Y302882D01*
X632859Y306318D01*
X634174Y309492D01*
X636604Y311922D01*
X639778Y313237D01*
X656422Y313237D01*
X659596Y311922D01*
X662026Y309492D01*
X663341Y306318D01*
X663341Y302882D01*
X662026Y299708D01*
X659596Y297278D01*
X656422Y295963D01*
X639778Y295963D01*
G37*
%LPD*%
%LPC*%
G36*
X1159778Y295963D02*
X1159778Y295963D01*
X1156604Y297278D01*
X1154174Y299708D01*
X1152859Y302882D01*
X1152859Y306318D01*
X1154174Y309492D01*
X1156604Y311922D01*
X1159778Y313237D01*
X1176422Y313237D01*
X1179596Y311922D01*
X1182026Y309492D01*
X1183341Y306318D01*
X1183341Y302882D01*
X1182026Y299708D01*
X1179596Y297278D01*
X1176422Y295963D01*
X1159778Y295963D01*
G37*
%LPD*%
%LPC*%
G36*
X1083578Y295963D02*
X1083578Y295963D01*
X1080404Y297278D01*
X1077974Y299708D01*
X1076659Y302882D01*
X1076659Y306318D01*
X1077974Y309492D01*
X1080404Y311922D01*
X1083578Y313237D01*
X1100222Y313237D01*
X1103396Y311922D01*
X1105826Y309492D01*
X1107141Y306318D01*
X1107141Y302882D01*
X1105826Y299708D01*
X1103396Y297278D01*
X1100222Y295963D01*
X1083578Y295963D01*
G37*
%LPD*%
%LPC*%
G36*
X1159778Y270563D02*
X1159778Y270563D01*
X1156604Y271878D01*
X1154174Y274308D01*
X1152859Y277482D01*
X1152859Y280918D01*
X1154174Y284092D01*
X1156604Y286522D01*
X1159778Y287837D01*
X1176422Y287837D01*
X1179596Y286522D01*
X1182026Y284092D01*
X1183341Y280918D01*
X1183341Y277482D01*
X1182026Y274308D01*
X1179596Y271878D01*
X1176422Y270563D01*
X1159778Y270563D01*
G37*
%LPD*%
%LPC*%
G36*
X1083578Y270563D02*
X1083578Y270563D01*
X1080404Y271878D01*
X1077974Y274308D01*
X1076659Y277482D01*
X1076659Y280918D01*
X1077974Y284092D01*
X1080404Y286522D01*
X1083578Y287837D01*
X1100222Y287837D01*
X1103396Y286522D01*
X1105826Y284092D01*
X1107141Y280918D01*
X1107141Y277482D01*
X1105826Y274308D01*
X1103396Y271878D01*
X1100222Y270563D01*
X1083578Y270563D01*
G37*
%LPD*%
%LPC*%
G36*
X899778Y270563D02*
X899778Y270563D01*
X896604Y271878D01*
X894174Y274308D01*
X892859Y277482D01*
X892859Y280918D01*
X894174Y284092D01*
X896604Y286522D01*
X899778Y287837D01*
X916422Y287837D01*
X919596Y286522D01*
X922026Y284092D01*
X923341Y280918D01*
X923341Y277482D01*
X922026Y274308D01*
X919596Y271878D01*
X916422Y270563D01*
X899778Y270563D01*
G37*
%LPD*%
%LPC*%
G36*
X823578Y270563D02*
X823578Y270563D01*
X820404Y271878D01*
X817974Y274308D01*
X816659Y277482D01*
X816659Y280918D01*
X817974Y284092D01*
X820404Y286522D01*
X823578Y287837D01*
X840222Y287837D01*
X843396Y286522D01*
X845826Y284092D01*
X847141Y280918D01*
X847141Y277482D01*
X845826Y274308D01*
X843396Y271878D01*
X840222Y270563D01*
X823578Y270563D01*
G37*
%LPD*%
%LPC*%
G36*
X639778Y270563D02*
X639778Y270563D01*
X636604Y271878D01*
X634174Y274308D01*
X632859Y277482D01*
X632859Y280918D01*
X634174Y284092D01*
X636604Y286522D01*
X639778Y287837D01*
X656422Y287837D01*
X659596Y286522D01*
X662026Y284092D01*
X663341Y280918D01*
X663341Y277482D01*
X662026Y274308D01*
X659596Y271878D01*
X656422Y270563D01*
X639778Y270563D01*
G37*
%LPD*%
%LPC*%
G36*
X1159778Y245163D02*
X1159778Y245163D01*
X1156604Y246478D01*
X1154174Y248908D01*
X1152859Y252082D01*
X1152859Y255518D01*
X1154174Y258692D01*
X1156604Y261122D01*
X1159778Y262437D01*
X1176422Y262437D01*
X1179596Y261122D01*
X1182026Y258692D01*
X1183341Y255518D01*
X1183341Y252082D01*
X1182026Y248908D01*
X1179596Y246478D01*
X1176422Y245163D01*
X1159778Y245163D01*
G37*
%LPD*%
%LPC*%
G36*
X899778Y245163D02*
X899778Y245163D01*
X896604Y246478D01*
X894174Y248908D01*
X892859Y252082D01*
X892859Y255518D01*
X894174Y258692D01*
X896604Y261122D01*
X899778Y262437D01*
X916422Y262437D01*
X919596Y261122D01*
X922026Y258692D01*
X923341Y255518D01*
X923341Y252082D01*
X922026Y248908D01*
X919596Y246478D01*
X916422Y245163D01*
X899778Y245163D01*
G37*
%LPD*%
%LPC*%
G36*
X639778Y245163D02*
X639778Y245163D01*
X636604Y246478D01*
X634174Y248908D01*
X632859Y252082D01*
X632859Y255518D01*
X634174Y258692D01*
X636604Y261122D01*
X639778Y262437D01*
X656422Y262437D01*
X659596Y261122D01*
X662026Y258692D01*
X663341Y255518D01*
X663341Y252082D01*
X662026Y248908D01*
X659596Y246478D01*
X656422Y245163D01*
X639778Y245163D01*
G37*
%LPD*%
%LPC*%
G36*
X823578Y219763D02*
X823578Y219763D01*
X820404Y221078D01*
X817974Y223508D01*
X816659Y226682D01*
X816659Y230118D01*
X817974Y233292D01*
X820404Y235722D01*
X823578Y237037D01*
X840222Y237037D01*
X843396Y235722D01*
X845826Y233292D01*
X847141Y230118D01*
X847141Y226682D01*
X845826Y223508D01*
X843396Y221078D01*
X840222Y219763D01*
X823578Y219763D01*
G37*
%LPD*%
%LPC*%
G36*
X639778Y219763D02*
X639778Y219763D01*
X636604Y221078D01*
X634174Y223508D01*
X632859Y226682D01*
X632859Y230118D01*
X634174Y233292D01*
X636604Y235722D01*
X639778Y237037D01*
X656422Y237037D01*
X659596Y235722D01*
X662026Y233292D01*
X663341Y230118D01*
X663341Y226682D01*
X662026Y223508D01*
X659596Y221078D01*
X656422Y219763D01*
X639778Y219763D01*
G37*
%LPD*%
%LPC*%
G36*
X563578Y219763D02*
X563578Y219763D01*
X560404Y221078D01*
X557974Y223508D01*
X556659Y226682D01*
X556659Y230118D01*
X557974Y233292D01*
X560404Y235722D01*
X563578Y237037D01*
X580222Y237037D01*
X583396Y235722D01*
X585826Y233292D01*
X587141Y230118D01*
X587141Y226682D01*
X585826Y223508D01*
X583396Y221078D01*
X580222Y219763D01*
X563578Y219763D01*
G37*
%LPD*%
%LPC*%
G36*
X1159778Y219763D02*
X1159778Y219763D01*
X1156604Y221078D01*
X1154174Y223508D01*
X1152859Y226682D01*
X1152859Y230118D01*
X1154174Y233292D01*
X1156604Y235722D01*
X1159778Y237037D01*
X1176422Y237037D01*
X1179596Y235722D01*
X1182026Y233292D01*
X1183341Y230118D01*
X1183341Y226682D01*
X1182026Y223508D01*
X1179596Y221078D01*
X1176422Y219763D01*
X1159778Y219763D01*
G37*
%LPD*%
%LPC*%
G36*
X1083578Y219763D02*
X1083578Y219763D01*
X1080404Y221078D01*
X1077974Y223508D01*
X1076659Y226682D01*
X1076659Y230118D01*
X1077974Y233292D01*
X1080404Y235722D01*
X1083578Y237037D01*
X1100222Y237037D01*
X1103396Y235722D01*
X1105826Y233292D01*
X1107141Y230118D01*
X1107141Y226682D01*
X1105826Y223508D01*
X1103396Y221078D01*
X1100222Y219763D01*
X1083578Y219763D01*
G37*
%LPD*%
%LPC*%
G36*
X899778Y219763D02*
X899778Y219763D01*
X896604Y221078D01*
X894174Y223508D01*
X892859Y226682D01*
X892859Y230118D01*
X894174Y233292D01*
X896604Y235722D01*
X899778Y237037D01*
X916422Y237037D01*
X919596Y235722D01*
X922026Y233292D01*
X923341Y230118D01*
X923341Y226682D01*
X922026Y223508D01*
X919596Y221078D01*
X916422Y219763D01*
X899778Y219763D01*
G37*
%LPD*%
%LPC*%
G36*
X1083578Y194363D02*
X1083578Y194363D01*
X1080404Y195678D01*
X1077974Y198108D01*
X1076659Y201282D01*
X1076659Y204718D01*
X1077974Y207892D01*
X1080404Y210322D01*
X1083578Y211637D01*
X1100222Y211637D01*
X1103396Y210322D01*
X1105826Y207892D01*
X1107141Y204718D01*
X1107141Y201282D01*
X1105826Y198108D01*
X1103396Y195678D01*
X1100222Y194363D01*
X1083578Y194363D01*
G37*
%LPD*%
%LPC*%
G36*
X1159778Y194363D02*
X1159778Y194363D01*
X1156604Y195678D01*
X1154174Y198108D01*
X1152859Y201282D01*
X1152859Y204718D01*
X1154174Y207892D01*
X1156604Y210322D01*
X1159778Y211637D01*
X1176422Y211637D01*
X1179596Y210322D01*
X1182026Y207892D01*
X1183341Y204718D01*
X1183341Y201282D01*
X1182026Y198108D01*
X1179596Y195678D01*
X1176422Y194363D01*
X1159778Y194363D01*
G37*
%LPD*%
%LPC*%
G36*
X823578Y194363D02*
X823578Y194363D01*
X820404Y195678D01*
X817974Y198108D01*
X816659Y201282D01*
X816659Y204718D01*
X817974Y207892D01*
X820404Y210322D01*
X823578Y211637D01*
X840222Y211637D01*
X843396Y210322D01*
X845826Y207892D01*
X847141Y204718D01*
X847141Y201282D01*
X845826Y198108D01*
X843396Y195678D01*
X840222Y194363D01*
X823578Y194363D01*
G37*
%LPD*%
%LPC*%
G36*
X379778Y606463D02*
X379778Y606463D01*
X376604Y607778D01*
X374174Y610208D01*
X372859Y613382D01*
X372859Y616818D01*
X374174Y619992D01*
X376604Y622422D01*
X379778Y623737D01*
X396422Y623737D01*
X399596Y622422D01*
X402026Y619992D01*
X403341Y616818D01*
X403341Y613382D01*
X402026Y610208D01*
X399596Y607778D01*
X396422Y606463D01*
X379778Y606463D01*
G37*
%LPD*%
%LPC*%
G36*
X303578Y606463D02*
X303578Y606463D01*
X300404Y607778D01*
X297974Y610208D01*
X296659Y613382D01*
X296659Y616818D01*
X297974Y619992D01*
X300404Y622422D01*
X303578Y623737D01*
X320222Y623737D01*
X323396Y622422D01*
X325826Y619992D01*
X327141Y616818D01*
X327141Y613382D01*
X325826Y610208D01*
X323396Y607778D01*
X320222Y606463D01*
X303578Y606463D01*
G37*
%LPD*%
%LPC*%
G36*
X303578Y555663D02*
X303578Y555663D01*
X300404Y556978D01*
X297974Y559408D01*
X296659Y562582D01*
X296659Y566018D01*
X297974Y569192D01*
X300404Y571622D01*
X303578Y572937D01*
X320222Y572937D01*
X323396Y571622D01*
X325826Y569192D01*
X327141Y566018D01*
X327141Y562582D01*
X325826Y559408D01*
X323396Y556978D01*
X320222Y555663D01*
X303578Y555663D01*
G37*
%LPD*%
%LPC*%
G36*
X303578Y530263D02*
X303578Y530263D01*
X300404Y531578D01*
X297974Y534008D01*
X296659Y537182D01*
X296659Y540618D01*
X297974Y543792D01*
X300404Y546222D01*
X303578Y547537D01*
X320222Y547537D01*
X323396Y546222D01*
X325826Y543792D01*
X327141Y540618D01*
X327141Y537182D01*
X325826Y534008D01*
X323396Y531578D01*
X320222Y530263D01*
X303578Y530263D01*
G37*
%LPD*%
%LPC*%
G36*
X823578Y524563D02*
X823578Y524563D01*
X820404Y525878D01*
X817974Y528308D01*
X816659Y531482D01*
X816659Y534918D01*
X817974Y538092D01*
X820404Y540522D01*
X823578Y541837D01*
X840222Y541837D01*
X843396Y540522D01*
X845826Y538092D01*
X847141Y534918D01*
X847141Y531482D01*
X845826Y528308D01*
X843396Y525878D01*
X840222Y524563D01*
X823578Y524563D01*
G37*
%LPD*%
%LPC*%
G36*
X1159778Y524563D02*
X1159778Y524563D01*
X1156604Y525878D01*
X1154174Y528308D01*
X1152859Y531482D01*
X1152859Y534918D01*
X1154174Y538092D01*
X1156604Y540522D01*
X1159778Y541837D01*
X1176422Y541837D01*
X1179596Y540522D01*
X1182026Y538092D01*
X1183341Y534918D01*
X1183341Y531482D01*
X1182026Y528308D01*
X1179596Y525878D01*
X1176422Y524563D01*
X1159778Y524563D01*
G37*
%LPD*%
%LPC*%
G36*
X1083578Y524563D02*
X1083578Y524563D01*
X1080404Y525878D01*
X1077974Y528308D01*
X1076659Y531482D01*
X1076659Y534918D01*
X1077974Y538092D01*
X1080404Y540522D01*
X1083578Y541837D01*
X1100222Y541837D01*
X1103396Y540522D01*
X1105826Y538092D01*
X1107141Y534918D01*
X1107141Y531482D01*
X1105826Y528308D01*
X1103396Y525878D01*
X1100222Y524563D01*
X1083578Y524563D01*
G37*
%LPD*%
%LPC*%
G36*
X899778Y524563D02*
X899778Y524563D01*
X896604Y525878D01*
X894174Y528308D01*
X892859Y531482D01*
X892859Y534918D01*
X894174Y538092D01*
X896604Y540522D01*
X899778Y541837D01*
X916422Y541837D01*
X919596Y540522D01*
X922026Y538092D01*
X923341Y534918D01*
X923341Y531482D01*
X922026Y528308D01*
X919596Y525878D01*
X916422Y524563D01*
X899778Y524563D01*
G37*
%LPD*%
%LPC*%
G36*
X303578Y504863D02*
X303578Y504863D01*
X300404Y506178D01*
X297974Y508608D01*
X296659Y511782D01*
X296659Y515218D01*
X297974Y518392D01*
X300404Y520822D01*
X303578Y522137D01*
X320222Y522137D01*
X323396Y520822D01*
X325826Y518392D01*
X327141Y515218D01*
X327141Y511782D01*
X325826Y508608D01*
X323396Y506178D01*
X320222Y504863D01*
X303578Y504863D01*
G37*
%LPD*%
%LPC*%
G36*
X639778Y499163D02*
X639778Y499163D01*
X636604Y500478D01*
X634174Y502908D01*
X632859Y506082D01*
X632859Y509518D01*
X634174Y512692D01*
X636604Y515122D01*
X639778Y516437D01*
X656422Y516437D01*
X659596Y515122D01*
X662026Y512692D01*
X663341Y509518D01*
X663341Y506082D01*
X662026Y502908D01*
X659596Y500478D01*
X656422Y499163D01*
X639778Y499163D01*
G37*
%LPD*%
%LPC*%
G36*
X899778Y499163D02*
X899778Y499163D01*
X896604Y500478D01*
X894174Y502908D01*
X892859Y506082D01*
X892859Y509518D01*
X894174Y512692D01*
X896604Y515122D01*
X899778Y516437D01*
X916422Y516437D01*
X919596Y515122D01*
X922026Y512692D01*
X923341Y509518D01*
X923341Y506082D01*
X922026Y502908D01*
X919596Y500478D01*
X916422Y499163D01*
X899778Y499163D01*
G37*
%LPD*%
%LPC*%
G36*
X823578Y499163D02*
X823578Y499163D01*
X820404Y500478D01*
X817974Y502908D01*
X816659Y506082D01*
X816659Y509518D01*
X817974Y512692D01*
X820404Y515122D01*
X823578Y516437D01*
X840222Y516437D01*
X843396Y515122D01*
X845826Y512692D01*
X847141Y509518D01*
X847141Y506082D01*
X845826Y502908D01*
X843396Y500478D01*
X840222Y499163D01*
X823578Y499163D01*
G37*
%LPD*%
%LPC*%
G36*
X1159778Y499163D02*
X1159778Y499163D01*
X1156604Y500478D01*
X1154174Y502908D01*
X1152859Y506082D01*
X1152859Y509518D01*
X1154174Y512692D01*
X1156604Y515122D01*
X1159778Y516437D01*
X1176422Y516437D01*
X1179596Y515122D01*
X1182026Y512692D01*
X1183341Y509518D01*
X1183341Y506082D01*
X1182026Y502908D01*
X1179596Y500478D01*
X1176422Y499163D01*
X1159778Y499163D01*
G37*
%LPD*%
%LPC*%
G36*
X379778Y479463D02*
X379778Y479463D01*
X376604Y480778D01*
X374174Y483208D01*
X372859Y486382D01*
X372859Y489818D01*
X374174Y492992D01*
X376604Y495422D01*
X379778Y496737D01*
X396422Y496737D01*
X399596Y495422D01*
X402026Y492992D01*
X403341Y489818D01*
X403341Y486382D01*
X402026Y483208D01*
X399596Y480778D01*
X396422Y479463D01*
X379778Y479463D01*
G37*
%LPD*%
%LPC*%
G36*
X639778Y473763D02*
X639778Y473763D01*
X636604Y475078D01*
X634174Y477508D01*
X632859Y480682D01*
X632859Y484118D01*
X634174Y487292D01*
X636604Y489722D01*
X639778Y491037D01*
X656422Y491037D01*
X659596Y489722D01*
X662026Y487292D01*
X663341Y484118D01*
X663341Y480682D01*
X662026Y477508D01*
X659596Y475078D01*
X656422Y473763D01*
X639778Y473763D01*
G37*
%LPD*%
%LPC*%
G36*
X1083578Y473763D02*
X1083578Y473763D01*
X1080404Y475078D01*
X1077974Y477508D01*
X1076659Y480682D01*
X1076659Y484118D01*
X1077974Y487292D01*
X1080404Y489722D01*
X1083578Y491037D01*
X1100222Y491037D01*
X1103396Y489722D01*
X1105826Y487292D01*
X1107141Y484118D01*
X1107141Y480682D01*
X1105826Y477508D01*
X1103396Y475078D01*
X1100222Y473763D01*
X1083578Y473763D01*
G37*
%LPD*%
%LPC*%
G36*
X1159778Y473763D02*
X1159778Y473763D01*
X1156604Y475078D01*
X1154174Y477508D01*
X1152859Y480682D01*
X1152859Y484118D01*
X1154174Y487292D01*
X1156604Y489722D01*
X1159778Y491037D01*
X1176422Y491037D01*
X1179596Y489722D01*
X1182026Y487292D01*
X1183341Y484118D01*
X1183341Y480682D01*
X1182026Y477508D01*
X1179596Y475078D01*
X1176422Y473763D01*
X1159778Y473763D01*
G37*
%LPD*%
%LPC*%
G36*
X823578Y473763D02*
X823578Y473763D01*
X820404Y475078D01*
X817974Y477508D01*
X816659Y480682D01*
X816659Y484118D01*
X817974Y487292D01*
X820404Y489722D01*
X823578Y491037D01*
X840222Y491037D01*
X843396Y489722D01*
X845826Y487292D01*
X847141Y484118D01*
X847141Y480682D01*
X845826Y477508D01*
X843396Y475078D01*
X840222Y473763D01*
X823578Y473763D01*
G37*
%LPD*%
%LPC*%
G36*
X563578Y473763D02*
X563578Y473763D01*
X560404Y475078D01*
X557974Y477508D01*
X556659Y480682D01*
X556659Y484118D01*
X557974Y487292D01*
X560404Y489722D01*
X563578Y491037D01*
X580222Y491037D01*
X583396Y489722D01*
X585826Y487292D01*
X587141Y484118D01*
X587141Y480682D01*
X585826Y477508D01*
X583396Y475078D01*
X580222Y473763D01*
X563578Y473763D01*
G37*
%LPD*%
%LPC*%
G36*
X303578Y454063D02*
X303578Y454063D01*
X300404Y455378D01*
X297974Y457808D01*
X296659Y460982D01*
X296659Y464418D01*
X297974Y467592D01*
X300404Y470022D01*
X303578Y471337D01*
X320222Y471337D01*
X323396Y470022D01*
X325826Y467592D01*
X327141Y464418D01*
X327141Y460982D01*
X325826Y457808D01*
X323396Y455378D01*
X320222Y454063D01*
X303578Y454063D01*
G37*
%LPD*%
%LPC*%
G36*
X823578Y448363D02*
X823578Y448363D01*
X820404Y449678D01*
X817974Y452108D01*
X816659Y455282D01*
X816659Y458718D01*
X817974Y461892D01*
X820404Y464322D01*
X823578Y465637D01*
X840222Y465637D01*
X843396Y464322D01*
X845826Y461892D01*
X847141Y458718D01*
X847141Y455282D01*
X845826Y452108D01*
X843396Y449678D01*
X840222Y448363D01*
X823578Y448363D01*
G37*
%LPD*%
%LPC*%
G36*
X1083578Y448363D02*
X1083578Y448363D01*
X1080404Y449678D01*
X1077974Y452108D01*
X1076659Y455282D01*
X1076659Y458718D01*
X1077974Y461892D01*
X1080404Y464322D01*
X1083578Y465637D01*
X1100222Y465637D01*
X1103396Y464322D01*
X1105826Y461892D01*
X1107141Y458718D01*
X1107141Y455282D01*
X1105826Y452108D01*
X1103396Y449678D01*
X1100222Y448363D01*
X1083578Y448363D01*
G37*
%LPD*%
%LPC*%
G36*
X563578Y448363D02*
X563578Y448363D01*
X560404Y449678D01*
X557974Y452108D01*
X556659Y455282D01*
X556659Y458718D01*
X557974Y461892D01*
X560404Y464322D01*
X563578Y465637D01*
X580222Y465637D01*
X583396Y464322D01*
X585826Y461892D01*
X587141Y458718D01*
X587141Y455282D01*
X585826Y452108D01*
X583396Y449678D01*
X580222Y448363D01*
X563578Y448363D01*
G37*
%LPD*%
%LPC*%
G36*
X1159778Y448363D02*
X1159778Y448363D01*
X1156604Y449678D01*
X1154174Y452108D01*
X1152859Y455282D01*
X1152859Y458718D01*
X1154174Y461892D01*
X1156604Y464322D01*
X1159778Y465637D01*
X1176422Y465637D01*
X1179596Y464322D01*
X1182026Y461892D01*
X1183341Y458718D01*
X1183341Y455282D01*
X1182026Y452108D01*
X1179596Y449678D01*
X1176422Y448363D01*
X1159778Y448363D01*
G37*
%LPD*%
%LPC*%
G36*
X379778Y428663D02*
X379778Y428663D01*
X376604Y429978D01*
X374174Y432408D01*
X372859Y435582D01*
X372859Y439018D01*
X374174Y442192D01*
X376604Y444622D01*
X379778Y445937D01*
X396422Y445937D01*
X399596Y444622D01*
X402026Y442192D01*
X403341Y439018D01*
X403341Y435582D01*
X402026Y432408D01*
X399596Y429978D01*
X396422Y428663D01*
X379778Y428663D01*
G37*
%LPD*%
%LPC*%
G36*
X899778Y422963D02*
X899778Y422963D01*
X896604Y424278D01*
X894174Y426708D01*
X892859Y429882D01*
X892859Y433318D01*
X894174Y436492D01*
X896604Y438922D01*
X899778Y440237D01*
X916422Y440237D01*
X919596Y438922D01*
X922026Y436492D01*
X923341Y433318D01*
X923341Y429882D01*
X922026Y426708D01*
X919596Y424278D01*
X916422Y422963D01*
X899778Y422963D01*
G37*
%LPD*%
%LPC*%
G36*
X563578Y422963D02*
X563578Y422963D01*
X560404Y424278D01*
X557974Y426708D01*
X556659Y429882D01*
X556659Y433318D01*
X557974Y436492D01*
X560404Y438922D01*
X563578Y440237D01*
X580222Y440237D01*
X583396Y438922D01*
X585826Y436492D01*
X587141Y433318D01*
X587141Y429882D01*
X585826Y426708D01*
X583396Y424278D01*
X580222Y422963D01*
X563578Y422963D01*
G37*
%LPD*%
%LPC*%
G36*
X639778Y422963D02*
X639778Y422963D01*
X636604Y424278D01*
X634174Y426708D01*
X632859Y429882D01*
X632859Y433318D01*
X634174Y436492D01*
X636604Y438922D01*
X639778Y440237D01*
X656422Y440237D01*
X659596Y438922D01*
X662026Y436492D01*
X663341Y433318D01*
X663341Y429882D01*
X662026Y426708D01*
X659596Y424278D01*
X656422Y422963D01*
X639778Y422963D01*
G37*
%LPD*%
%LPC*%
G36*
X823578Y422963D02*
X823578Y422963D01*
X820404Y424278D01*
X817974Y426708D01*
X816659Y429882D01*
X816659Y433318D01*
X817974Y436492D01*
X820404Y438922D01*
X823578Y440237D01*
X840222Y440237D01*
X843396Y438922D01*
X845826Y436492D01*
X847141Y433318D01*
X847141Y429882D01*
X845826Y426708D01*
X843396Y424278D01*
X840222Y422963D01*
X823578Y422963D01*
G37*
%LPD*%
%LPC*%
G36*
X1083578Y422963D02*
X1083578Y422963D01*
X1080404Y424278D01*
X1077974Y426708D01*
X1076659Y429882D01*
X1076659Y433318D01*
X1077974Y436492D01*
X1080404Y438922D01*
X1083578Y440237D01*
X1100222Y440237D01*
X1103396Y438922D01*
X1105826Y436492D01*
X1107141Y433318D01*
X1107141Y429882D01*
X1105826Y426708D01*
X1103396Y424278D01*
X1100222Y422963D01*
X1083578Y422963D01*
G37*
%LPD*%
%LPC*%
G36*
X1159778Y422963D02*
X1159778Y422963D01*
X1156604Y424278D01*
X1154174Y426708D01*
X1152859Y429882D01*
X1152859Y433318D01*
X1154174Y436492D01*
X1156604Y438922D01*
X1159778Y440237D01*
X1176422Y440237D01*
X1179596Y438922D01*
X1182026Y436492D01*
X1183341Y433318D01*
X1183341Y429882D01*
X1182026Y426708D01*
X1179596Y424278D01*
X1176422Y422963D01*
X1159778Y422963D01*
G37*
%LPD*%
%LPC*%
G36*
X1083578Y397563D02*
X1083578Y397563D01*
X1080404Y398878D01*
X1077974Y401308D01*
X1076659Y404482D01*
X1076659Y407918D01*
X1077974Y411092D01*
X1080404Y413522D01*
X1083578Y414837D01*
X1100222Y414837D01*
X1103396Y413522D01*
X1105826Y411092D01*
X1107141Y407918D01*
X1107141Y404482D01*
X1105826Y401308D01*
X1103396Y398878D01*
X1100222Y397563D01*
X1083578Y397563D01*
G37*
%LPD*%
%LPC*%
G36*
X1159778Y397563D02*
X1159778Y397563D01*
X1156604Y398878D01*
X1154174Y401308D01*
X1152859Y404482D01*
X1152859Y407918D01*
X1154174Y411092D01*
X1156604Y413522D01*
X1159778Y414837D01*
X1176422Y414837D01*
X1179596Y413522D01*
X1182026Y411092D01*
X1183341Y407918D01*
X1183341Y404482D01*
X1182026Y401308D01*
X1179596Y398878D01*
X1176422Y397563D01*
X1159778Y397563D01*
G37*
%LPD*%
%LPC*%
G36*
X899778Y397563D02*
X899778Y397563D01*
X896604Y398878D01*
X894174Y401308D01*
X892859Y404482D01*
X892859Y407918D01*
X894174Y411092D01*
X896604Y413522D01*
X899778Y414837D01*
X916422Y414837D01*
X919596Y413522D01*
X922026Y411092D01*
X923341Y407918D01*
X923341Y404482D01*
X922026Y401308D01*
X919596Y398878D01*
X916422Y397563D01*
X899778Y397563D01*
G37*
%LPD*%
%LPC*%
G36*
X823578Y397563D02*
X823578Y397563D01*
X820404Y398878D01*
X817974Y401308D01*
X816659Y404482D01*
X816659Y407918D01*
X817974Y411092D01*
X820404Y413522D01*
X823578Y414837D01*
X840222Y414837D01*
X843396Y413522D01*
X845826Y411092D01*
X847141Y407918D01*
X847141Y404482D01*
X845826Y401308D01*
X843396Y398878D01*
X840222Y397563D01*
X823578Y397563D01*
G37*
%LPD*%
%LPC*%
G36*
X639778Y397563D02*
X639778Y397563D01*
X636604Y398878D01*
X634174Y401308D01*
X632859Y404482D01*
X632859Y407918D01*
X634174Y411092D01*
X636604Y413522D01*
X639778Y414837D01*
X656422Y414837D01*
X659596Y413522D01*
X662026Y411092D01*
X663341Y407918D01*
X663341Y404482D01*
X662026Y401308D01*
X659596Y398878D01*
X656422Y397563D01*
X639778Y397563D01*
G37*
%LPD*%
%LPC*%
G36*
X563578Y397563D02*
X563578Y397563D01*
X560404Y398878D01*
X557974Y401308D01*
X556659Y404482D01*
X556659Y407918D01*
X557974Y411092D01*
X560404Y413522D01*
X563578Y414837D01*
X580222Y414837D01*
X583396Y413522D01*
X585826Y411092D01*
X587141Y407918D01*
X587141Y404482D01*
X585826Y401308D01*
X583396Y398878D01*
X580222Y397563D01*
X563578Y397563D01*
G37*
%LPD*%
%LPC*%
G36*
X563578Y270563D02*
X563578Y270563D01*
X560404Y271878D01*
X557974Y274308D01*
X556659Y277482D01*
X556659Y280918D01*
X557974Y284092D01*
X560404Y286522D01*
X563578Y287837D01*
X580222Y287837D01*
X583396Y286522D01*
X585826Y284092D01*
X587141Y280918D01*
X587141Y277482D01*
X585826Y274308D01*
X583396Y271878D01*
X580222Y270563D01*
X563578Y270563D01*
G37*
%LPD*%
%LPC*%
G36*
X303578Y377863D02*
X303578Y377863D01*
X300404Y379178D01*
X297974Y381608D01*
X296659Y384782D01*
X296659Y388218D01*
X297974Y391392D01*
X300404Y393822D01*
X303578Y395137D01*
X320222Y395137D01*
X323396Y393822D01*
X325826Y391392D01*
X327141Y388218D01*
X327141Y384782D01*
X325826Y381608D01*
X323396Y379178D01*
X320222Y377863D01*
X303578Y377863D01*
G37*
%LPD*%
%LPC*%
G36*
X823578Y372163D02*
X823578Y372163D01*
X820404Y373478D01*
X817974Y375908D01*
X816659Y379082D01*
X816659Y382518D01*
X817974Y385692D01*
X820404Y388122D01*
X823578Y389437D01*
X840222Y389437D01*
X843396Y388122D01*
X845826Y385692D01*
X847141Y382518D01*
X847141Y379082D01*
X845826Y375908D01*
X843396Y373478D01*
X840222Y372163D01*
X823578Y372163D01*
G37*
%LPD*%
%LPC*%
G36*
X563578Y372163D02*
X563578Y372163D01*
X560404Y373478D01*
X557974Y375908D01*
X556659Y379082D01*
X556659Y382518D01*
X557974Y385692D01*
X560404Y388122D01*
X563578Y389437D01*
X580222Y389437D01*
X583396Y388122D01*
X585826Y385692D01*
X587141Y382518D01*
X587141Y379082D01*
X585826Y375908D01*
X583396Y373478D01*
X580222Y372163D01*
X563578Y372163D01*
G37*
%LPD*%
%LPC*%
G36*
X1083578Y372163D02*
X1083578Y372163D01*
X1080404Y373478D01*
X1077974Y375908D01*
X1076659Y379082D01*
X1076659Y382518D01*
X1077974Y385692D01*
X1080404Y388122D01*
X1083578Y389437D01*
X1100222Y389437D01*
X1103396Y388122D01*
X1105826Y385692D01*
X1107141Y382518D01*
X1107141Y379082D01*
X1105826Y375908D01*
X1103396Y373478D01*
X1100222Y372163D01*
X1083578Y372163D01*
G37*
%LPD*%
%LPC*%
G36*
X379778Y352463D02*
X379778Y352463D01*
X376604Y353778D01*
X374174Y356208D01*
X372859Y359382D01*
X372859Y362818D01*
X374174Y365992D01*
X376604Y368422D01*
X379778Y369737D01*
X396422Y369737D01*
X399596Y368422D01*
X402026Y365992D01*
X403341Y362818D01*
X403341Y359382D01*
X402026Y356208D01*
X399596Y353778D01*
X396422Y352463D01*
X379778Y352463D01*
G37*
%LPD*%
%LPC*%
G36*
X303578Y352463D02*
X303578Y352463D01*
X300404Y353778D01*
X297974Y356208D01*
X296659Y359382D01*
X296659Y362818D01*
X297974Y365992D01*
X300404Y368422D01*
X303578Y369737D01*
X320222Y369737D01*
X323396Y368422D01*
X325826Y365992D01*
X327141Y362818D01*
X327141Y359382D01*
X325826Y356208D01*
X323396Y353778D01*
X320222Y352463D01*
X303578Y352463D01*
G37*
%LPD*%
%LPC*%
G36*
X1159778Y346763D02*
X1159778Y346763D01*
X1156604Y348078D01*
X1154174Y350508D01*
X1152859Y353682D01*
X1152859Y357118D01*
X1154174Y360292D01*
X1156604Y362722D01*
X1159778Y364037D01*
X1176422Y364037D01*
X1179596Y362722D01*
X1182026Y360292D01*
X1183341Y357118D01*
X1183341Y353682D01*
X1182026Y350508D01*
X1179596Y348078D01*
X1176422Y346763D01*
X1159778Y346763D01*
G37*
%LPD*%
%LPC*%
G36*
X639778Y346763D02*
X639778Y346763D01*
X636604Y348078D01*
X634174Y350508D01*
X632859Y353682D01*
X632859Y357118D01*
X634174Y360292D01*
X636604Y362722D01*
X639778Y364037D01*
X656422Y364037D01*
X659596Y362722D01*
X662026Y360292D01*
X663341Y357118D01*
X663341Y353682D01*
X662026Y350508D01*
X659596Y348078D01*
X656422Y346763D01*
X639778Y346763D01*
G37*
%LPD*%
%LPC*%
G36*
X899778Y346763D02*
X899778Y346763D01*
X896604Y348078D01*
X894174Y350508D01*
X892859Y353682D01*
X892859Y357118D01*
X894174Y360292D01*
X896604Y362722D01*
X899778Y364037D01*
X916422Y364037D01*
X919596Y362722D01*
X922026Y360292D01*
X923341Y357118D01*
X923341Y353682D01*
X922026Y350508D01*
X919596Y348078D01*
X916422Y346763D01*
X899778Y346763D01*
G37*
%LPD*%
%LPC*%
G36*
X379778Y327063D02*
X379778Y327063D01*
X376604Y328378D01*
X374174Y330808D01*
X372859Y333982D01*
X372859Y337418D01*
X374174Y340592D01*
X376604Y343022D01*
X379778Y344337D01*
X396422Y344337D01*
X399596Y343022D01*
X402026Y340592D01*
X403341Y337418D01*
X403341Y333982D01*
X402026Y330808D01*
X399596Y328378D01*
X396422Y327063D01*
X379778Y327063D01*
G37*
%LPD*%
%LPC*%
G36*
X303578Y327063D02*
X303578Y327063D01*
X300404Y328378D01*
X297974Y330808D01*
X296659Y333982D01*
X296659Y337418D01*
X297974Y340592D01*
X300404Y343022D01*
X303578Y344337D01*
X320222Y344337D01*
X323396Y343022D01*
X325826Y340592D01*
X327141Y337418D01*
X327141Y333982D01*
X325826Y330808D01*
X323396Y328378D01*
X320222Y327063D01*
X303578Y327063D01*
G37*
%LPD*%
%LPC*%
G36*
X1159778Y321363D02*
X1159778Y321363D01*
X1156604Y322678D01*
X1154174Y325108D01*
X1152859Y328282D01*
X1152859Y331718D01*
X1154174Y334892D01*
X1156604Y337322D01*
X1159778Y338637D01*
X1176422Y338637D01*
X1179596Y337322D01*
X1182026Y334892D01*
X1183341Y331718D01*
X1183341Y328282D01*
X1182026Y325108D01*
X1179596Y322678D01*
X1176422Y321363D01*
X1159778Y321363D01*
G37*
%LPD*%
%LPC*%
G36*
X1083578Y321363D02*
X1083578Y321363D01*
X1080404Y322678D01*
X1077974Y325108D01*
X1076659Y328282D01*
X1076659Y331718D01*
X1077974Y334892D01*
X1080404Y337322D01*
X1083578Y338637D01*
X1100222Y338637D01*
X1103396Y337322D01*
X1105826Y334892D01*
X1107141Y331718D01*
X1107141Y328282D01*
X1105826Y325108D01*
X1103396Y322678D01*
X1100222Y321363D01*
X1083578Y321363D01*
G37*
%LPD*%
%LPC*%
G36*
X899778Y321363D02*
X899778Y321363D01*
X896604Y322678D01*
X894174Y325108D01*
X892859Y328282D01*
X892859Y331718D01*
X894174Y334892D01*
X896604Y337322D01*
X899778Y338637D01*
X916422Y338637D01*
X919596Y337322D01*
X922026Y334892D01*
X923341Y331718D01*
X923341Y328282D01*
X922026Y325108D01*
X919596Y322678D01*
X916422Y321363D01*
X899778Y321363D01*
G37*
%LPD*%
%LPC*%
G36*
X823578Y321363D02*
X823578Y321363D01*
X820404Y322678D01*
X817974Y325108D01*
X816659Y328282D01*
X816659Y331718D01*
X817974Y334892D01*
X820404Y337322D01*
X823578Y338637D01*
X840222Y338637D01*
X843396Y337322D01*
X845826Y334892D01*
X847141Y331718D01*
X847141Y328282D01*
X845826Y325108D01*
X843396Y322678D01*
X840222Y321363D01*
X823578Y321363D01*
G37*
%LPD*%
%LPC*%
G36*
X426173Y510382D02*
X426173Y510382D01*
X424982Y511573D01*
X424982Y527227D01*
X426173Y528418D01*
X441827Y528418D01*
X443018Y527227D01*
X443018Y511573D01*
X441827Y510382D01*
X426173Y510382D01*
G37*
%LPD*%
%LPC*%
G36*
X426173Y461582D02*
X426173Y461582D01*
X424982Y462773D01*
X424982Y478427D01*
X426173Y479618D01*
X441827Y479618D01*
X443018Y478427D01*
X443018Y462773D01*
X441827Y461582D01*
X426173Y461582D01*
G37*
%LPD*%
%LPC*%
G36*
X1206173Y428482D02*
X1206173Y428482D01*
X1204982Y429673D01*
X1204982Y445327D01*
X1206173Y446518D01*
X1221827Y446518D01*
X1223018Y445327D01*
X1223018Y429673D01*
X1221827Y428482D01*
X1206173Y428482D01*
G37*
%LPD*%
%LPC*%
G36*
X946173Y428482D02*
X946173Y428482D01*
X944982Y429673D01*
X944982Y445327D01*
X946173Y446518D01*
X961827Y446518D01*
X963018Y445327D01*
X963018Y429673D01*
X961827Y428482D01*
X946173Y428482D01*
G37*
%LPD*%
%LPC*%
G36*
X1206173Y379682D02*
X1206173Y379682D01*
X1204982Y380873D01*
X1204982Y396527D01*
X1206173Y397718D01*
X1221827Y397718D01*
X1223018Y396527D01*
X1223018Y380873D01*
X1221827Y379682D01*
X1206173Y379682D01*
G37*
%LPD*%
%LPC*%
G36*
X686173Y428482D02*
X686173Y428482D01*
X684982Y429673D01*
X684982Y445327D01*
X686173Y446518D01*
X701827Y446518D01*
X703018Y445327D01*
X703018Y429673D01*
X701827Y428482D01*
X686173Y428482D01*
G37*
%LPD*%
%LPC*%
G36*
X686173Y379682D02*
X686173Y379682D01*
X684982Y380873D01*
X684982Y396527D01*
X686173Y397718D01*
X701827Y397718D01*
X703018Y396527D01*
X703018Y380873D01*
X701827Y379682D01*
X686173Y379682D01*
G37*
%LPD*%
%LPC*%
G36*
X946173Y379682D02*
X946173Y379682D01*
X944982Y380873D01*
X944982Y396527D01*
X946173Y397718D01*
X961827Y397718D01*
X963018Y396527D01*
X963018Y380873D01*
X961827Y379682D01*
X946173Y379682D01*
G37*
%LPD*%
%LPC*%
G36*
X904453Y689427D02*
X904453Y689427D01*
X900934Y690885D01*
X898241Y693577D01*
X896784Y697096D01*
X896784Y700904D01*
X898241Y704423D01*
X900934Y707115D01*
X904453Y708573D01*
X908261Y708573D01*
X911779Y707115D01*
X914472Y704423D01*
X915929Y700904D01*
X915929Y697096D01*
X914472Y693577D01*
X911779Y690885D01*
X908261Y689427D01*
X904453Y689427D01*
G37*
%LPD*%
%LPC*%
G36*
X1077596Y689327D02*
X1077596Y689327D01*
X1074077Y690785D01*
X1071385Y693477D01*
X1069927Y696996D01*
X1069927Y700804D01*
X1071385Y704323D01*
X1074077Y707015D01*
X1077596Y708473D01*
X1081404Y708473D01*
X1084923Y707015D01*
X1087615Y704323D01*
X1089073Y700804D01*
X1089073Y696996D01*
X1087615Y693477D01*
X1084923Y690785D01*
X1081404Y689327D01*
X1077596Y689327D01*
G37*
%LPD*%
%LPC*%
G36*
X558166Y688057D02*
X558166Y688057D01*
X554647Y689515D01*
X551955Y692207D01*
X550497Y695726D01*
X550497Y699534D01*
X551955Y703053D01*
X554647Y705745D01*
X558166Y707203D01*
X561974Y707203D01*
X565493Y705745D01*
X568185Y703053D01*
X569643Y699534D01*
X569643Y695726D01*
X568185Y692207D01*
X565493Y689515D01*
X561974Y688057D01*
X558166Y688057D01*
G37*
%LPD*%
%LPC*%
G36*
X1259331Y344931D02*
X1259331Y344931D01*
X1259331Y353061D01*
X1265720Y353061D01*
X1267299Y352811D01*
X1268820Y352316D01*
X1270245Y351590D01*
X1271539Y350650D01*
X1272670Y349519D01*
X1273610Y348225D01*
X1274336Y346800D01*
X1274831Y345279D01*
X1274886Y344931D01*
X1259331Y344931D01*
G37*
%LPD*%
%LPC*%
G36*
X742031Y359031D02*
X742031Y359031D01*
X742031Y367161D01*
X748420Y367161D01*
X749999Y366911D01*
X751520Y366416D01*
X752945Y365690D01*
X754239Y364750D01*
X755370Y363619D01*
X756310Y362325D01*
X757036Y360900D01*
X757531Y359379D01*
X757586Y359031D01*
X742031Y359031D01*
G37*
%LPD*%
%LPC*%
G36*
X482031Y430931D02*
X482031Y430931D01*
X482031Y439061D01*
X488420Y439061D01*
X489999Y438811D01*
X491520Y438316D01*
X492945Y437590D01*
X494239Y436650D01*
X495370Y435519D01*
X496310Y434225D01*
X497036Y432800D01*
X497531Y431279D01*
X497586Y430931D01*
X482031Y430931D01*
G37*
%LPD*%
%LPC*%
G36*
X1002031Y359031D02*
X1002031Y359031D01*
X1002031Y367161D01*
X1008420Y367161D01*
X1009999Y366911D01*
X1011520Y366416D01*
X1012945Y365690D01*
X1014239Y364750D01*
X1015370Y363619D01*
X1016310Y362325D01*
X1017036Y360900D01*
X1017531Y359379D01*
X1017586Y359031D01*
X1002031Y359031D01*
G37*
%LPD*%
%LPC*%
G36*
X471931Y675131D02*
X471931Y675131D01*
X471931Y690686D01*
X472279Y690631D01*
X473800Y690136D01*
X475225Y689410D01*
X476519Y688470D01*
X477650Y687339D01*
X478590Y686045D01*
X479316Y684620D01*
X479811Y683099D01*
X480061Y681520D01*
X480061Y675131D01*
X471931Y675131D01*
G37*
%LPD*%
%LPC*%
G36*
X1239714Y344931D02*
X1239714Y344931D01*
X1239769Y345279D01*
X1240264Y346800D01*
X1240990Y348225D01*
X1241930Y349519D01*
X1243061Y350650D01*
X1244355Y351590D01*
X1245780Y352316D01*
X1247301Y352811D01*
X1248880Y353061D01*
X1255269Y353061D01*
X1255269Y344931D01*
X1239714Y344931D01*
G37*
%LPD*%
%LPC*%
G36*
X462414Y430931D02*
X462414Y430931D01*
X462469Y431279D01*
X462964Y432800D01*
X463690Y434225D01*
X464630Y435519D01*
X465761Y436650D01*
X467055Y437590D01*
X468480Y438316D01*
X470001Y438811D01*
X471580Y439061D01*
X477969Y439061D01*
X477969Y430931D01*
X462414Y430931D01*
G37*
%LPD*%
%LPC*%
G36*
X722414Y359031D02*
X722414Y359031D01*
X722469Y359379D01*
X722964Y360900D01*
X723690Y362325D01*
X724630Y363619D01*
X725761Y364750D01*
X727055Y365690D01*
X728480Y366416D01*
X730001Y366911D01*
X731580Y367161D01*
X737969Y367161D01*
X737969Y359031D01*
X722414Y359031D01*
G37*
%LPD*%
%LPC*%
G36*
X982414Y359031D02*
X982414Y359031D01*
X982469Y359379D01*
X982964Y360900D01*
X983690Y362325D01*
X984630Y363619D01*
X985761Y364750D01*
X987055Y365690D01*
X988480Y366416D01*
X990001Y366911D01*
X991580Y367161D01*
X997969Y367161D01*
X997969Y359031D01*
X982414Y359031D01*
G37*
%LPD*%
%LPC*%
G36*
X471931Y671069D02*
X471931Y671069D01*
X480061Y671069D01*
X480061Y664680D01*
X479811Y663101D01*
X479316Y661580D01*
X478590Y660155D01*
X477650Y658861D01*
X476519Y657730D01*
X475225Y656790D01*
X473800Y656064D01*
X472279Y655569D01*
X471931Y655514D01*
X471931Y671069D01*
G37*
%LPD*%
%LPC*%
G36*
X459739Y675131D02*
X459739Y675131D01*
X459739Y681520D01*
X459989Y683099D01*
X460484Y684620D01*
X461210Y686045D01*
X462150Y687339D01*
X463281Y688470D01*
X464575Y689410D01*
X466000Y690136D01*
X467521Y690631D01*
X467869Y690686D01*
X467869Y675131D01*
X459739Y675131D01*
G37*
%LPD*%
%LPC*%
G36*
X482031Y418739D02*
X482031Y418739D01*
X482031Y426869D01*
X497586Y426869D01*
X497531Y426521D01*
X497036Y425000D01*
X496310Y423575D01*
X495370Y422281D01*
X494239Y421150D01*
X492945Y420210D01*
X491520Y419484D01*
X489999Y418989D01*
X488420Y418739D01*
X482031Y418739D01*
G37*
%LPD*%
%LPC*%
G36*
X1259331Y332739D02*
X1259331Y332739D01*
X1259331Y340869D01*
X1274886Y340869D01*
X1274831Y340521D01*
X1274336Y339000D01*
X1273610Y337575D01*
X1272670Y336281D01*
X1271539Y335150D01*
X1270245Y334210D01*
X1268820Y333484D01*
X1267299Y332989D01*
X1265720Y332739D01*
X1259331Y332739D01*
G37*
%LPD*%
%LPC*%
G36*
X742031Y346839D02*
X742031Y346839D01*
X742031Y354969D01*
X757586Y354969D01*
X757531Y354621D01*
X757036Y353100D01*
X756310Y351675D01*
X755370Y350381D01*
X754239Y349250D01*
X752945Y348310D01*
X751520Y347584D01*
X749999Y347089D01*
X748420Y346839D01*
X742031Y346839D01*
G37*
%LPD*%
%LPC*%
G36*
X1002031Y346839D02*
X1002031Y346839D01*
X1002031Y354969D01*
X1017586Y354969D01*
X1017531Y354621D01*
X1017036Y353100D01*
X1016310Y351675D01*
X1015370Y350381D01*
X1014239Y349250D01*
X1012945Y348310D01*
X1011520Y347584D01*
X1009999Y347089D01*
X1008420Y346839D01*
X1002031Y346839D01*
G37*
%LPD*%
%LPC*%
G36*
X1248880Y332739D02*
X1248880Y332739D01*
X1247301Y332989D01*
X1245780Y333484D01*
X1244355Y334210D01*
X1243061Y335150D01*
X1241930Y336281D01*
X1240990Y337575D01*
X1240264Y339000D01*
X1239769Y340521D01*
X1239714Y340869D01*
X1255269Y340869D01*
X1255269Y332739D01*
X1248880Y332739D01*
G37*
%LPD*%
%LPC*%
G36*
X471580Y418739D02*
X471580Y418739D01*
X470001Y418989D01*
X468480Y419484D01*
X467055Y420210D01*
X465761Y421150D01*
X464630Y422281D01*
X463690Y423575D01*
X462964Y425000D01*
X462469Y426521D01*
X462414Y426869D01*
X477969Y426869D01*
X477969Y418739D01*
X471580Y418739D01*
G37*
%LPD*%
%LPC*%
G36*
X991580Y346839D02*
X991580Y346839D01*
X990001Y347089D01*
X988480Y347584D01*
X987055Y348310D01*
X985761Y349250D01*
X984630Y350381D01*
X983690Y351675D01*
X982964Y353100D01*
X982469Y354621D01*
X982414Y354969D01*
X997969Y354969D01*
X997969Y346839D01*
X991580Y346839D01*
G37*
%LPD*%
%LPC*%
G36*
X731580Y346839D02*
X731580Y346839D01*
X730001Y347089D01*
X728480Y347584D01*
X727055Y348310D01*
X725761Y349250D01*
X724630Y350381D01*
X723690Y351675D01*
X722964Y353100D01*
X722469Y354621D01*
X722414Y354969D01*
X737969Y354969D01*
X737969Y346839D01*
X731580Y346839D01*
G37*
%LPD*%
%LPC*%
G36*
X467521Y655569D02*
X467521Y655569D01*
X466000Y656064D01*
X464575Y656790D01*
X463281Y657730D01*
X462150Y658861D01*
X461210Y660155D01*
X460484Y661580D01*
X459989Y663101D01*
X459739Y664680D01*
X459739Y671069D01*
X467869Y671069D01*
X467869Y655514D01*
X467521Y655569D01*
G37*
%LPD*%
%LPC*%
G36*
X910131Y382831D02*
X910131Y382831D01*
X910131Y389945D01*
X915605Y389945D01*
X917371Y389593D01*
X919036Y388904D01*
X920534Y387903D01*
X921807Y386630D01*
X922808Y385132D01*
X923497Y383467D01*
X923624Y382831D01*
X910131Y382831D01*
G37*
%LPD*%
%LPC*%
G36*
X390131Y464731D02*
X390131Y464731D01*
X390131Y471845D01*
X395605Y471845D01*
X397371Y471493D01*
X399036Y470804D01*
X400534Y469803D01*
X401807Y468530D01*
X402808Y467032D01*
X403497Y465367D01*
X403624Y464731D01*
X390131Y464731D01*
G37*
%LPD*%
%LPC*%
G36*
X1170131Y382831D02*
X1170131Y382831D01*
X1170131Y389945D01*
X1175605Y389945D01*
X1177371Y389593D01*
X1179036Y388904D01*
X1180534Y387903D01*
X1181807Y386630D01*
X1182808Y385132D01*
X1183497Y383467D01*
X1183624Y382831D01*
X1170131Y382831D01*
G37*
%LPD*%
%LPC*%
G36*
X573931Y357431D02*
X573931Y357431D01*
X573931Y364545D01*
X579405Y364545D01*
X581171Y364193D01*
X582836Y363504D01*
X584334Y362503D01*
X585607Y361230D01*
X586608Y359732D01*
X587297Y358067D01*
X587424Y357431D01*
X573931Y357431D01*
G37*
%LPD*%
%LPC*%
G36*
X650131Y382831D02*
X650131Y382831D01*
X650131Y389945D01*
X655605Y389945D01*
X657371Y389593D01*
X659036Y388904D01*
X660534Y387903D01*
X661807Y386630D01*
X662808Y385132D01*
X663497Y383467D01*
X663624Y382831D01*
X650131Y382831D01*
G37*
%LPD*%
%LPC*%
G36*
X313931Y439331D02*
X313931Y439331D01*
X313931Y446445D01*
X319405Y446445D01*
X321171Y446093D01*
X322836Y445404D01*
X324334Y444403D01*
X325607Y443130D01*
X326608Y441632D01*
X327297Y439967D01*
X327424Y439331D01*
X313931Y439331D01*
G37*
%LPD*%
%LPC*%
G36*
X833931Y357431D02*
X833931Y357431D01*
X833931Y364545D01*
X839405Y364545D01*
X841171Y364193D01*
X842836Y363504D01*
X844334Y362503D01*
X845607Y361230D01*
X846608Y359732D01*
X847297Y358067D01*
X847424Y357431D01*
X833931Y357431D01*
G37*
%LPD*%
%LPC*%
G36*
X1093931Y357431D02*
X1093931Y357431D01*
X1093931Y364545D01*
X1099405Y364545D01*
X1101171Y364193D01*
X1102836Y363504D01*
X1104334Y362503D01*
X1105607Y361230D01*
X1106608Y359732D01*
X1107297Y358067D01*
X1107424Y357431D01*
X1093931Y357431D01*
G37*
%LPD*%
%LPC*%
G36*
X556376Y357431D02*
X556376Y357431D01*
X556503Y358067D01*
X557192Y359732D01*
X558193Y361230D01*
X559466Y362503D01*
X560964Y363504D01*
X562629Y364193D01*
X564395Y364545D01*
X569869Y364545D01*
X569869Y357431D01*
X556376Y357431D01*
G37*
%LPD*%
%LPC*%
G36*
X816376Y357431D02*
X816376Y357431D01*
X816503Y358067D01*
X817192Y359732D01*
X818193Y361230D01*
X819466Y362503D01*
X820964Y363504D01*
X822629Y364193D01*
X824395Y364545D01*
X829869Y364545D01*
X829869Y357431D01*
X816376Y357431D01*
G37*
%LPD*%
%LPC*%
G36*
X892576Y382831D02*
X892576Y382831D01*
X892703Y383467D01*
X893392Y385132D01*
X894393Y386630D01*
X895666Y387903D01*
X897164Y388904D01*
X898829Y389593D01*
X900595Y389945D01*
X906069Y389945D01*
X906069Y382831D01*
X892576Y382831D01*
G37*
%LPD*%
%LPC*%
G36*
X1152576Y382831D02*
X1152576Y382831D01*
X1152703Y383467D01*
X1153392Y385132D01*
X1154393Y386630D01*
X1155666Y387903D01*
X1157164Y388904D01*
X1158829Y389593D01*
X1160595Y389945D01*
X1166069Y389945D01*
X1166069Y382831D01*
X1152576Y382831D01*
G37*
%LPD*%
%LPC*%
G36*
X372576Y464731D02*
X372576Y464731D01*
X372703Y465367D01*
X373392Y467032D01*
X374393Y468530D01*
X375666Y469803D01*
X377164Y470804D01*
X378829Y471493D01*
X380595Y471845D01*
X386069Y471845D01*
X386069Y464731D01*
X372576Y464731D01*
G37*
%LPD*%
%LPC*%
G36*
X1076376Y357431D02*
X1076376Y357431D01*
X1076503Y358067D01*
X1077192Y359732D01*
X1078193Y361230D01*
X1079466Y362503D01*
X1080964Y363504D01*
X1082629Y364193D01*
X1084395Y364545D01*
X1089869Y364545D01*
X1089869Y357431D01*
X1076376Y357431D01*
G37*
%LPD*%
%LPC*%
G36*
X296376Y439331D02*
X296376Y439331D01*
X296503Y439967D01*
X297192Y441632D01*
X298193Y443130D01*
X299466Y444403D01*
X300964Y445404D01*
X302629Y446093D01*
X304395Y446445D01*
X309869Y446445D01*
X309869Y439331D01*
X296376Y439331D01*
G37*
%LPD*%
%LPC*%
G36*
X632576Y382831D02*
X632576Y382831D01*
X632703Y383467D01*
X633392Y385132D01*
X634393Y386630D01*
X635666Y387903D01*
X637164Y388904D01*
X638829Y389593D01*
X640595Y389945D01*
X646069Y389945D01*
X646069Y382831D01*
X632576Y382831D01*
G37*
%LPD*%
%LPC*%
G36*
X313931Y428155D02*
X313931Y428155D01*
X313931Y435269D01*
X327424Y435269D01*
X327297Y434633D01*
X326608Y432968D01*
X325607Y431470D01*
X324334Y430197D01*
X322836Y429196D01*
X321171Y428507D01*
X319405Y428155D01*
X313931Y428155D01*
G37*
%LPD*%
%LPC*%
G36*
X573931Y346255D02*
X573931Y346255D01*
X573931Y353369D01*
X587424Y353369D01*
X587297Y352733D01*
X586608Y351068D01*
X585607Y349570D01*
X584334Y348297D01*
X582836Y347296D01*
X581171Y346607D01*
X579405Y346255D01*
X573931Y346255D01*
G37*
%LPD*%
%LPC*%
G36*
X1093931Y346255D02*
X1093931Y346255D01*
X1093931Y353369D01*
X1107424Y353369D01*
X1107297Y352733D01*
X1106608Y351068D01*
X1105607Y349570D01*
X1104334Y348297D01*
X1102836Y347296D01*
X1101171Y346607D01*
X1099405Y346255D01*
X1093931Y346255D01*
G37*
%LPD*%
%LPC*%
G36*
X650131Y371655D02*
X650131Y371655D01*
X650131Y378769D01*
X663624Y378769D01*
X663497Y378133D01*
X662808Y376468D01*
X661807Y374970D01*
X660534Y373697D01*
X659036Y372696D01*
X657371Y372007D01*
X655605Y371655D01*
X650131Y371655D01*
G37*
%LPD*%
%LPC*%
G36*
X390131Y453555D02*
X390131Y453555D01*
X390131Y460669D01*
X403624Y460669D01*
X403497Y460033D01*
X402808Y458368D01*
X401807Y456870D01*
X400534Y455597D01*
X399036Y454596D01*
X397371Y453907D01*
X395605Y453555D01*
X390131Y453555D01*
G37*
%LPD*%
%LPC*%
G36*
X833931Y346255D02*
X833931Y346255D01*
X833931Y353369D01*
X847424Y353369D01*
X847297Y352733D01*
X846608Y351068D01*
X845607Y349570D01*
X844334Y348297D01*
X842836Y347296D01*
X841171Y346607D01*
X839405Y346255D01*
X833931Y346255D01*
G37*
%LPD*%
%LPC*%
G36*
X1170131Y371655D02*
X1170131Y371655D01*
X1170131Y378769D01*
X1183624Y378769D01*
X1183497Y378133D01*
X1182808Y376468D01*
X1181807Y374970D01*
X1180534Y373697D01*
X1179036Y372696D01*
X1177371Y372007D01*
X1175605Y371655D01*
X1170131Y371655D01*
G37*
%LPD*%
%LPC*%
G36*
X910131Y371655D02*
X910131Y371655D01*
X910131Y378769D01*
X923624Y378769D01*
X923497Y378133D01*
X922808Y376468D01*
X921807Y374970D01*
X920534Y373697D01*
X919036Y372696D01*
X917371Y372007D01*
X915605Y371655D01*
X910131Y371655D01*
G37*
%LPD*%
%LPC*%
G36*
X564395Y346255D02*
X564395Y346255D01*
X562629Y346607D01*
X560964Y347296D01*
X559466Y348297D01*
X558193Y349570D01*
X557192Y351068D01*
X556503Y352733D01*
X556376Y353369D01*
X569869Y353369D01*
X569869Y346255D01*
X564395Y346255D01*
G37*
%LPD*%
%LPC*%
G36*
X824395Y346255D02*
X824395Y346255D01*
X822629Y346607D01*
X820964Y347296D01*
X819466Y348297D01*
X818193Y349570D01*
X817192Y351068D01*
X816503Y352733D01*
X816376Y353369D01*
X829869Y353369D01*
X829869Y346255D01*
X824395Y346255D01*
G37*
%LPD*%
%LPC*%
G36*
X304395Y428155D02*
X304395Y428155D01*
X302629Y428507D01*
X300964Y429196D01*
X299466Y430197D01*
X298193Y431470D01*
X297192Y432968D01*
X296503Y434633D01*
X296376Y435269D01*
X309869Y435269D01*
X309869Y428155D01*
X304395Y428155D01*
G37*
%LPD*%
%LPC*%
G36*
X900595Y371655D02*
X900595Y371655D01*
X898829Y372007D01*
X897164Y372696D01*
X895666Y373697D01*
X894393Y374970D01*
X893392Y376468D01*
X892703Y378133D01*
X892576Y378769D01*
X906069Y378769D01*
X906069Y371655D01*
X900595Y371655D01*
G37*
%LPD*%
%LPC*%
G36*
X640595Y371655D02*
X640595Y371655D01*
X638829Y372007D01*
X637164Y372696D01*
X635666Y373697D01*
X634393Y374970D01*
X633392Y376468D01*
X632703Y378133D01*
X632576Y378769D01*
X646069Y378769D01*
X646069Y371655D01*
X640595Y371655D01*
G37*
%LPD*%
%LPC*%
G36*
X380595Y453555D02*
X380595Y453555D01*
X378829Y453907D01*
X377164Y454596D01*
X375666Y455597D01*
X374393Y456870D01*
X373392Y458368D01*
X372703Y460033D01*
X372576Y460669D01*
X386069Y460669D01*
X386069Y453555D01*
X380595Y453555D01*
G37*
%LPD*%
%LPC*%
G36*
X1084395Y346255D02*
X1084395Y346255D01*
X1082629Y346607D01*
X1080964Y347296D01*
X1079466Y348297D01*
X1078193Y349570D01*
X1077192Y351068D01*
X1076503Y352733D01*
X1076376Y353369D01*
X1089869Y353369D01*
X1089869Y346255D01*
X1084395Y346255D01*
G37*
%LPD*%
%LPC*%
G36*
X1160595Y371655D02*
X1160595Y371655D01*
X1158829Y372007D01*
X1157164Y372696D01*
X1155666Y373697D01*
X1154393Y374970D01*
X1153392Y376468D01*
X1152703Y378133D01*
X1152576Y378769D01*
X1166069Y378769D01*
X1166069Y371655D01*
X1160595Y371655D01*
G37*
%LPD*%
%LPC*%
G36*
X463041Y762761D02*
X463041Y762761D01*
X463041Y771334D01*
X463537Y771255D01*
X465152Y770730D01*
X466666Y769959D01*
X468040Y768961D01*
X469241Y767760D01*
X470239Y766386D01*
X471010Y764872D01*
X471535Y763257D01*
X471614Y762761D01*
X463041Y762761D01*
G37*
%LPD*%
%LPC*%
G36*
X450406Y762761D02*
X450406Y762761D01*
X450485Y763257D01*
X451010Y764872D01*
X451781Y766386D01*
X452779Y767760D01*
X453980Y768961D01*
X455354Y769959D01*
X456868Y770730D01*
X458483Y771255D01*
X458979Y771334D01*
X458979Y762761D01*
X450406Y762761D01*
G37*
%LPD*%
%LPC*%
G36*
X463041Y758699D02*
X463041Y758699D01*
X471614Y758699D01*
X471535Y758203D01*
X471010Y756588D01*
X470239Y755074D01*
X469241Y753700D01*
X468040Y752499D01*
X466666Y751501D01*
X465152Y750730D01*
X463537Y750205D01*
X463041Y750126D01*
X463041Y758699D01*
G37*
%LPD*%
%LPC*%
G36*
X458483Y750205D02*
X458483Y750205D01*
X456868Y750730D01*
X455354Y751501D01*
X453980Y752499D01*
X452779Y753700D01*
X451781Y755074D01*
X451010Y756588D01*
X450485Y758203D01*
X450406Y758699D01*
X458979Y758699D01*
X458979Y750126D01*
X458483Y750205D01*
G37*
%LPD*%
%LPC*%
G36*
X908388Y751031D02*
X908388Y751031D01*
X908388Y758885D01*
X908717Y758833D01*
X910226Y758342D01*
X911640Y757622D01*
X912924Y756689D01*
X914046Y755567D01*
X914978Y754283D01*
X915699Y752870D01*
X916189Y751361D01*
X916241Y751031D01*
X908388Y751031D01*
G37*
%LPD*%
%LPC*%
G36*
X735245Y751031D02*
X735245Y751031D01*
X735245Y758885D01*
X735574Y758833D01*
X737083Y758342D01*
X738497Y757622D01*
X739781Y756689D01*
X740902Y755567D01*
X741835Y754283D01*
X742555Y752870D01*
X743046Y751361D01*
X743098Y751031D01*
X735245Y751031D01*
G37*
%LPD*%
%LPC*%
G36*
X562101Y749661D02*
X562101Y749661D01*
X562101Y757515D01*
X562431Y757463D01*
X563940Y756972D01*
X565353Y756252D01*
X566637Y755319D01*
X567759Y754197D01*
X568692Y752913D01*
X569412Y751500D01*
X569903Y749991D01*
X569955Y749661D01*
X562101Y749661D01*
G37*
%LPD*%
%LPC*%
G36*
X1081531Y750931D02*
X1081531Y750931D01*
X1081531Y758785D01*
X1081861Y758733D01*
X1083370Y758242D01*
X1084783Y757522D01*
X1086067Y756589D01*
X1087189Y755467D01*
X1088122Y754183D01*
X1088842Y752770D01*
X1089332Y751261D01*
X1089385Y750931D01*
X1081531Y750931D01*
G37*
%LPD*%
%LPC*%
G36*
X908388Y746969D02*
X908388Y746969D01*
X916241Y746969D01*
X916189Y746639D01*
X915699Y745130D01*
X914978Y743717D01*
X914046Y742433D01*
X912924Y741311D01*
X911640Y740378D01*
X910226Y739658D01*
X908717Y739167D01*
X908388Y739115D01*
X908388Y746969D01*
G37*
%LPD*%
%LPC*%
G36*
X735245Y746969D02*
X735245Y746969D01*
X743098Y746969D01*
X743046Y746639D01*
X742555Y745130D01*
X741835Y743717D01*
X740902Y742433D01*
X739781Y741311D01*
X738497Y740378D01*
X737083Y739658D01*
X735574Y739167D01*
X735245Y739115D01*
X735245Y746969D01*
G37*
%LPD*%
%LPC*%
G36*
X1069615Y750931D02*
X1069615Y750931D01*
X1069667Y751261D01*
X1070158Y752770D01*
X1070878Y754183D01*
X1071811Y755467D01*
X1072933Y756589D01*
X1074216Y757522D01*
X1075630Y758242D01*
X1077139Y758733D01*
X1077469Y758785D01*
X1077469Y750931D01*
X1069615Y750931D01*
G37*
%LPD*%
%LPC*%
G36*
X723329Y751031D02*
X723329Y751031D01*
X723381Y751361D01*
X723871Y752870D01*
X724592Y754283D01*
X725524Y755567D01*
X726646Y756689D01*
X727930Y757622D01*
X729344Y758342D01*
X730853Y758833D01*
X731182Y758885D01*
X731182Y751031D01*
X723329Y751031D01*
G37*
%LPD*%
%LPC*%
G36*
X896472Y751031D02*
X896472Y751031D01*
X896524Y751361D01*
X897014Y752870D01*
X897735Y754283D01*
X898668Y755567D01*
X899789Y756689D01*
X901073Y757622D01*
X902487Y758342D01*
X903996Y758833D01*
X904325Y758885D01*
X904325Y751031D01*
X896472Y751031D01*
G37*
%LPD*%
%LPC*%
G36*
X550185Y749661D02*
X550185Y749661D01*
X550237Y749991D01*
X550728Y751500D01*
X551448Y752913D01*
X552381Y754197D01*
X553503Y755319D01*
X554787Y756252D01*
X556200Y756972D01*
X557709Y757463D01*
X558039Y757515D01*
X558039Y749661D01*
X550185Y749661D01*
G37*
%LPD*%
%LPC*%
G36*
X562101Y745599D02*
X562101Y745599D01*
X569955Y745599D01*
X569903Y745269D01*
X569412Y743760D01*
X568692Y742347D01*
X567759Y741063D01*
X566637Y739941D01*
X565353Y739008D01*
X563940Y738288D01*
X562431Y737797D01*
X562101Y737745D01*
X562101Y745599D01*
G37*
%LPD*%
%LPC*%
G36*
X1081531Y746869D02*
X1081531Y746869D01*
X1089385Y746869D01*
X1089332Y746539D01*
X1088842Y745030D01*
X1088122Y743617D01*
X1087189Y742333D01*
X1086067Y741211D01*
X1084783Y740278D01*
X1083370Y739558D01*
X1081861Y739067D01*
X1081531Y739015D01*
X1081531Y746869D01*
G37*
%LPD*%
%LPC*%
G36*
X730853Y739167D02*
X730853Y739167D01*
X729344Y739658D01*
X727930Y740378D01*
X726646Y741311D01*
X725524Y742433D01*
X724592Y743717D01*
X723871Y745130D01*
X723381Y746639D01*
X723329Y746969D01*
X731182Y746969D01*
X731182Y739115D01*
X730853Y739167D01*
G37*
%LPD*%
%LPC*%
G36*
X903996Y739167D02*
X903996Y739167D01*
X902487Y739658D01*
X901073Y740378D01*
X899789Y741311D01*
X898668Y742433D01*
X897735Y743717D01*
X897014Y745130D01*
X896524Y746639D01*
X896472Y746969D01*
X904325Y746969D01*
X904325Y739115D01*
X903996Y739167D01*
G37*
%LPD*%
%LPC*%
G36*
X1077139Y739067D02*
X1077139Y739067D01*
X1075630Y739558D01*
X1074216Y740278D01*
X1072933Y741211D01*
X1071811Y742333D01*
X1070878Y743617D01*
X1070158Y745030D01*
X1069667Y746539D01*
X1069615Y746869D01*
X1077469Y746869D01*
X1077469Y739015D01*
X1077139Y739067D01*
G37*
%LPD*%
%LPC*%
G36*
X557709Y737797D02*
X557709Y737797D01*
X556200Y738288D01*
X554787Y739008D01*
X553503Y739941D01*
X552381Y741063D01*
X551448Y742347D01*
X550728Y743760D01*
X550237Y745269D01*
X550185Y745599D01*
X558039Y745599D01*
X558039Y737745D01*
X557709Y737797D01*
G37*
%LPD*%
%LPC*%
G36*
X908099Y380799D02*
X908099Y380799D01*
X908099Y380801D01*
X908101Y380801D01*
X908101Y380799D01*
X908099Y380799D01*
G37*
%LPD*%
%LPC*%
G36*
X1257299Y342899D02*
X1257299Y342899D01*
X1257299Y342901D01*
X1257301Y342901D01*
X1257301Y342899D01*
X1257299Y342899D01*
G37*
%LPD*%
%LPC*%
G36*
X1168099Y380799D02*
X1168099Y380799D01*
X1168099Y380801D01*
X1168101Y380801D01*
X1168101Y380799D01*
X1168099Y380799D01*
G37*
%LPD*%
%LPC*%
G36*
X479999Y428899D02*
X479999Y428899D01*
X479999Y428901D01*
X480001Y428901D01*
X480001Y428899D01*
X479999Y428899D01*
G37*
%LPD*%
%LPC*%
G36*
X311899Y437299D02*
X311899Y437299D01*
X311899Y437301D01*
X311901Y437301D01*
X311901Y437299D01*
X311899Y437299D01*
G37*
%LPD*%
%LPC*%
G36*
X648099Y380799D02*
X648099Y380799D01*
X648099Y380801D01*
X648101Y380801D01*
X648101Y380799D01*
X648099Y380799D01*
G37*
%LPD*%
%LPC*%
G36*
X388099Y462699D02*
X388099Y462699D01*
X388099Y462701D01*
X388101Y462701D01*
X388101Y462699D01*
X388099Y462699D01*
G37*
%LPD*%
%LPC*%
G36*
X560069Y747629D02*
X560069Y747629D01*
X560069Y747631D01*
X560071Y747631D01*
X560071Y747629D01*
X560069Y747629D01*
G37*
%LPD*%
%LPC*%
G36*
X1079499Y748899D02*
X1079499Y748899D01*
X1079499Y748901D01*
X1079501Y748901D01*
X1079501Y748899D01*
X1079499Y748899D01*
G37*
%LPD*%
%LPC*%
G36*
X733212Y748999D02*
X733212Y748999D01*
X733212Y749001D01*
X733214Y749001D01*
X733214Y748999D01*
X733212Y748999D01*
G37*
%LPD*%
%LPC*%
G36*
X999999Y356999D02*
X999999Y356999D01*
X999999Y357001D01*
X1000001Y357001D01*
X1000001Y356999D01*
X999999Y356999D01*
G37*
%LPD*%
%LPC*%
G36*
X739999Y356999D02*
X739999Y356999D01*
X739999Y357001D01*
X740001Y357001D01*
X740001Y356999D01*
X739999Y356999D01*
G37*
%LPD*%
%LPC*%
G36*
X1091899Y355399D02*
X1091899Y355399D01*
X1091899Y355401D01*
X1091901Y355401D01*
X1091901Y355399D01*
X1091899Y355399D01*
G37*
%LPD*%
%LPC*%
G36*
X906356Y748999D02*
X906356Y748999D01*
X906356Y749001D01*
X906358Y749001D01*
X906358Y748999D01*
X906356Y748999D01*
G37*
%LPD*%
%LPC*%
G36*
X571899Y355399D02*
X571899Y355399D01*
X571899Y355401D01*
X571901Y355401D01*
X571901Y355399D01*
X571899Y355399D01*
G37*
%LPD*%
%LPC*%
G36*
X461009Y760729D02*
X461009Y760729D01*
X461009Y760731D01*
X461011Y760731D01*
X461011Y760729D01*
X461009Y760729D01*
G37*
%LPD*%
%LPC*%
G36*
X469899Y673099D02*
X469899Y673099D01*
X469899Y673101D01*
X469901Y673101D01*
X469901Y673099D01*
X469899Y673099D01*
G37*
%LPD*%
%LPC*%
G36*
X831899Y355399D02*
X831899Y355399D01*
X831899Y355401D01*
X831901Y355401D01*
X831901Y355399D01*
X831899Y355399D01*
G37*
%LPD*%
D10*
X444500Y665480D02*
X444500Y680720D01*
X469900Y680720D02*
X469900Y665480D01*
X495300Y665480D02*
X495300Y680720D01*
D11*
X511810Y760730D03*
D12*
X461010Y760730D03*
D13*
X394704Y284900D02*
X381496Y284900D01*
X381496Y310300D02*
X394704Y310300D01*
X394704Y437300D02*
X381496Y437300D01*
X381496Y462700D02*
X394704Y462700D01*
X394704Y335700D02*
X381496Y335700D01*
X381496Y361100D02*
X394704Y361100D01*
X394704Y411900D02*
X381496Y411900D01*
X381496Y386500D02*
X394704Y386500D01*
X394704Y488100D02*
X381496Y488100D01*
X381496Y513500D02*
X394704Y513500D01*
X394704Y538900D02*
X381496Y538900D01*
X381496Y564300D02*
X394704Y564300D01*
X394704Y589700D02*
X381496Y589700D01*
X381496Y615100D02*
X394704Y615100D01*
X318504Y615100D02*
X305296Y615100D01*
X305296Y589700D02*
X318504Y589700D01*
X318504Y564300D02*
X305296Y564300D01*
X305296Y538900D02*
X318504Y538900D01*
X318504Y513500D02*
X305296Y513500D01*
X305296Y488100D02*
X318504Y488100D01*
X318504Y462700D02*
X305296Y462700D01*
X305296Y437300D02*
X318504Y437300D01*
X318504Y411900D02*
X305296Y411900D01*
X305296Y386500D02*
X318504Y386500D01*
X318504Y361100D02*
X305296Y361100D01*
X305296Y335700D02*
X318504Y335700D01*
X318504Y310300D02*
X305296Y310300D01*
X305296Y284900D02*
X318504Y284900D01*
X1161496Y203000D02*
X1174704Y203000D01*
X1174704Y228400D02*
X1161496Y228400D01*
X1161496Y355400D02*
X1174704Y355400D01*
X1174704Y380800D02*
X1161496Y380800D01*
X1161496Y253800D02*
X1174704Y253800D01*
X1174704Y279200D02*
X1161496Y279200D01*
X1161496Y330000D02*
X1174704Y330000D01*
X1174704Y304600D02*
X1161496Y304600D01*
X1161496Y406200D02*
X1174704Y406200D01*
X1174704Y431600D02*
X1161496Y431600D01*
X1161496Y457000D02*
X1174704Y457000D01*
X1174704Y482400D02*
X1161496Y482400D01*
X1161496Y507800D02*
X1174704Y507800D01*
X1174704Y533200D02*
X1161496Y533200D01*
X1098504Y533200D02*
X1085296Y533200D01*
X1085296Y507800D02*
X1098504Y507800D01*
X1098504Y482400D02*
X1085296Y482400D01*
X1085296Y457000D02*
X1098504Y457000D01*
X1098504Y431600D02*
X1085296Y431600D01*
X1085296Y406200D02*
X1098504Y406200D01*
X1098504Y380800D02*
X1085296Y380800D01*
X1085296Y355400D02*
X1098504Y355400D01*
X1098504Y330000D02*
X1085296Y330000D01*
X1085296Y304600D02*
X1098504Y304600D01*
X1098504Y279200D02*
X1085296Y279200D01*
X1085296Y253800D02*
X1098504Y253800D01*
X1098504Y228400D02*
X1085296Y228400D01*
X1085296Y203000D02*
X1098504Y203000D01*
D14*
X434000Y470600D03*
X434000Y519400D03*
X1214000Y388700D03*
X1214000Y437500D03*
D13*
X914704Y203000D02*
X901496Y203000D01*
X901496Y228400D02*
X914704Y228400D01*
X914704Y355400D02*
X901496Y355400D01*
X901496Y380800D02*
X914704Y380800D01*
X914704Y253800D02*
X901496Y253800D01*
X901496Y279200D02*
X914704Y279200D01*
X914704Y330000D02*
X901496Y330000D01*
X901496Y304600D02*
X914704Y304600D01*
X914704Y406200D02*
X901496Y406200D01*
X901496Y431600D02*
X914704Y431600D01*
X914704Y457000D02*
X901496Y457000D01*
X901496Y482400D02*
X914704Y482400D01*
X914704Y507800D02*
X901496Y507800D01*
X901496Y533200D02*
X914704Y533200D01*
X838504Y533200D02*
X825296Y533200D01*
X825296Y507800D02*
X838504Y507800D01*
X838504Y482400D02*
X825296Y482400D01*
X825296Y457000D02*
X838504Y457000D01*
X838504Y431600D02*
X825296Y431600D01*
X825296Y406200D02*
X838504Y406200D01*
X838504Y380800D02*
X825296Y380800D01*
X825296Y355400D02*
X838504Y355400D01*
X838504Y330000D02*
X825296Y330000D01*
X825296Y304600D02*
X838504Y304600D01*
X838504Y279200D02*
X825296Y279200D01*
X825296Y253800D02*
X838504Y253800D01*
X838504Y228400D02*
X825296Y228400D01*
X825296Y203000D02*
X838504Y203000D01*
D14*
X954000Y388700D03*
X954000Y437500D03*
D13*
X654704Y203000D02*
X641496Y203000D01*
X641496Y228400D02*
X654704Y228400D01*
X654704Y355400D02*
X641496Y355400D01*
X641496Y380800D02*
X654704Y380800D01*
X654704Y253800D02*
X641496Y253800D01*
X641496Y279200D02*
X654704Y279200D01*
X654704Y330000D02*
X641496Y330000D01*
X641496Y304600D02*
X654704Y304600D01*
X654704Y406200D02*
X641496Y406200D01*
X641496Y431600D02*
X654704Y431600D01*
X654704Y457000D02*
X641496Y457000D01*
X641496Y482400D02*
X654704Y482400D01*
X654704Y507800D02*
X641496Y507800D01*
X641496Y533200D02*
X654704Y533200D01*
X578504Y533200D02*
X565296Y533200D01*
X565296Y507800D02*
X578504Y507800D01*
X578504Y482400D02*
X565296Y482400D01*
X565296Y457000D02*
X578504Y457000D01*
X578504Y431600D02*
X565296Y431600D01*
X565296Y406200D02*
X578504Y406200D01*
X578504Y380800D02*
X565296Y380800D01*
X565296Y355400D02*
X578504Y355400D01*
X578504Y330000D02*
X565296Y330000D01*
X565296Y304600D02*
X578504Y304600D01*
X578504Y279200D02*
X565296Y279200D01*
X565296Y253800D02*
X578504Y253800D01*
X578504Y228400D02*
X565296Y228400D01*
X565296Y203000D02*
X578504Y203000D01*
D14*
X694000Y388700D03*
X694000Y437500D03*
D15*
X560070Y697630D03*
X560070Y722630D03*
X560070Y747630D03*
X1079500Y698900D03*
X1079500Y723900D03*
X1079500Y748900D03*
X733213Y699000D03*
X733213Y724000D03*
X733213Y749000D03*
X906357Y699000D03*
X906357Y724000D03*
X906357Y749000D03*
D10*
X1249680Y165100D02*
X1264920Y165100D01*
X1264920Y190500D02*
X1249680Y190500D01*
X1249680Y215900D02*
X1264920Y215900D01*
X1264920Y241300D02*
X1249680Y241300D01*
X1249680Y266700D02*
X1264920Y266700D01*
X1264920Y292100D02*
X1249680Y292100D01*
X1249680Y317500D02*
X1264920Y317500D01*
X1264920Y342900D02*
X1249680Y342900D01*
X1007620Y179200D02*
X992380Y179200D01*
X992380Y204600D02*
X1007620Y204600D01*
X1007620Y230000D02*
X992380Y230000D01*
X992380Y255400D02*
X1007620Y255400D01*
X1007620Y280800D02*
X992380Y280800D01*
X992380Y306200D02*
X1007620Y306200D01*
X1007620Y331600D02*
X992380Y331600D01*
X992380Y357000D02*
X1007620Y357000D01*
X747620Y179200D02*
X732380Y179200D01*
X732380Y204600D02*
X747620Y204600D01*
X747620Y230000D02*
X732380Y230000D01*
X732380Y255400D02*
X747620Y255400D01*
X747620Y280800D02*
X732380Y280800D01*
X732380Y306200D02*
X747620Y306200D01*
X747620Y331600D02*
X732380Y331600D01*
X732380Y357000D02*
X747620Y357000D01*
X487620Y251100D02*
X472380Y251100D01*
X472380Y276500D02*
X487620Y276500D01*
X487620Y301900D02*
X472380Y301900D01*
X472380Y327300D02*
X487620Y327300D01*
X487620Y352700D02*
X472380Y352700D01*
X472380Y378100D02*
X487620Y378100D01*
X487620Y403500D02*
X472380Y403500D01*
X472380Y428900D02*
X487620Y428900D01*
D16*
X508000Y520700D03*
X508000Y469900D03*
D17*
X390000Y235000D02*
X410000Y215000D01*
X390000Y235000D02*
X390000Y280000D01*
X388100Y284900D01*
X485950Y588650D02*
X505475Y608175D01*
X485950Y568150D02*
X520700Y533400D01*
X485950Y568150D02*
X485950Y588650D01*
X520700Y254000D02*
X470000Y215000D01*
X410000Y215000D01*
D16*
X410000Y215000D03*
X505475Y608175D03*
D17*
X520700Y533400D02*
X520700Y254000D01*
D18*
X445000Y695000D02*
X510000Y760000D01*
X445000Y695000D02*
X445000Y675000D01*
X510000Y760000D02*
X511810Y760730D01*
X445000Y675000D02*
X444500Y673100D01*
X300000Y490000D02*
X200475Y390475D01*
X300000Y490000D02*
X310000Y490000D01*
X311900Y488100D01*
D16*
X200475Y390475D03*
D17*
X315000Y590000D02*
X525000Y800000D01*
X955000Y800000D01*
X955000Y622775D01*
X1069975Y507800D01*
X315000Y590000D02*
X311900Y589700D01*
X1069975Y507800D02*
X1091900Y507800D01*
X735000Y595000D02*
X558650Y595000D01*
D16*
X558650Y595000D03*
X735000Y595000D03*
D17*
X570000Y505000D02*
X503413Y571588D01*
X502300Y570475D01*
X571900Y507800D02*
X570000Y505000D01*
D16*
X502300Y570475D03*
D17*
X645000Y190000D02*
X625000Y170000D01*
X645000Y190000D02*
X645000Y200000D01*
X648100Y203000D01*
D16*
X625000Y170000D03*
D17*
X473175Y326825D02*
X388100Y411900D01*
X479525Y326825D02*
X480000Y327300D01*
X479525Y326825D02*
X473175Y326825D01*
X366825Y566825D02*
X385000Y585000D01*
X366825Y566825D02*
X366825Y535000D01*
X376825Y526000D01*
X415000Y526000D01*
X415000Y410000D01*
X470000Y355000D01*
X480000Y355000D01*
X385000Y585000D02*
X388100Y589700D01*
X480000Y355000D02*
X480000Y352700D01*
X339600Y410000D02*
X315000Y410000D01*
X339600Y410000D02*
X339600Y592775D01*
X396825Y650000D01*
X514600Y650000D01*
X514600Y674600D01*
X560000Y720000D01*
X315000Y410000D02*
X311900Y411900D01*
X560000Y720000D02*
X560070Y722630D01*
X468250Y540000D02*
X390000Y540000D01*
X468250Y540000D02*
X468250Y587300D01*
X550950Y670000D02*
X570000Y670000D01*
X550950Y670000D02*
X468250Y587300D01*
X390000Y540000D02*
X388100Y538900D01*
D16*
X570000Y670000D03*
D17*
X648100Y533200D02*
X642200Y527300D01*
X608175Y527300D01*
D16*
X608175Y527300D03*
D17*
X885000Y540000D02*
X885000Y480000D01*
X900000Y465000D01*
X900000Y460000D01*
X905000Y455000D01*
X908100Y457000D01*
D16*
X885000Y540000D03*
D17*
X670000Y550950D02*
X669050Y550950D01*
X670000Y550950D02*
X670000Y467300D01*
X659700Y457000D01*
X648100Y457000D01*
D16*
X669050Y550950D03*
D17*
X908100Y203000D02*
X875000Y170000D01*
X846900Y170000D01*
D16*
X846900Y170000D03*
D17*
X595000Y253800D02*
X595000Y535950D01*
X568975Y561975D01*
X545730Y561975D01*
X545730Y627555D02*
X683175Y765000D01*
X763650Y765000D01*
X804650Y724000D02*
X906357Y724000D01*
X804650Y724000D02*
X763650Y765000D01*
X595000Y253800D02*
X571900Y253800D01*
X545730Y561975D02*
X545730Y627555D01*
X765000Y255000D02*
X830000Y255000D01*
X765000Y255000D02*
X765000Y685000D01*
X735000Y715000D01*
X735000Y720000D01*
X830000Y255000D02*
X831900Y253800D01*
X735000Y720000D02*
X733213Y724000D01*
X1115000Y690000D02*
X1115000Y253800D01*
X1115000Y690000D02*
X1080000Y725000D01*
X1091900Y253800D02*
X1115000Y253800D01*
X1079500Y723900D02*
X1080000Y725000D01*
X570000Y200000D02*
X365612Y200000D01*
X311900Y284900D01*
X570000Y200000D02*
X571900Y203000D01*
M02*
