G04 EAGLE Gerber RS-274X export*
G75*
%MOMM*%
%FSLAX34Y34*%
%LPD*%
%IN*%
%IPPOS*%
%AMOC8*
5,1,8,0,0,1.08239X$1,22.5*%
G01*
%ADD10C,0.254000*%


D10*
X0Y63500D02*
X1295200Y63500D01*
X1295200Y822200D01*
X0Y822200D01*
X0Y63500D01*
X625070Y759130D02*
X645070Y759130D01*
X645070Y779130D01*
X625070Y779130D01*
X625070Y759130D01*
X625070Y666130D02*
X645070Y666130D01*
X645070Y686130D01*
X625070Y686130D01*
X625070Y666130D01*
X1144500Y760400D02*
X1164500Y760400D01*
X1164500Y780400D01*
X1144500Y780400D01*
X1144500Y760400D01*
X1144500Y667400D02*
X1164500Y667400D01*
X1164500Y687400D01*
X1144500Y687400D01*
X1144500Y667400D01*
X798213Y760500D02*
X818213Y760500D01*
X818213Y780500D01*
X798213Y780500D01*
X798213Y760500D01*
X798213Y667500D02*
X818213Y667500D01*
X818213Y687500D01*
X798213Y687500D01*
X798213Y667500D01*
X971357Y760500D02*
X991357Y760500D01*
X991357Y780500D01*
X971357Y780500D01*
X971357Y760500D01*
X971357Y667500D02*
X991357Y667500D01*
X991357Y687500D01*
X971357Y687500D01*
X971357Y667500D01*
X68000Y772411D02*
X67923Y771235D01*
X67769Y770066D01*
X67539Y768910D01*
X67234Y767772D01*
X66855Y766656D01*
X66404Y765567D01*
X65883Y764510D01*
X65294Y763490D01*
X64639Y762510D01*
X63922Y761575D01*
X63145Y760689D01*
X62311Y759855D01*
X61425Y759078D01*
X60490Y758361D01*
X59510Y757706D01*
X58490Y757117D01*
X57433Y756596D01*
X56344Y756145D01*
X55228Y755766D01*
X54090Y755461D01*
X52934Y755231D01*
X51765Y755077D01*
X50589Y755000D01*
X49411Y755000D01*
X48235Y755077D01*
X47066Y755231D01*
X45910Y755461D01*
X44772Y755766D01*
X43656Y756145D01*
X42567Y756596D01*
X41510Y757117D01*
X40490Y757706D01*
X39510Y758361D01*
X38575Y759078D01*
X37689Y759855D01*
X36855Y760689D01*
X36078Y761575D01*
X35361Y762510D01*
X34706Y763490D01*
X34117Y764510D01*
X33596Y765567D01*
X33145Y766656D01*
X32766Y767772D01*
X32461Y768910D01*
X32231Y770066D01*
X32077Y771235D01*
X32000Y772411D01*
X32000Y773589D01*
X32077Y774765D01*
X32231Y775934D01*
X32461Y777090D01*
X32766Y778228D01*
X33145Y779344D01*
X33596Y780433D01*
X34117Y781490D01*
X34706Y782510D01*
X35361Y783490D01*
X36078Y784425D01*
X36855Y785311D01*
X37689Y786145D01*
X38575Y786922D01*
X39510Y787639D01*
X40490Y788294D01*
X41510Y788883D01*
X42567Y789404D01*
X43656Y789855D01*
X44772Y790234D01*
X45910Y790539D01*
X47066Y790769D01*
X48235Y790923D01*
X49411Y791000D01*
X50589Y791000D01*
X51765Y790923D01*
X52934Y790769D01*
X54090Y790539D01*
X55228Y790234D01*
X56344Y789855D01*
X57433Y789404D01*
X58490Y788883D01*
X59510Y788294D01*
X60490Y787639D01*
X61425Y786922D01*
X62311Y786145D01*
X63145Y785311D01*
X63922Y784425D01*
X64639Y783490D01*
X65294Y782510D01*
X65883Y781490D01*
X66404Y780433D01*
X66855Y779344D01*
X67234Y778228D01*
X67539Y777090D01*
X67769Y775934D01*
X67923Y774765D01*
X68000Y773589D01*
X68000Y772411D01*
X1232000Y110211D02*
X1232077Y109035D01*
X1232231Y107866D01*
X1232461Y106710D01*
X1232766Y105572D01*
X1233145Y104456D01*
X1233596Y103367D01*
X1234117Y102310D01*
X1234706Y101290D01*
X1235361Y100310D01*
X1236078Y99375D01*
X1236855Y98489D01*
X1237689Y97655D01*
X1238575Y96878D01*
X1239510Y96161D01*
X1240490Y95506D01*
X1241510Y94917D01*
X1242567Y94396D01*
X1243656Y93945D01*
X1244772Y93566D01*
X1245910Y93261D01*
X1247066Y93031D01*
X1248235Y92877D01*
X1249411Y92800D01*
X1250589Y92800D01*
X1251765Y92877D01*
X1252934Y93031D01*
X1254090Y93261D01*
X1255228Y93566D01*
X1256344Y93945D01*
X1257433Y94396D01*
X1258490Y94917D01*
X1259510Y95506D01*
X1260490Y96161D01*
X1261425Y96878D01*
X1262311Y97655D01*
X1263145Y98489D01*
X1263922Y99375D01*
X1264639Y100310D01*
X1265294Y101290D01*
X1265883Y102310D01*
X1266404Y103367D01*
X1266855Y104456D01*
X1267234Y105572D01*
X1267539Y106710D01*
X1267769Y107866D01*
X1267923Y109035D01*
X1268000Y110211D01*
X1268000Y111389D01*
X1267923Y112565D01*
X1267769Y113734D01*
X1267539Y114890D01*
X1267234Y116028D01*
X1266855Y117144D01*
X1266404Y118233D01*
X1265883Y119290D01*
X1265294Y120310D01*
X1264639Y121290D01*
X1263922Y122225D01*
X1263145Y123111D01*
X1262311Y123945D01*
X1261425Y124722D01*
X1260490Y125439D01*
X1259510Y126094D01*
X1258490Y126683D01*
X1257433Y127204D01*
X1256344Y127655D01*
X1255228Y128034D01*
X1254090Y128339D01*
X1252934Y128569D01*
X1251765Y128723D01*
X1250589Y128800D01*
X1249411Y128800D01*
X1248235Y128723D01*
X1247066Y128569D01*
X1245910Y128339D01*
X1244772Y128034D01*
X1243656Y127655D01*
X1242567Y127204D01*
X1241510Y126683D01*
X1240490Y126094D01*
X1239510Y125439D01*
X1238575Y124722D01*
X1237689Y123945D01*
X1236855Y123111D01*
X1236078Y122225D01*
X1235361Y121290D01*
X1234706Y120310D01*
X1234117Y119290D01*
X1233596Y118233D01*
X1233145Y117144D01*
X1232766Y116028D01*
X1232461Y114890D01*
X1232231Y113734D01*
X1232077Y112565D01*
X1232000Y111389D01*
X1232000Y110211D01*
X1268000Y772411D02*
X1267923Y771235D01*
X1267769Y770066D01*
X1267539Y768910D01*
X1267234Y767772D01*
X1266855Y766656D01*
X1266404Y765567D01*
X1265883Y764510D01*
X1265294Y763490D01*
X1264639Y762510D01*
X1263922Y761575D01*
X1263145Y760689D01*
X1262311Y759855D01*
X1261425Y759078D01*
X1260490Y758361D01*
X1259510Y757706D01*
X1258490Y757117D01*
X1257433Y756596D01*
X1256344Y756145D01*
X1255228Y755766D01*
X1254090Y755461D01*
X1252934Y755231D01*
X1251765Y755077D01*
X1250589Y755000D01*
X1249411Y755000D01*
X1248235Y755077D01*
X1247066Y755231D01*
X1245910Y755461D01*
X1244772Y755766D01*
X1243656Y756145D01*
X1242567Y756596D01*
X1241510Y757117D01*
X1240490Y757706D01*
X1239510Y758361D01*
X1238575Y759078D01*
X1237689Y759855D01*
X1236855Y760689D01*
X1236078Y761575D01*
X1235361Y762510D01*
X1234706Y763490D01*
X1234117Y764510D01*
X1233596Y765567D01*
X1233145Y766656D01*
X1232766Y767772D01*
X1232461Y768910D01*
X1232231Y770066D01*
X1232077Y771235D01*
X1232000Y772411D01*
X1232000Y773589D01*
X1232077Y774765D01*
X1232231Y775934D01*
X1232461Y777090D01*
X1232766Y778228D01*
X1233145Y779344D01*
X1233596Y780433D01*
X1234117Y781490D01*
X1234706Y782510D01*
X1235361Y783490D01*
X1236078Y784425D01*
X1236855Y785311D01*
X1237689Y786145D01*
X1238575Y786922D01*
X1239510Y787639D01*
X1240490Y788294D01*
X1241510Y788883D01*
X1242567Y789404D01*
X1243656Y789855D01*
X1244772Y790234D01*
X1245910Y790539D01*
X1247066Y790769D01*
X1248235Y790923D01*
X1249411Y791000D01*
X1250589Y791000D01*
X1251765Y790923D01*
X1252934Y790769D01*
X1254090Y790539D01*
X1255228Y790234D01*
X1256344Y789855D01*
X1257433Y789404D01*
X1258490Y788883D01*
X1259510Y788294D01*
X1260490Y787639D01*
X1261425Y786922D01*
X1262311Y786145D01*
X1263145Y785311D01*
X1263922Y784425D01*
X1264639Y783490D01*
X1265294Y782510D01*
X1265883Y781490D01*
X1266404Y780433D01*
X1266855Y779344D01*
X1267234Y778228D01*
X1267539Y777090D01*
X1267769Y775934D01*
X1267923Y774765D01*
X1268000Y773589D01*
X1268000Y772411D01*
X68000Y110211D02*
X67923Y109035D01*
X67769Y107866D01*
X67539Y106710D01*
X67234Y105572D01*
X66855Y104456D01*
X66404Y103367D01*
X65883Y102310D01*
X65294Y101290D01*
X64639Y100310D01*
X63922Y99375D01*
X63145Y98489D01*
X62311Y97655D01*
X61425Y96878D01*
X60490Y96161D01*
X59510Y95506D01*
X58490Y94917D01*
X57433Y94396D01*
X56344Y93945D01*
X55228Y93566D01*
X54090Y93261D01*
X52934Y93031D01*
X51765Y92877D01*
X50589Y92800D01*
X49411Y92800D01*
X48235Y92877D01*
X47066Y93031D01*
X45910Y93261D01*
X44772Y93566D01*
X43656Y93945D01*
X42567Y94396D01*
X41510Y94917D01*
X40490Y95506D01*
X39510Y96161D01*
X38575Y96878D01*
X37689Y97655D01*
X36855Y98489D01*
X36078Y99375D01*
X35361Y100310D01*
X34706Y101290D01*
X34117Y102310D01*
X33596Y103367D01*
X33145Y104456D01*
X32766Y105572D01*
X32461Y106710D01*
X32231Y107866D01*
X32077Y109035D01*
X32000Y110211D01*
X32000Y111389D01*
X32077Y112565D01*
X32231Y113734D01*
X32461Y114890D01*
X32766Y116028D01*
X33145Y117144D01*
X33596Y118233D01*
X34117Y119290D01*
X34706Y120310D01*
X35361Y121290D01*
X36078Y122225D01*
X36855Y123111D01*
X37689Y123945D01*
X38575Y124722D01*
X39510Y125439D01*
X40490Y126094D01*
X41510Y126683D01*
X42567Y127204D01*
X43656Y127655D01*
X44772Y128034D01*
X45910Y128339D01*
X47066Y128569D01*
X48235Y128723D01*
X49411Y128800D01*
X50589Y128800D01*
X51765Y128723D01*
X52934Y128569D01*
X54090Y128339D01*
X55228Y128034D01*
X56344Y127655D01*
X57433Y127204D01*
X58490Y126683D01*
X59510Y126094D01*
X60490Y125439D01*
X61425Y124722D01*
X62311Y123945D01*
X63145Y123111D01*
X63922Y122225D01*
X64639Y121290D01*
X65294Y120310D01*
X65883Y119290D01*
X66404Y118233D01*
X66855Y117144D01*
X67234Y116028D01*
X67539Y114890D01*
X67769Y113734D01*
X67923Y112565D01*
X68000Y111389D01*
X68000Y110211D01*
M02*
