G04 EAGLE Gerber RS-274X export*
G75*
%MOMM*%
%FSLAX34Y34*%
%LPD*%
%INSoldermask Bottom*%
%IPPOS*%
%AMOC8*
5,1,8,0,0,1.08239X$1,22.5*%
G01*
%ADD10C,1.727200*%
%ADD11R,1.853200X1.853200*%
%ADD12C,1.853200*%
%ADD13C,1.524000*%
%ADD14R,1.600200X1.600200*%
%ADD15C,1.711200*%
%ADD16C,3.803200*%
%ADD17C,0.959600*%


D10*
X444500Y665480D02*
X444500Y680720D01*
X469900Y680720D02*
X469900Y665480D01*
X495300Y665480D02*
X495300Y680720D01*
D11*
X511810Y760730D03*
D12*
X461010Y760730D03*
D13*
X394704Y284900D02*
X381496Y284900D01*
X381496Y310300D02*
X394704Y310300D01*
X394704Y437300D02*
X381496Y437300D01*
X381496Y462700D02*
X394704Y462700D01*
X394704Y335700D02*
X381496Y335700D01*
X381496Y361100D02*
X394704Y361100D01*
X394704Y411900D02*
X381496Y411900D01*
X381496Y386500D02*
X394704Y386500D01*
X394704Y488100D02*
X381496Y488100D01*
X381496Y513500D02*
X394704Y513500D01*
X394704Y538900D02*
X381496Y538900D01*
X381496Y564300D02*
X394704Y564300D01*
X394704Y589700D02*
X381496Y589700D01*
X381496Y615100D02*
X394704Y615100D01*
X318504Y615100D02*
X305296Y615100D01*
X305296Y589700D02*
X318504Y589700D01*
X318504Y564300D02*
X305296Y564300D01*
X305296Y538900D02*
X318504Y538900D01*
X318504Y513500D02*
X305296Y513500D01*
X305296Y488100D02*
X318504Y488100D01*
X318504Y462700D02*
X305296Y462700D01*
X305296Y437300D02*
X318504Y437300D01*
X318504Y411900D02*
X305296Y411900D01*
X305296Y386500D02*
X318504Y386500D01*
X318504Y361100D02*
X305296Y361100D01*
X305296Y335700D02*
X318504Y335700D01*
X318504Y310300D02*
X305296Y310300D01*
X305296Y284900D02*
X318504Y284900D01*
X1161496Y203000D02*
X1174704Y203000D01*
X1174704Y228400D02*
X1161496Y228400D01*
X1161496Y355400D02*
X1174704Y355400D01*
X1174704Y380800D02*
X1161496Y380800D01*
X1161496Y253800D02*
X1174704Y253800D01*
X1174704Y279200D02*
X1161496Y279200D01*
X1161496Y330000D02*
X1174704Y330000D01*
X1174704Y304600D02*
X1161496Y304600D01*
X1161496Y406200D02*
X1174704Y406200D01*
X1174704Y431600D02*
X1161496Y431600D01*
X1161496Y457000D02*
X1174704Y457000D01*
X1174704Y482400D02*
X1161496Y482400D01*
X1161496Y507800D02*
X1174704Y507800D01*
X1174704Y533200D02*
X1161496Y533200D01*
X1098504Y533200D02*
X1085296Y533200D01*
X1085296Y507800D02*
X1098504Y507800D01*
X1098504Y482400D02*
X1085296Y482400D01*
X1085296Y457000D02*
X1098504Y457000D01*
X1098504Y431600D02*
X1085296Y431600D01*
X1085296Y406200D02*
X1098504Y406200D01*
X1098504Y380800D02*
X1085296Y380800D01*
X1085296Y355400D02*
X1098504Y355400D01*
X1098504Y330000D02*
X1085296Y330000D01*
X1085296Y304600D02*
X1098504Y304600D01*
X1098504Y279200D02*
X1085296Y279200D01*
X1085296Y253800D02*
X1098504Y253800D01*
X1098504Y228400D02*
X1085296Y228400D01*
X1085296Y203000D02*
X1098504Y203000D01*
D14*
X434000Y470600D03*
X434000Y519400D03*
X1214000Y388700D03*
X1214000Y437500D03*
D13*
X914704Y203000D02*
X901496Y203000D01*
X901496Y228400D02*
X914704Y228400D01*
X914704Y355400D02*
X901496Y355400D01*
X901496Y380800D02*
X914704Y380800D01*
X914704Y253800D02*
X901496Y253800D01*
X901496Y279200D02*
X914704Y279200D01*
X914704Y330000D02*
X901496Y330000D01*
X901496Y304600D02*
X914704Y304600D01*
X914704Y406200D02*
X901496Y406200D01*
X901496Y431600D02*
X914704Y431600D01*
X914704Y457000D02*
X901496Y457000D01*
X901496Y482400D02*
X914704Y482400D01*
X914704Y507800D02*
X901496Y507800D01*
X901496Y533200D02*
X914704Y533200D01*
X838504Y533200D02*
X825296Y533200D01*
X825296Y507800D02*
X838504Y507800D01*
X838504Y482400D02*
X825296Y482400D01*
X825296Y457000D02*
X838504Y457000D01*
X838504Y431600D02*
X825296Y431600D01*
X825296Y406200D02*
X838504Y406200D01*
X838504Y380800D02*
X825296Y380800D01*
X825296Y355400D02*
X838504Y355400D01*
X838504Y330000D02*
X825296Y330000D01*
X825296Y304600D02*
X838504Y304600D01*
X838504Y279200D02*
X825296Y279200D01*
X825296Y253800D02*
X838504Y253800D01*
X838504Y228400D02*
X825296Y228400D01*
X825296Y203000D02*
X838504Y203000D01*
D14*
X954000Y388700D03*
X954000Y437500D03*
D13*
X654704Y203000D02*
X641496Y203000D01*
X641496Y228400D02*
X654704Y228400D01*
X654704Y355400D02*
X641496Y355400D01*
X641496Y380800D02*
X654704Y380800D01*
X654704Y253800D02*
X641496Y253800D01*
X641496Y279200D02*
X654704Y279200D01*
X654704Y330000D02*
X641496Y330000D01*
X641496Y304600D02*
X654704Y304600D01*
X654704Y406200D02*
X641496Y406200D01*
X641496Y431600D02*
X654704Y431600D01*
X654704Y457000D02*
X641496Y457000D01*
X641496Y482400D02*
X654704Y482400D01*
X654704Y507800D02*
X641496Y507800D01*
X641496Y533200D02*
X654704Y533200D01*
X578504Y533200D02*
X565296Y533200D01*
X565296Y507800D02*
X578504Y507800D01*
X578504Y482400D02*
X565296Y482400D01*
X565296Y457000D02*
X578504Y457000D01*
X578504Y431600D02*
X565296Y431600D01*
X565296Y406200D02*
X578504Y406200D01*
X578504Y380800D02*
X565296Y380800D01*
X565296Y355400D02*
X578504Y355400D01*
X578504Y330000D02*
X565296Y330000D01*
X565296Y304600D02*
X578504Y304600D01*
X578504Y279200D02*
X565296Y279200D01*
X565296Y253800D02*
X578504Y253800D01*
X578504Y228400D02*
X565296Y228400D01*
X565296Y203000D02*
X578504Y203000D01*
D14*
X694000Y388700D03*
X694000Y437500D03*
D15*
X560070Y697630D03*
X560070Y722630D03*
X560070Y747630D03*
X1079500Y698900D03*
X1079500Y723900D03*
X1079500Y748900D03*
X733213Y699000D03*
X733213Y724000D03*
X733213Y749000D03*
X906357Y699000D03*
X906357Y724000D03*
X906357Y749000D03*
D10*
X1249680Y165100D02*
X1264920Y165100D01*
X1264920Y190500D02*
X1249680Y190500D01*
X1249680Y215900D02*
X1264920Y215900D01*
X1264920Y241300D02*
X1249680Y241300D01*
X1249680Y266700D02*
X1264920Y266700D01*
X1264920Y292100D02*
X1249680Y292100D01*
X1249680Y317500D02*
X1264920Y317500D01*
X1264920Y342900D02*
X1249680Y342900D01*
X1007620Y179200D02*
X992380Y179200D01*
X992380Y204600D02*
X1007620Y204600D01*
X1007620Y230000D02*
X992380Y230000D01*
X992380Y255400D02*
X1007620Y255400D01*
X1007620Y280800D02*
X992380Y280800D01*
X992380Y306200D02*
X1007620Y306200D01*
X1007620Y331600D02*
X992380Y331600D01*
X992380Y357000D02*
X1007620Y357000D01*
X747620Y179200D02*
X732380Y179200D01*
X732380Y204600D02*
X747620Y204600D01*
X747620Y230000D02*
X732380Y230000D01*
X732380Y255400D02*
X747620Y255400D01*
X747620Y280800D02*
X732380Y280800D01*
X732380Y306200D02*
X747620Y306200D01*
X747620Y331600D02*
X732380Y331600D01*
X732380Y357000D02*
X747620Y357000D01*
X487620Y251100D02*
X472380Y251100D01*
X472380Y276500D02*
X487620Y276500D01*
X487620Y301900D02*
X472380Y301900D01*
X472380Y327300D02*
X487620Y327300D01*
X487620Y352700D02*
X472380Y352700D01*
X472380Y378100D02*
X487620Y378100D01*
X487620Y403500D02*
X472380Y403500D01*
X472380Y428900D02*
X487620Y428900D01*
D16*
X50000Y773000D03*
X1250000Y110800D03*
X1250000Y773000D03*
X50000Y110800D03*
D17*
X508000Y520700D03*
X508000Y469900D03*
X410000Y215000D03*
X505475Y608175D03*
X200475Y390475D03*
X558650Y595000D03*
X735000Y595000D03*
X502300Y570475D03*
X625000Y170000D03*
X570000Y670000D03*
X608175Y527300D03*
X885000Y540000D03*
X669050Y550950D03*
X846900Y170000D03*
M02*
