G04 EAGLE Gerber RS-274X export*
G75*
%MOMM*%
%FSLAX34Y34*%
%LPD*%
%INSoldermask Top*%
%IPPOS*%
%AMOC8*
5,1,8,0,0,1.08239X$1,22.5*%
G01*
%ADD10R,1.503200X1.703200*%
%ADD11R,1.703200X1.503200*%
%ADD12C,1.727200*%
%ADD13R,1.403200X1.403200*%
%ADD14R,1.853200X1.853200*%
%ADD15C,1.853200*%
%ADD16R,1.503200X1.803200*%
%ADD17R,1.803200X1.503200*%
%ADD18C,1.524000*%
%ADD19R,1.600200X1.600200*%
%ADD20C,1.711200*%
%ADD21R,2.303200X1.603200*%
%ADD22R,1.503200X1.303200*%
%ADD23R,2.203200X0.833200*%
%ADD24R,1.303200X1.503200*%
%ADD25R,0.833200X2.203200*%
%ADD26C,3.803200*%
%ADD27C,0.959600*%


D10*
X470500Y520000D03*
X489500Y520000D03*
X536600Y635000D03*
X555600Y635000D03*
D11*
X393700Y695300D03*
X393700Y676300D03*
D10*
X470500Y470000D03*
X489500Y470000D03*
X1250500Y438100D03*
X1269500Y438100D03*
X1250500Y388100D03*
X1269500Y388100D03*
D12*
X444500Y665480D02*
X444500Y680720D01*
X469900Y680720D02*
X469900Y665480D01*
X495300Y665480D02*
X495300Y680720D01*
D13*
X368300Y751500D03*
X368300Y772500D03*
D14*
X511810Y760730D03*
D15*
X461010Y760730D03*
D16*
X428600Y165100D03*
X409600Y165100D03*
D11*
X406400Y752500D03*
X406400Y771500D03*
D17*
X1130000Y148600D03*
X1130000Y167600D03*
D18*
X394704Y284900D02*
X381496Y284900D01*
X381496Y310300D02*
X394704Y310300D01*
X394704Y437300D02*
X381496Y437300D01*
X381496Y462700D02*
X394704Y462700D01*
X394704Y335700D02*
X381496Y335700D01*
X381496Y361100D02*
X394704Y361100D01*
X394704Y411900D02*
X381496Y411900D01*
X381496Y386500D02*
X394704Y386500D01*
X394704Y488100D02*
X381496Y488100D01*
X381496Y513500D02*
X394704Y513500D01*
X394704Y538900D02*
X381496Y538900D01*
X381496Y564300D02*
X394704Y564300D01*
X394704Y589700D02*
X381496Y589700D01*
X381496Y615100D02*
X394704Y615100D01*
X318504Y615100D02*
X305296Y615100D01*
X305296Y589700D02*
X318504Y589700D01*
X318504Y564300D02*
X305296Y564300D01*
X305296Y538900D02*
X318504Y538900D01*
X318504Y513500D02*
X305296Y513500D01*
X305296Y488100D02*
X318504Y488100D01*
X318504Y462700D02*
X305296Y462700D01*
X305296Y437300D02*
X318504Y437300D01*
X318504Y411900D02*
X305296Y411900D01*
X305296Y386500D02*
X318504Y386500D01*
X318504Y361100D02*
X305296Y361100D01*
X305296Y335700D02*
X318504Y335700D01*
X318504Y310300D02*
X305296Y310300D01*
X305296Y284900D02*
X318504Y284900D01*
X1161496Y203000D02*
X1174704Y203000D01*
X1174704Y228400D02*
X1161496Y228400D01*
X1161496Y355400D02*
X1174704Y355400D01*
X1174704Y380800D02*
X1161496Y380800D01*
X1161496Y253800D02*
X1174704Y253800D01*
X1174704Y279200D02*
X1161496Y279200D01*
X1161496Y330000D02*
X1174704Y330000D01*
X1174704Y304600D02*
X1161496Y304600D01*
X1161496Y406200D02*
X1174704Y406200D01*
X1174704Y431600D02*
X1161496Y431600D01*
X1161496Y457000D02*
X1174704Y457000D01*
X1174704Y482400D02*
X1161496Y482400D01*
X1161496Y507800D02*
X1174704Y507800D01*
X1174704Y533200D02*
X1161496Y533200D01*
X1098504Y533200D02*
X1085296Y533200D01*
X1085296Y507800D02*
X1098504Y507800D01*
X1098504Y482400D02*
X1085296Y482400D01*
X1085296Y457000D02*
X1098504Y457000D01*
X1098504Y431600D02*
X1085296Y431600D01*
X1085296Y406200D02*
X1098504Y406200D01*
X1098504Y380800D02*
X1085296Y380800D01*
X1085296Y355400D02*
X1098504Y355400D01*
X1098504Y330000D02*
X1085296Y330000D01*
X1085296Y304600D02*
X1098504Y304600D01*
X1098504Y279200D02*
X1085296Y279200D01*
X1085296Y253800D02*
X1098504Y253800D01*
X1098504Y228400D02*
X1085296Y228400D01*
X1085296Y203000D02*
X1098504Y203000D01*
D19*
X434000Y470600D03*
X434000Y519400D03*
X1214000Y388700D03*
X1214000Y437500D03*
D18*
X914704Y203000D02*
X901496Y203000D01*
X901496Y228400D02*
X914704Y228400D01*
X914704Y355400D02*
X901496Y355400D01*
X901496Y380800D02*
X914704Y380800D01*
X914704Y253800D02*
X901496Y253800D01*
X901496Y279200D02*
X914704Y279200D01*
X914704Y330000D02*
X901496Y330000D01*
X901496Y304600D02*
X914704Y304600D01*
X914704Y406200D02*
X901496Y406200D01*
X901496Y431600D02*
X914704Y431600D01*
X914704Y457000D02*
X901496Y457000D01*
X901496Y482400D02*
X914704Y482400D01*
X914704Y507800D02*
X901496Y507800D01*
X901496Y533200D02*
X914704Y533200D01*
X838504Y533200D02*
X825296Y533200D01*
X825296Y507800D02*
X838504Y507800D01*
X838504Y482400D02*
X825296Y482400D01*
X825296Y457000D02*
X838504Y457000D01*
X838504Y431600D02*
X825296Y431600D01*
X825296Y406200D02*
X838504Y406200D01*
X838504Y380800D02*
X825296Y380800D01*
X825296Y355400D02*
X838504Y355400D01*
X838504Y330000D02*
X825296Y330000D01*
X825296Y304600D02*
X838504Y304600D01*
X838504Y279200D02*
X825296Y279200D01*
X825296Y253800D02*
X838504Y253800D01*
X838504Y228400D02*
X825296Y228400D01*
X825296Y203000D02*
X838504Y203000D01*
D17*
X870000Y148600D03*
X870000Y167600D03*
D19*
X954000Y388700D03*
X954000Y437500D03*
D10*
X990500Y438100D03*
X1009500Y438100D03*
X990500Y388100D03*
X1009500Y388100D03*
D18*
X654704Y203000D02*
X641496Y203000D01*
X641496Y228400D02*
X654704Y228400D01*
X654704Y355400D02*
X641496Y355400D01*
X641496Y380800D02*
X654704Y380800D01*
X654704Y253800D02*
X641496Y253800D01*
X641496Y279200D02*
X654704Y279200D01*
X654704Y330000D02*
X641496Y330000D01*
X641496Y304600D02*
X654704Y304600D01*
X654704Y406200D02*
X641496Y406200D01*
X641496Y431600D02*
X654704Y431600D01*
X654704Y457000D02*
X641496Y457000D01*
X641496Y482400D02*
X654704Y482400D01*
X654704Y507800D02*
X641496Y507800D01*
X641496Y533200D02*
X654704Y533200D01*
X578504Y533200D02*
X565296Y533200D01*
X565296Y507800D02*
X578504Y507800D01*
X578504Y482400D02*
X565296Y482400D01*
X565296Y457000D02*
X578504Y457000D01*
X578504Y431600D02*
X565296Y431600D01*
X565296Y406200D02*
X578504Y406200D01*
X578504Y380800D02*
X565296Y380800D01*
X565296Y355400D02*
X578504Y355400D01*
X578504Y330000D02*
X565296Y330000D01*
X565296Y304600D02*
X578504Y304600D01*
X578504Y279200D02*
X565296Y279200D01*
X565296Y253800D02*
X578504Y253800D01*
X578504Y228400D02*
X565296Y228400D01*
X565296Y203000D02*
X578504Y203000D01*
D17*
X610000Y148600D03*
X610000Y167600D03*
D19*
X694000Y388700D03*
X694000Y437500D03*
D10*
X730500Y438100D03*
X749500Y438100D03*
X730500Y388100D03*
X749500Y388100D03*
D20*
X560070Y697630D03*
X560070Y722630D03*
X560070Y747630D03*
D17*
X1143000Y574700D03*
X1143000Y593700D03*
D13*
X1143000Y645500D03*
X1143000Y624500D03*
D17*
X889000Y569620D03*
X889000Y588620D03*
D13*
X889000Y640420D03*
X889000Y619420D03*
D17*
X633730Y572160D03*
X633730Y591160D03*
D13*
X633730Y642960D03*
X633730Y621960D03*
D17*
X1117600Y574700D03*
X1117600Y593700D03*
D13*
X1117600Y645500D03*
X1117600Y624500D03*
D17*
X863600Y569620D03*
X863600Y588620D03*
D13*
X863600Y640420D03*
X863600Y619420D03*
D17*
X608330Y572160D03*
X608330Y591160D03*
D13*
X608330Y642960D03*
X608330Y621960D03*
D17*
X838200Y569620D03*
X838200Y588620D03*
D13*
X838200Y640420D03*
X838200Y619420D03*
D17*
X582930Y572160D03*
X582930Y591160D03*
D13*
X582930Y642960D03*
X582930Y621960D03*
D20*
X1079500Y698900D03*
X1079500Y723900D03*
X1079500Y748900D03*
X733213Y699000D03*
X733213Y724000D03*
X733213Y749000D03*
X906357Y699000D03*
X906357Y724000D03*
X906357Y749000D03*
D10*
X460400Y165100D03*
X479400Y165100D03*
X460400Y190500D03*
X479400Y190500D03*
D21*
X531910Y565510D03*
X440910Y565510D03*
X531910Y610510D03*
X440910Y610510D03*
D22*
X28700Y177800D03*
X28700Y203200D03*
X28700Y228600D03*
X28700Y254000D03*
X28700Y279400D03*
X28700Y304800D03*
X28700Y330200D03*
X28700Y355600D03*
X123700Y177800D03*
X123700Y355600D03*
D23*
X170180Y342900D03*
X170180Y330200D03*
X170180Y317500D03*
X170180Y304800D03*
X170180Y292100D03*
X170180Y279400D03*
X170180Y266700D03*
X170180Y254000D03*
X239180Y254000D03*
X239180Y266700D03*
X239180Y279400D03*
X239180Y292100D03*
X239180Y304800D03*
X239180Y317500D03*
X239180Y330200D03*
X239180Y342900D03*
D12*
X1249680Y165100D02*
X1264920Y165100D01*
X1264920Y190500D02*
X1249680Y190500D01*
X1249680Y215900D02*
X1264920Y215900D01*
X1264920Y241300D02*
X1249680Y241300D01*
X1249680Y266700D02*
X1264920Y266700D01*
X1264920Y292100D02*
X1249680Y292100D01*
X1249680Y317500D02*
X1264920Y317500D01*
X1264920Y342900D02*
X1249680Y342900D01*
X1007620Y179200D02*
X992380Y179200D01*
X992380Y204600D02*
X1007620Y204600D01*
X1007620Y230000D02*
X992380Y230000D01*
X992380Y255400D02*
X1007620Y255400D01*
X1007620Y280800D02*
X992380Y280800D01*
X992380Y306200D02*
X1007620Y306200D01*
X1007620Y331600D02*
X992380Y331600D01*
X992380Y357000D02*
X1007620Y357000D01*
X747620Y179200D02*
X732380Y179200D01*
X732380Y204600D02*
X747620Y204600D01*
X747620Y230000D02*
X732380Y230000D01*
X732380Y255400D02*
X747620Y255400D01*
X747620Y280800D02*
X732380Y280800D01*
X732380Y306200D02*
X747620Y306200D01*
X747620Y331600D02*
X732380Y331600D01*
X732380Y357000D02*
X747620Y357000D01*
X487620Y251100D02*
X472380Y251100D01*
X472380Y276500D02*
X487620Y276500D01*
X487620Y301900D02*
X472380Y301900D01*
X472380Y327300D02*
X487620Y327300D01*
X487620Y352700D02*
X472380Y352700D01*
X472380Y378100D02*
X487620Y378100D01*
X487620Y403500D02*
X472380Y403500D01*
X472380Y428900D02*
X487620Y428900D01*
D22*
X28700Y419100D03*
X28700Y444500D03*
X28700Y469900D03*
X28700Y495300D03*
X28700Y520700D03*
X28700Y546100D03*
X28700Y571500D03*
X28700Y596900D03*
X123700Y419100D03*
X123700Y596900D03*
D23*
X170180Y520700D03*
X170180Y508000D03*
X170180Y495300D03*
X170180Y482600D03*
X170180Y469900D03*
X170180Y457200D03*
X170180Y444500D03*
X170180Y431800D03*
X239180Y431800D03*
X239180Y444500D03*
X239180Y457200D03*
X239180Y469900D03*
X239180Y482600D03*
X239180Y495300D03*
X239180Y508000D03*
X239180Y520700D03*
D24*
X127000Y771400D03*
X152400Y771400D03*
X177800Y771400D03*
X203200Y771400D03*
X228600Y771400D03*
X254000Y771400D03*
X279400Y771400D03*
X304800Y771400D03*
X127000Y676400D03*
X304800Y676400D03*
D25*
X266700Y629920D03*
X254000Y629920D03*
X241300Y629920D03*
X228600Y629920D03*
X215900Y629920D03*
X203200Y629920D03*
X190500Y629920D03*
X177800Y629920D03*
X177800Y560920D03*
X190500Y560920D03*
X203200Y560920D03*
X215900Y560920D03*
X228600Y560920D03*
X241300Y560920D03*
X254000Y560920D03*
X266700Y560920D03*
D11*
X273650Y481200D03*
X273650Y462200D03*
X950000Y337600D03*
X950000Y318600D03*
X1210000Y337600D03*
X1210000Y318600D03*
X690000Y337600D03*
X690000Y318600D03*
X1060000Y405600D03*
X1060000Y386600D03*
X430000Y419500D03*
X430000Y400500D03*
X800000Y405600D03*
X800000Y386600D03*
X540000Y405600D03*
X540000Y386600D03*
D21*
X299500Y168000D03*
X208500Y168000D03*
X299500Y213000D03*
X208500Y213000D03*
D26*
X50000Y773000D03*
X1250000Y110800D03*
X1250000Y773000D03*
X50000Y110800D03*
D27*
X508000Y520700D03*
X508000Y469900D03*
X410000Y215000D03*
X505475Y608175D03*
X200475Y390475D03*
X558650Y595000D03*
X735000Y595000D03*
X502300Y570475D03*
X625000Y170000D03*
X570000Y670000D03*
X608175Y527300D03*
X885000Y540000D03*
X669050Y550950D03*
X846900Y170000D03*
M02*
