G04 EAGLE Gerber RS-274X export*
G75*
%MOMM*%
%FSLAX34Y34*%
%LPD*%
%INSolderpaste Top*%
%IPPOS*%
%AMOC8*
5,1,8,0,0,1.08239X$1,22.5*%
G01*
%ADD10R,1.300000X1.500000*%
%ADD11R,1.500000X1.300000*%
%ADD12R,1.200000X1.200000*%
%ADD13R,1.300000X1.600000*%
%ADD14R,1.600000X1.300000*%
%ADD15R,2.100000X1.400000*%
%ADD16R,1.300000X1.100000*%
%ADD17R,2.000000X0.630000*%
%ADD18R,1.100000X1.300000*%
%ADD19R,0.630000X2.000000*%


D10*
X470500Y520000D03*
X489500Y520000D03*
X536600Y635000D03*
X555600Y635000D03*
D11*
X393700Y695300D03*
X393700Y676300D03*
D10*
X470500Y470000D03*
X489500Y470000D03*
X1250500Y438100D03*
X1269500Y438100D03*
X1250500Y388100D03*
X1269500Y388100D03*
D12*
X368300Y751500D03*
X368300Y772500D03*
D13*
X428600Y165100D03*
X409600Y165100D03*
D11*
X406400Y752500D03*
X406400Y771500D03*
D14*
X1130000Y148600D03*
X1130000Y167600D03*
X870000Y148600D03*
X870000Y167600D03*
D10*
X990500Y438100D03*
X1009500Y438100D03*
X990500Y388100D03*
X1009500Y388100D03*
D14*
X610000Y148600D03*
X610000Y167600D03*
D10*
X730500Y438100D03*
X749500Y438100D03*
X730500Y388100D03*
X749500Y388100D03*
D14*
X1143000Y574700D03*
X1143000Y593700D03*
D12*
X1143000Y645500D03*
X1143000Y624500D03*
D14*
X889000Y569620D03*
X889000Y588620D03*
D12*
X889000Y640420D03*
X889000Y619420D03*
D14*
X633730Y572160D03*
X633730Y591160D03*
D12*
X633730Y642960D03*
X633730Y621960D03*
D14*
X1117600Y574700D03*
X1117600Y593700D03*
D12*
X1117600Y645500D03*
X1117600Y624500D03*
D14*
X863600Y569620D03*
X863600Y588620D03*
D12*
X863600Y640420D03*
X863600Y619420D03*
D14*
X608330Y572160D03*
X608330Y591160D03*
D12*
X608330Y642960D03*
X608330Y621960D03*
D14*
X838200Y569620D03*
X838200Y588620D03*
D12*
X838200Y640420D03*
X838200Y619420D03*
D14*
X582930Y572160D03*
X582930Y591160D03*
D12*
X582930Y642960D03*
X582930Y621960D03*
D10*
X460400Y165100D03*
X479400Y165100D03*
X460400Y190500D03*
X479400Y190500D03*
D15*
X531910Y565510D03*
X440910Y565510D03*
X531910Y610510D03*
X440910Y610510D03*
D16*
X28700Y177800D03*
X28700Y203200D03*
X28700Y228600D03*
X28700Y254000D03*
X28700Y279400D03*
X28700Y304800D03*
X28700Y330200D03*
X28700Y355600D03*
X123700Y177800D03*
X123700Y355600D03*
D17*
X170180Y342900D03*
X170180Y330200D03*
X170180Y317500D03*
X170180Y304800D03*
X170180Y292100D03*
X170180Y279400D03*
X170180Y266700D03*
X170180Y254000D03*
X239180Y254000D03*
X239180Y266700D03*
X239180Y279400D03*
X239180Y292100D03*
X239180Y304800D03*
X239180Y317500D03*
X239180Y330200D03*
X239180Y342900D03*
D16*
X28700Y419100D03*
X28700Y444500D03*
X28700Y469900D03*
X28700Y495300D03*
X28700Y520700D03*
X28700Y546100D03*
X28700Y571500D03*
X28700Y596900D03*
X123700Y419100D03*
X123700Y596900D03*
D17*
X170180Y520700D03*
X170180Y508000D03*
X170180Y495300D03*
X170180Y482600D03*
X170180Y469900D03*
X170180Y457200D03*
X170180Y444500D03*
X170180Y431800D03*
X239180Y431800D03*
X239180Y444500D03*
X239180Y457200D03*
X239180Y469900D03*
X239180Y482600D03*
X239180Y495300D03*
X239180Y508000D03*
X239180Y520700D03*
D18*
X127000Y771400D03*
X152400Y771400D03*
X177800Y771400D03*
X203200Y771400D03*
X228600Y771400D03*
X254000Y771400D03*
X279400Y771400D03*
X304800Y771400D03*
X127000Y676400D03*
X304800Y676400D03*
D19*
X266700Y629920D03*
X254000Y629920D03*
X241300Y629920D03*
X228600Y629920D03*
X215900Y629920D03*
X203200Y629920D03*
X190500Y629920D03*
X177800Y629920D03*
X177800Y560920D03*
X190500Y560920D03*
X203200Y560920D03*
X215900Y560920D03*
X228600Y560920D03*
X241300Y560920D03*
X254000Y560920D03*
X266700Y560920D03*
D11*
X273650Y481200D03*
X273650Y462200D03*
X950000Y337600D03*
X950000Y318600D03*
X1210000Y337600D03*
X1210000Y318600D03*
X690000Y337600D03*
X690000Y318600D03*
X1060000Y405600D03*
X1060000Y386600D03*
X430000Y419500D03*
X430000Y400500D03*
X800000Y405600D03*
X800000Y386600D03*
X540000Y405600D03*
X540000Y386600D03*
D15*
X299500Y168000D03*
X208500Y168000D03*
X299500Y213000D03*
X208500Y213000D03*
M02*
